<svg xmlns="http://www.w3.org/2000/svg" width="486" height="420" viewBox="0 0 486 420">
  <path fill="#EF2D7C" fill-rule="evenodd" d="M343.506425,3311.61992 C360.662825,3296.60922 351.986025,3277.39422 338.872225,3263.96015 C332.331759,3257.25953 329.160125,3249.75419 328.223425,3239.68684 C326.333592,3219.35507 355.042625,3184.96515 386.561759,3190.58184 C403.455225,3193.58726 407.875792,3218.64888 427.464325,3219.58499 C445.278059,3220.43899 455.614625,3206.88995 449.665759,3189.97419 C442.089992,3168.39426 415.106459,3176.22807 398.623825,3168.4928 C385.625059,3162.39984 383.965292,3144.13738 385.164925,3133.36384 C386.693225,3119.63415 398.377325,3106.33145 417.357825,3109.63249 C453.511159,3115.92253 441.054692,3062.41615 409.880659,3081.79538 C402.469225,3086.41026 390.259259,3084.45592 385.312825,3079.95599 C372.511259,3068.29561 368.550825,3041.01688 378.575159,3032.08272 C385.986592,3025.48065 393.858159,3028.04265 409.782059,3021.21065 C428.417459,3013.21261 436.436925,2982.68211 420.940292,2972.38484 C402.239159,2959.95257 381.911125,2972.38484 372.330492,2999.77853 C369.438225,3008.08861 360.136959,3014.64142 349.093759,3015.10126 C340.975692,3015.44615 325.610525,3006.70907 320.828425,3000.99384 C312.776092,2991.32065 315.947725,2984.91565 322.290992,2975.89938 C329.653125,2965.40503 335.076125,2956.25738 335.782759,2943.8908 C336.587992,2929.47134 331.230725,2919.51895 321.896592,2915.56099 C314.435859,2912.40776 301.617859,2913.22892 293.943492,2922.09738 C279.925859,2938.30695 301.042692,2961.21715 285.496759,2978.0508 C269.342792,2995.54138 217.561359,2996.4118 206.928992,2990.72942 C187.028225,2980.08726 198.712325,2949.21188 178.959459,2937.23945 C157.645425,2924.31449 136.347825,2942.72476 143.775692,2969.05095 C148.442759,2985.60542 167.456125,2987.13276 174.243092,2997.84061 C180.142659,3007.13607 173.536459,3023.47703 163.364225,3034.18488 C156.642992,3041.2468 145.632659,3047.10984 134.129325,3042.87269 C124.975959,3039.50595 124.877359,3029.12657 111.533492,3026.41676 C97.5980252,3023.59199 90.3016252,3036.7633 92.4215252,3046.55145 C94.9358252,3058.1133 101.229792,3061.66069 120.719725,3062.18622 C129.741625,3062.43257 139.897425,3073.50172 137.054459,3088.23322 C134.326525,3102.24211 125.797625,3107.13619 115.937625,3108.46645 C108.016759,3109.55038 97.6801919,3107.62888 89.8250586,3102.11072 C66.2760919,3085.57269 47.7064252,3099.9593 46.2767252,3115.13422 C44.2225586,3137.00976 56.5311252,3148.52234 74.8542919,3148.34169 C92.6022919,3148.14461 96.0368586,3141.08269 109.775125,3139.93307 C123.135425,3138.83272 129.971692,3144.13738 136.183492,3155.48572 C141.852992,3165.78299 139.552325,3176.08026 132.683192,3177.80469 C109.972325,3183.47065 125.403225,3212.01395 142.132359,3197.26603 C146.996625,3192.96319 153.208425,3195.88649 157.891925,3200.38642 C164.448825,3206.69288 165.599159,3214.69092 165.385525,3222.14699 C164.810359,3243.8583 146.355725,3244.89295 138.714225,3251.00234 C123.973525,3262.77769 125.846925,3286.50903 142.493892,3292.79907 C163.922959,3300.89565 178.729392,3280.39965 181.818859,3261.10253 C184.020925,3247.29072 184.743992,3239.06276 194.538259,3234.4643 C201.768925,3231.0483 218.284425,3232.46069 225.531525,3238.75072 C231.759759,3244.15392 234.043992,3253.05522 229.459092,3258.49126 C219.730559,3270.03669 222.869325,3285.31015 238.513859,3286.5583 C252.646525,3287.67507 254.930759,3271.69542 251.496192,3259.34526 C249.392725,3251.80707 256.081092,3238.17592 275.176625,3236.84565 C291.708559,3235.67961 298.955659,3248.86734 302.423092,3260.16642 C306.301359,3272.84503 301.486392,3282.05838 305.364659,3298.15299 C310.623325,3319.91357 331.427925,3322.19638 343.506425,3311.61992 M101.081892,3281.54926 C92.4379586,3271.87607 75.7088252,3280.16972 75.6266586,3291.40311 C75.5444919,3302.45584 87.3436252,3312.52319 97.3679586,3306.49592 C104.089192,3302.48869 109.528625,3290.99253 101.081892,3281.54926 M13.7551586,3093.68569 C8.43075857,3090.36822 0.0826252342,3093.06161 0.000458567547,3099.69653 C-0.0488414325,3104.11434 3.87872523,3110.15803 10.9450586,3108.89345 C18.1757252,3107.59603 19.1452919,3097.06884 13.7551586,3093.68569 M457.734525,3054.51665 C457.685225,3060.79026 464.373592,3066.48907 470.059525,3063.07307 C473.872059,3060.80669 476.945092,3054.28672 472.162992,3048.9328 C467.265859,3043.44749 457.783825,3048.16092 457.734525,3054.51665 M438.408925,3048.85069 C448.597592,3049.98388 458.950592,3040.09719 454.382125,3030.30903 C451.341959,3023.77265 441.268325,3017.67969 431.786292,3024.52811 C422.057759,3031.55719 428.105225,3047.70107 438.408925,3048.85069 M356.948892,2915.88945 C361.172259,2922.72145 372.297625,2924.34734 376.126592,2916.79272 C378.723059,2911.75084 377.622025,2902.58676 368.797325,2900.04119 C359.758992,2897.42992 352.692659,2908.97534 356.948892,2915.88945 M463.880592,3135.51526 C465.655392,3140.90203 472.902492,3146.61726 480.938392,3142.18303 C489.171492,3137.63384 486.016292,3124.47895 478.095425,3122.60672 C470.289592,3120.75092 461.267692,3127.46795 463.880592,3135.51526 M416.667625,3288.62761 C417.834392,3292.24069 422.682225,3296.05084 428.072359,3293.09469 C433.577525,3290.05642 431.474059,3281.23722 426.166092,3279.98907 C420.940292,3278.75734 414.909259,3283.24084 416.667625,3288.62761 M390.982325,3255.63365 C400.562959,3268.31226 416.684059,3265.37253 423.323125,3254.68111 C429.978625,3244.00611 419.165492,3229.20892 407.267759,3228.02645 C392.954325,3226.58122 383.422992,3245.63199 390.982325,3255.63365 M199.616159,2921.2598 C202.179759,2916.21792 201.095159,2907.05384 192.270459,2904.50826 C183.232125,2901.89699 176.149359,2913.42599 180.438459,2920.35653 C184.645392,2927.17211 195.770759,2928.81442 199.616159,2921.2598 M160.406225,2909.46803 C162.131725,2906.08488 161.408659,2899.95907 155.509092,2898.25107 C149.445192,2896.51022 144.712392,2904.22907 147.571792,2908.86038 C150.398325,2913.42599 157.842625,2914.50992 160.406225,2909.46803 M35.9072919,3092.09265 C27.2797919,3091.09084 24.8640919,3079.80819 29.9419919,3073.32107 C35.0691919,3066.73542 48.7252919,3069.41238 49.4154919,3079.0363 C50.1056919,3088.4303 41.6918252,3092.74957 35.9072919,3092.09265" transform="translate(0 -2898)"/>
</svg>
