<?xml version="1.0" standalone="no"?>
<!DOCTYPE svg PUBLIC "-//W3C//DTD SVG 1.1//EN" "http://www.w3.org/Graphics/SVG/1.1/DTD/svg11.dtd" >
<svg xmlns="http://www.w3.org/2000/svg" xmlns:xlink="http://www.w3.org/1999/xlink" version="1.1">
<metadata>
Created by FontForge 20170731 at Fri Jan 29 05:47:41 2021
 By Aleksey,,,
(c) 2017 Nintendo. All Rights Reserved.
</metadata>
<defs>
<font id="Splatoon2" horiz-adv-x="606" >
  <font-face 
    font-family="Splatoon2"
    font-weight="400"
    font-stretch="normal"
    units-per-em="2048"
    panose-1="0 0 0 0 0 0 0 0 0 0"
    ascent="1802"
    descent="-246"
    x-height="1145"
    cap-height="1589"
    bbox="4 -637 2800 2255"
    underline-thickness="102"
    underline-position="-304"
    unicode-range="U+0001-FFE8"
  />
<missing-glyph 
 />
    <glyph glyph-name=".notdef" 
 />
    <glyph glyph-name=".null" horiz-adv-x="0" 
 />
    <glyph glyph-name="nonmarkingreturn" horiz-adv-x="682" 
 />
    <glyph glyph-name="cid1" 
 />
    <glyph glyph-name="cid1" 
 />
    <glyph glyph-name="uni0001" 
 />
    <glyph glyph-name="uni0002" 
 />
    <glyph glyph-name="uni0003" 
 />
    <glyph glyph-name="uni0004" 
 />
    <glyph glyph-name="uni0005" 
 />
    <glyph glyph-name="uni0006" 
 />
    <glyph glyph-name="uni0007" 
 />
    <glyph glyph-name="uni0008" 
 />
    <glyph glyph-name="uni0009" unicode="&#x9;" 
 />
    <glyph glyph-name="uni000A" unicode="&#xa;" 
 />
    <glyph glyph-name="uni000B" 
 />
    <glyph glyph-name="uni000C" 
 />
    <glyph glyph-name="CR" unicode="&#xd;" 
 />
    <glyph glyph-name="uni000E" 
 />
    <glyph glyph-name="uni000F" 
 />
    <glyph glyph-name="uni0010" 
 />
    <glyph glyph-name="uni0011" 
 />
    <glyph glyph-name="uni0012" 
 />
    <glyph glyph-name="uni0013" 
 />
    <glyph glyph-name="uni0014" 
 />
    <glyph glyph-name="uni0015" 
 />
    <glyph glyph-name="uni0016" 
 />
    <glyph glyph-name="uni0017" 
 />
    <glyph glyph-name="uni0018" 
 />
    <glyph glyph-name="uni0019" 
 />
    <glyph glyph-name="uni001A" 
 />
    <glyph glyph-name="uni001B" 
 />
    <glyph glyph-name="uni001C" 
 />
    <glyph glyph-name="uni001D" 
 />
    <glyph glyph-name="uni001E" 
 />
    <glyph glyph-name="space" unicode=" " 
 />
    <glyph glyph-name="cid2" unicode="!" horiz-adv-x="794" 
d="M541 -76h-289q-6 129 -14 242q147 4 309 0q-2 -117 -6 -242zM551 311h-313q-13 251 -25.5 572t-18.5 517l-6 195l449 -6z" />
    <glyph glyph-name="cid3" unicode="&#x22;" horiz-adv-x="1095" 
d="M614 1303q-6 259 -26 563q202 2 409 2q-34 -326 -65 -578q-171 7 -318 13zM135 1303q-21 277 -31 563q205 2 412 2q-30 -290 -63 -570q-156 -1 -318 5z" />
    <glyph glyph-name="cid4" unicode="#" horiz-adv-x="1505" 
d="M834 883q-51 2 -146 2q-57 -178 -82 -252h144q35 100 84 250zM1284 1247l111 2l-9 -372h-264q-12 -32 -43.5 -118.5t-46.5 -125.5l131 2q2 -49 2 -141t-1 -159l-1 -67l-272 -4q-31 -86 -137 -395h-277q58 153 144 405l-136 -2q-41 -133 -127 -403h-276q47 153 119 407
h-88l-9 353q35 1 103 2t102 2q10 33 72 256h-143q-3 77 -3.5 167t0.5 142l1 51q48 0 133.5 -1t113.5 -1q33 100 65.5 205.5t49.5 161.5l16 55q166 0 338 -4q-53 -155 -139 -418q72 0 148 2q36 112 126 420q158 0 324 -4q-70 -207 -127 -418z" />
    <glyph glyph-name="cid5" unicode="$" horiz-adv-x="1222" 
d="M741 -92l-2 -187l-247 -2v191h-91q-157 110 -288 225q0 47 -2.5 104.5t-4.5 91.5l-2 34q15 1 42.5 2t105.5 2t149 0q1 -144 5 -224q44 0 83 2q0 46 -1 162.5t-1 184.5q-69 0 -92 -2q-153 118 -313 237q4 332 -14 612q131 130 268 265q45 2 117 4q-1 21 8.5 100.5
t9.5 95.5h311l-2 -188q14 0 50 1t49 1q116 -139 276 -293q-8 -161 -31 -356q-126 4 -247 4q-2 153 2 350l-105 -4q-5 -209 -12 -573h119q114 -119 245 -234q-14 -200 -16 -362q-119 -127 -250 -244h-119zM485 750q-4 383 -8 555l-98 -5q-4 -275 6 -550h100zM860 494h-104
q-4 -224 -8 -336q14 1 55 3t57 3q4 146 0 330z" />
    <glyph glyph-name="cid6" unicode="%" horiz-adv-x="1632" 
d="M1305 444h-142l-4 -176l133 2zM1546 457q-4 -63 -9 -110t-8 -63l-3 -16q-36 -46 -88 -94t-86 -73l-35 -25l-162 4q-47 37 -98.5 83.5t-78.5 74.5l-28 28q-1 62 -3 110.5t-3 66.5l-2 18q42 39 92 91t80 84l29 32l174 6q39 -41 96.5 -95t94.5 -88zM463 1219h-141l-5 -177
l134 2zM684 1231q-4 -63 -9 -110t-8 -63l-3 -16q-36 -46 -83 -94t-77 -73l-29 -25l-162 4q-47 37 -103.5 83.5t-89.5 74.5l-32 28q-1 62 -3 110.5t-3 66.5l-2 18l221 207l174 6zM1020 1755q64 -21 151.5 -53t142.5 -54l56 -22q-183 -402 -378 -848.5t-298 -691.5l-104 -246
q-55 16 -130.5 44t-123.5 48l-49 21q169 408 352.5 858.5t282.5 696.5z" />
    <glyph glyph-name="cid7" unicode="&#x26;" horiz-adv-x="1597" 
d="M528 147l236 109q-113 164 -242 336l-170 -205q32 -56 76 -116t72 -92zM489 1059l70 -74q29 34 107 117t118 133l-209 143zM1524 391q-29 -98 -65.5 -206t-58.5 -167l-22 -59q-97 31 -201 67.5t-159 57.5l-55 20q-45 -46 -116.5 -108t-120.5 -100l-48 -39l-381 55
l-221 240l86 393l241 262q-83 149 -124 221l20 469q77 43 173.5 99t153.5 91l58 35l281 -196q16 -75 34 -172t29 -157l10 -60q-62 -64 -139.5 -143t-124.5 -126l-47 -47q56 -68 124 -145t108 -120l40 -44q19 79 45.5 175.5t43.5 152.5l16 57q68 -19 146 -38t122 -29l43 -9
l-184 -385q55 -12 128 -23t119 -17z" />
    <glyph glyph-name="cid8" unicode="'" horiz-adv-x="567" 
d="M70 1696q210 -4 417 -4q-8 -217 -14 -381q-82 -164 -139 -301q-76 16 -162 43q32 112 55 231q-6 -4 -139 21q-12 217 -18 391z" />
    <glyph glyph-name="cid9" unicode="(" horiz-adv-x="942" 
d="M492 1845q82 -51 172 -111t139 -94l49 -34l-381 -422q-10 -175 -12 -386.5t1 -335.5l3 -124q60 -62 150.5 -146.5t150.5 -137.5l61 -54l-258 -186q-96 108 -200 215.5t-159 160.5l-56 54l-46 1046q86 119 182.5 258t149.5 218z" />
    <glyph glyph-name="cid10" unicode=")" horiz-adv-x="948" 
d="M412 1827q193 -266 424 -537q-18 -537 -45 -1046q-199 -201 -416 -430q-131 98 -246 186q228 199 365 338q1 494 -5 862q-194 209 -378 397q164 130 301 230z" />
    <glyph glyph-name="cid11" unicode="*" horiz-adv-x="870" 
d="M743 1491q-28 -14 -70.5 -40.5t-66.5 -39.5q74 -51 137 -82q-51 -69 -94 -137q-33 18 -66.5 38.5t-50.5 31.5l-18 12v-170q-68 2 -156 4q0 19 0.5 38t0.5 35v30.5t-0.5 25.5t-0.5 19v13v5q-57 -39 -143 -86q-37 75 -82 141q61 41 135 82q-67 47 -143 82q57 73 92 145
q27 -14 69.5 -43t69.5 -43q-2 100 -4 166q72 -6 164 2q0 -115 -2 -170q57 37 139 86q43 -73 90 -145z" />
    <glyph glyph-name="cid12" unicode="+" horiz-adv-x="1355" 
d="M831 872q176 -4 371 -4q0 -149 -6 -288q-203 8 -369 12q-2 -209 -2 -385q-141 6 -309 10v371q-151 -6 -358 -10q-5 149 -13 307l365 -8q2 175 -8 378q168 5 342 11z" />
    <glyph glyph-name="cid13" unicode="," horiz-adv-x="571" 
d="M70 264q210 -4 417 -4q-8 -217 -14 -379q-82 -164 -139 -301q-76 16 -162 43q32 113 55 232q-6 -5 -139 20q-12 215 -18 389z" />
    <glyph glyph-name="cid14" unicode="-" horiz-adv-x="1030" 
d="M106 717q403 -17 828 -21q-4 -200 -14 -372q-440 -11 -801 -15q-11 201 -13 408z" />
    <glyph glyph-name="cid15" unicode="." horiz-adv-x="620" 
d="M520 264l-16 -381l-393 4l-9 385z" />
    <glyph glyph-name="cid16" unicode="/" horiz-adv-x="1476" 
d="M938 1755l305 -102q-183 -402 -378 -848.5t-299 -692.5l-103 -245q-55 16 -120 37.5t-103 35.5l-37 13q170 408 354 858.5t283 696.5z" />
    <glyph glyph-name="cid17" unicode="0" horiz-adv-x="1226" 
d="M418 1239q10 -591 14 -1024q135 -2 344 -6q3 62 6.5 166.5t9.5 375.5t5 480q-23 1 -61 3t-138.5 4.5t-179.5 0.5zM1065 197q-137 -135 -270 -293q-135 2 -373 10q-18 14 -48.5 40t-109.5 105t-141 156q-7 470 -27 1040q131 179 289 347q207 -6 459 0q158 -174 291 -371
q-47 -550 -70 -1034z" />
    <glyph glyph-name="cid18" unicode="1" horiz-adv-x="712" 
d="M621 1581q-48 -794 -62 -1675q-160 4 -326 4q41 763 78 1335q-94 8 -211 -4q-16 168 -18 340q293 8 539 0z" />
    <glyph glyph-name="cid19" unicode="2" horiz-adv-x="1234" 
d="M1100 1309q-31 -305 -74 -650q-135 -131 -295 -272q-143 8 -299 16q6 -188 12 -215q302 11 637 31q-6 -159 -20 -317q-429 4 -899 8q-12 252 -37 506q142 125 285 272q137 6 305 0q25 229 39 590q-55 0 -326 6q21 -143 39 -416q-174 -10 -350 -10q0 140 -8 440
q150 183 256 308q186 6 438 16q158 -163 297 -313z" />
    <glyph glyph-name="cid20" unicode="3" horiz-adv-x="1165" 
d="M53 154l8 307l328 -12q-1 -68 -3.5 -136t-4.5 -101l-2 -34l393 4q-3 100 -9.5 214.5t-12.5 179.5l-5 65l-327 25l10 290l307 19q4 80 5.5 160t1.5 119l-1 40l-485 -20q-11 71 -21 152t-14 126l-4 45l528 5l277 -254l10 -375q-47 -35 -95 -68.5t-73 -50.5l-24 -16
q33 -34 77.5 -73t72.5 -61l28 -22l74 -510q-57 -44 -125.5 -109.5t-108.5 -108.5l-39 -44q-128 3 -232 2.5t-169 -3.5l-66 -3q-68 34 -142.5 96t-115.5 107z" />
    <glyph glyph-name="cid21" unicode="4" horiz-adv-x="1159" 
d="M934 739q25 0 158 19q4 -139 0 -289q-133 -16 -164 -18q-4 -189 -5 -323t0 -173l1 -39q-78 -4 -162 -4t-129 2l-45 2q9 102 16.5 232t10.5 209l3 79q-77 -11 -137 -22.5t-81 -17.5l-21 -5q-76 58 -150.5 124t-110.5 103l-36 37l72 803l325 -43q-22 -151 -43 -335
t-31 -292l-10 -108l232 37l35 895l299 -4q-19 -558 -27 -869z" />
    <glyph glyph-name="cid22" unicode="5" horiz-adv-x="1128" 
d="M805 -90q-122 4 -221.5 3.5t-163.5 -3.5l-64 -4q-50 54 -110.5 121.5t-95.5 108.5l-35 40l8 246l328 -10q-10 -54 -19 -109.5t-12 -84.5l-4 -28l321 5q-5 108 -14.5 231t-16.5 192l-6 68h-303q-64 46 -131 99t-102 83l-35 29q5 208 14 389t15 258l6 78l856 -12
q-3 -71 -3.5 -150.5t0.5 -123.5l1 -44q-145 5 -292 13t-222 13l-74 5l-12 -334l299 19q67 -71 141 -144t115 -110l41 -37q-3 -101 3 -238.5t13 -224.5l8 -88q-38 -51 -96.5 -115t-97.5 -103z" />
    <glyph glyph-name="cid23" unicode="6" horiz-adv-x="1169" 
d="M752 670q-83 3 -157.5 2.5t-126.5 -2.5l-52 -2q-4 -231 -8 -488h370q-3 109 -9.5 231.5t-11.5 190.5zM1083 1128l-286 -2l-9 177h-366q-3 -84 -3.5 -180t0.5 -149l1 -54l352 32q61 -46 128 -109t104 -103l36 -40q9 -120 16 -256.5t10 -213.5l3 -76q-65 -56 -132.5 -117
t-102.5 -94l-35 -33q-94 -2 -193 -2t-151 1l-52 1q-79 55 -156.5 116.5t-114.5 95.5l-38 34q5 373 6.5 676.5t0.5 420.5l-1 117q74 61 149.5 121t114.5 89l39 30l406 2q57 -68 122 -133t101 -96l37 -31q5 -42 8.5 -98t4.5 -91z" />
    <glyph glyph-name="cid24" unicode="7" horiz-adv-x="1048" 
d="M971 1593q-142 -938 -238 -1693l-303 10q102 722 170 1331q-214 -6 -541 -16q-6 171 -6 368q311 -2 918 0z" />
    <glyph glyph-name="cid25" unicode="8" horiz-adv-x="1173" 
d="M721 553q-115 6 -289 8q-1 -19 -2 -52t-3 -135t1 -186q107 -1 295 5q4 194 -2 360zM418 1327q2 -228 16 -461q121 0 295 -2q19 242 29 451q-115 10 -340 12zM864 721q36 -36 84 -75.5t78 -61.5l29 -21l-37 -403q-117 -121 -256 -248q-195 -2 -377 -4q-150 139 -248 270
q-21 186 -31 395q99 64 173 140q-32 40 -69 81t-58 62l-21 21l-39 458q158 138 283 281q201 6 434 -6q149 -144 266 -289q-18 -243 -49 -444q-96 -74 -162 -156z" />
    <glyph glyph-name="cid26" unicode="9" horiz-adv-x="1177" 
d="M424 688q75 -2 141.5 -1.5t112.5 1.5l47 2q19 284 27 617h-336zM965 -80l-478 -2l5 287q76 -3 131.5 -6.5t72.5 -6.5l17 -2l8 250q-75 -4 -155 -11.5t-122 -12.5l-43 -6q-64 58 -126.5 124t-93.5 103l-31 37l-48 653q73 63 146 136t110 115l37 42q78 2 169 2t142 -1
l52 -1l309 -289q-24 -314 -49.5 -667t-39.5 -548z" />
    <glyph glyph-name="cid27" unicode=":" horiz-adv-x="811" 
d="M188 324q25 -1 67.5 -2t157 -2.5t210.5 -0.5q-9 -231 -15 -403q-213 -2 -399 -8q-13 230 -21 416zM174 1159q25 -1 69 -2t162.5 -2t217.5 0q-9 -240 -15 -420q-220 -4 -415 -8q-13 239 -19 432z" />
    <glyph glyph-name="cid28" unicode=";" horiz-adv-x="770" 
d="M193 264q210 -4 417 -4q-8 -217 -14 -379q-82 -164 -139 -301q-76 16 -162 43q32 113 55 232q-6 -5 -139 20q-12 215 -18 389zM168 1151q225 -4 448 -4q-8 -238 -14 -420q-221 -2 -416 -8q-10 239 -18 432z" />
    <glyph glyph-name="cid29" unicode="&#x3c;" horiz-adv-x="937" 
d="M602 1163l242 -258l-543 -379q96 -75 230.5 -171.5t220.5 -156.5l86 -59q-44 -52 -98.5 -112t-86.5 -95l-32 -34q-128 108 -270.5 232t-220.5 194l-79 69l-10 295z" />
    <glyph glyph-name="cid30" unicode="=" horiz-adv-x="1409" 
d="M207 1174q541 -5 999 -5q4 -166 -8 -340q-490 -12 -985 -14q-2 191 -6 359zM207 637q53 -1 141.5 -2t363 -3t494.5 1q-6 -162 -8 -338q-505 -8 -985 -14q-2 190 -6 356z" />
    <glyph glyph-name="cid31" unicode="&#x3e;" horiz-adv-x="1034" 
d="M344 1167q346 -289 590 -477q-17 -151 -27 -280q-242 -215 -538 -490q-127 129 -242 242q315 217 522 362l-540 387q114 113 235 256z" />
    <glyph glyph-name="cid32" unicode="?" horiz-adv-x="1441" 
d="M1001 1651q80 -70 170 -159t141 -142l50 -54l-113 -542q-57 -48 -124 -97.5t-105 -74.5l-39 -25q-44 7 -78.5 4t-56.5 -9l-21 -7q-2 -64 -5.5 -121.5t-5.5 -83.5l-3 -25h-270l-17 283q47 39 94 90.5t70 83.5l23 31q36 -1 95.5 3.5t100.5 9.5l41 5l23 479q-133 4 -265 4.5
t-198 -0.5l-66 -1l15 -316q-81 -6 -170 -15t-138 -14l-49 -6l-41 330l330 375zM520 172q149 2 311 -2q-2 -117 -6 -242h-290q-7 129 -15 244z" />
    <glyph glyph-name="cid33" unicode="@" horiz-adv-x="1757" 
d="M971 195l10 397l-231 -2l28 -397zM1165 1542q111 -104 237 -230t196 -200l71 -74l-94 -792q-87 -38 -177.5 -87.5t-137.5 -79.5l-48 -30q-34 37 -61 66q-43 -26 -86 -59t-65 -52l-21 -20l-217 6q-44 41 -98.5 88.5t-86.5 74.5l-32 27q-12 97 -21.5 203.5t-13.5 164.5
l-4 58l219 207l264 6q4 60 -4 115q-51 -3 -369 -21q-20 142 -24 269l397 -21q68 -59 150 -126t130 -105l48 -37q-62 -145 -117 -303q-14 -199 -18 -344l186 135q12 113 21 263t13 244l3 93q-75 73 -151 140.5t-115 98.5l-39 31q-109 -3 -242 -9t-211 -10l-78 -5l-252 -338
l132 -760l276 -205l393 37l19 -170l-461 -74q-108 75 -219 155t-169 122l-57 43q-41 197 -84.5 418t-66.5 343l-23 122q71 108 159.5 245.5t141.5 220.5l52 84z" />
    <glyph glyph-name="cid34" unicode="A" horiz-adv-x="1054" 
d="M682 575q4 364 -6 689l-309 20q14 -384 41 -713zM928 -72q-117 2 -254 0q4 219 10 422q-150 -6 -248 -12q5 -213 15 -401q-146 -9 -285 -9q-46 630 -107 1387q134 160 279 293q166 -2 340 4q147 -150 319 -324q-40 -726 -69 -1360z" />
    <glyph glyph-name="cid35" unicode="B" horiz-adv-x="1042" 
d="M655 434q-55 4 -117 6t-97 2h-35q2 -180 10 -280q108 0 235 6q2 127 4 266zM635 700q17 309 33 607q-158 2 -295 0q4 -138 11.5 -291t13.5 -236l5 -84q132 0 232 4zM936 123q-127 -92 -258 -203q-232 4 -514 6q-61 878 -96 1641q299 27 624 39q137 -138 295 -283
q-47 -332 -82 -614q-39 -30 -83.5 -59t-69.5 -42l-25 -14q86 -41 225 -94q-14 -215 -16 -377z" />
    <glyph glyph-name="cid36" unicode="C" horiz-adv-x="1044" 
d="M913 137q-63 -56 -131.5 -113.5t-105.5 -87.5l-37 -30h-274q-58 60 -119 125.5t-93 100.5l-32 36q-16 223 -31.5 493t-23.5 428l-7 158q58 86 120 172t95 129l33 43l371 23l307 -328l-55 -510l-287 -12l31 510l-305 -19q-1 -232 1.5 -501t5.5 -422l3 -152q50 -2 111.5 -2
t97.5 1l37 1q4 44 7.5 103.5t5.5 96.5l1 38l303 -8q-4 -64 -11.5 -132t-12.5 -104z" />
    <glyph glyph-name="cid37" unicode="D" horiz-adv-x="1058" 
d="M346 1257l21 -1036l280 -2q16 229 31 490.5t22 408.5l7 146q-79 2 -169.5 0t-141.5 -4zM903 190q-118 -129 -239 -256q-32 -1 -82.5 -2t-202.5 -3t-256 3q-27 764 -70 1622q323 39 664 70q156 -160 299 -340q-62 -614 -113 -1094z" />
    <glyph glyph-name="cid38" unicode="E" horiz-adv-x="958" 
d="M791 788l12 -301l-418 -24q4 -158 10 -242q227 9 498 29q-4 -166 -8 -324q-168 -4 -350 -4.5t-281 0.5l-98 2q-33 764 -99 1659l848 14q-8 -178 -18 -352q-298 15 -527 29q2 -128 5.5 -264.5t6.5 -208.5l3 -72q176 22 416 59z" />
    <glyph glyph-name="cid39" unicode="F" horiz-adv-x="935" 
d="M846 1194l-428 43q-15 -317 -15 -571q178 16 385 41l9 -289q-214 -4 -396 -10q2 -277 2 -482l-264 -2q-40 848 -73 1651q138 7 344.5 13t343.5 8l137 3q-16 -190 -45 -405z" />
    <glyph glyph-name="cid40" unicode="G" horiz-adv-x="1122" 
d="M719 1270q-162 2 -305 -8q12 -538 16 -1069q197 -5 289 -7q2 98 4 170q-141 -6 -186 -10q-1 46 0 109t3 103l1 40l483 -27q-17 -246 -29 -393q-115 -119 -262 -252q-186 -2 -301 -8q-141 103 -266 242q-45 517 -92 1104q165 171 321 329q189 4 420 6q105 -151 236 -301
q-5 -139 -15 -272q-162 2 -336 0q9 117 19 244z" />
    <glyph glyph-name="cid41" unicode="H" horiz-adv-x="1060" 
d="M940 -84l-266 6l-2 481q-150 3 -279 3q4 -226 0 -476l-264 -4q-13 308 -27.5 721.5t-23.5 673.5l-8 260l348 8q-8 -208 -14 -440.5t-8 -360.5l-1 -129q115 7 281 15q-8 412 -8 919l350 -6q-23 -441 -42.5 -859t-27.5 -615z" />
    <glyph glyph-name="cid42" unicode="I" horiz-adv-x="485" 
d="M391 -70q-145 2 -299 0q-8 846 -33 1669q166 1 367 5q-35 -892 -35 -1674z" />
    <glyph glyph-name="cid43" unicode="J" horiz-adv-x="1073" 
d="M924 166q-47 -57 -106 -121t-94 -99l-36 -36q-53 -1 -130.5 3t-129.5 9l-51 4q-64 70 -130 138.5t-100 101.5l-34 33l-15 282q84 4 156 3.5t120 -4.5l48 -3l-14 -262q60 -5 121 -8t91 -3l31 -1l19 1405l336 -15q-16 -337 -36.5 -693.5t-33.5 -545.5z" />
    <glyph glyph-name="cid44" unicode="K" horiz-adv-x="1019" 
d="M934 -84l-336 14l-180 295l-4 -293q-67 -4 -136.5 -7t-105.5 -4l-37 -1q-8 288 -22 708t-25 696l-10 275q78 -1 162.5 1t129.5 4l46 2q-5 -147 -4 -245.5t4 -148.5l4 -51q129 181 256 410q117 -55 260 -135q-116 -175 -239 -365t-188 -293l-65 -102q154 -262 295 -461
l207 25q0 -75 -3 -156t-6 -124z" />
    <glyph glyph-name="cid45" unicode="L" horiz-adv-x="784" 
d="M381 221l336 29l12 -322h-618l-39 1661l352 10q-16 -373 -27 -717.5t-13 -502.5z" />
    <glyph glyph-name="cid46" unicode="M" horiz-adv-x="1355" 
d="M416 1606q56 -277 120 -554t100 -416l36 -138q56 245 124 522.5t108 432.5l40 155q93 -5 170 -11.5t108 -10.5l31 -3q-6 -420 -6.5 -835.5t1.5 -620.5l3 -205l-276 4q1 184 -1 390.5t-4 321.5l-3 114l-160 -588q-48 -1 -117.5 0.5t-114.5 3.5l-45 2q-36 140 -75.5 284.5
t-60.5 219.5l-21 74q3 -197 2.5 -379.5t-2.5 -312.5l-2 -130q-57 -2 -108 -3.5t-82.5 -2t-55 -0.5h-33.5h-10q7 388 10.5 803.5t3.5 637.5v222q78 8 158 13.5t121 7.5z" />
    <glyph glyph-name="cid47" unicode="N" horiz-adv-x="1153" 
d="M766 487q4 522 16 1123q146 -2 312 -8q-39 -812 -76 -1678q-118 -4 -270 -8q-209 507 -361 899q25 -423 39 -895q-154 4 -328 6q-12 748 -18 1678q109 0 285 6q208 -626 401 -1123z" />
    <glyph glyph-name="cid48" unicode="O" horiz-adv-x="1089" 
d="M377 1239q10 -591 14 -1024q74 -2 283 -6q2 62 6 166.5t9.5 375.5t4.5 480q-16 1 -44 3t-111 4.5t-162 0.5zM942 197q-117 -135 -250 -293q-73 2 -311 10q-140 127 -279 301q-6 470 -26 1040q12 20 35 54.5t93 126t140 166.5q145 -6 397 0q138 -174 271 -371
q-47 -550 -70 -1034z" />
    <glyph glyph-name="cid49" unicode="P" horiz-adv-x="1093" 
d="M395 1296l-2 -749q64 -2 128.5 -0.5t113.5 3.5l49 3l35 745zM946 508q-57 -50 -123.5 -103.5t-104.5 -81.5l-38 -28q-68 2 -139.5 5.5t-109.5 5.5l-38 3q-4 -199 -4 -387q-116 2 -266 2q-29 868 -49 1669l667 21q68 -68 141.5 -144.5t113.5 -119.5l40 -43
q-21 -203 -43.5 -403t-34.5 -298z" />
    <glyph glyph-name="cid50" unicode="Q" horiz-adv-x="1144" 
d="M735 -74q5 -23 19 -78.5t20 -78.5q91 0 197 6q10 -141 0 -258q-195 6 -365 14q-35 121 -94 399q-20 1 -62.5 2t-64.5 2q-146 142 -279 281q-6 470 -26 1040q127 171 268 347q207 -6 459 0q137 -174 270 -371q-39 -546 -49 -1034q-121 -134 -250 -273q-14 0 -43 2z
M381 1239q10 -591 14 -1024q135 -2 344 -6q3 62 6.5 166.5t9.5 375.5t5 480q-23 1 -61 3t-138.5 4.5t-179.5 0.5z" />
    <glyph glyph-name="cid51" unicode="R" horiz-adv-x="1040" 
d="M379 1307l-2 -729q129 -9 252 -17q9 163 22 352t22 297l9 107zM971 201l-19 -281l-313 12q-53 91 -105 190.5t-78 153.5l-26 54l-51 2q8 -168 20 -406q-178 -4 -284 0q-15 797 -54 1663q345 21 641 31l289 -297l-82 -776q-53 -44 -110.5 -94t-88.5 -79l-32 -28l104 -139
q53 2 95 1t68 -4z" />
    <glyph glyph-name="cid52" unicode="S" horiz-adv-x="1114" 
d="M1053 1327q-8 -161 -31 -356q-147 4 -268 4q-2 153 2 350q-207 -17 -357 -25q-3 -275 7 -550q172 -2 352 -2q135 -119 266 -234q-14 -200 -16 -362q-140 -127 -271 -244q-168 0 -315 2q-178 110 -309 225q0 47 -2.5 104.5t-4.5 91.5l-2 34q18 1 48.5 2t114.5 2t155 0
q0 -144 4 -224q139 7 311 19q4 146 0 330q-141 2 -321 -2q-174 118 -334 237q4 332 -14 612q151 130 288 265q183 8 400 14q137 -139 297 -293z" />
    <glyph glyph-name="cid53" unicode="T" horiz-adv-x="1073" 
d="M383 -78q-6 445 -16 1297q-107 -5 -281 -11q-12 199 -20 383l940 13l-19 -381l-297 2q-17 -661 -33 -1297q-137 -2 -274 -6z" />
    <glyph glyph-name="cid54" unicode="U" horiz-adv-x="1085" 
d="M1034 1550q-29 -676 -49 -1296q-131 -157 -268 -350q-125 2 -289 2q-155 161 -309 311q-17 322 -32 666t-21 527l-7 183q168 5 369 9q-12 -718 0 -1348q144 2 287 10q6 599 18 1288q147 0 301 -2z" />
    <glyph glyph-name="cid55" unicode="V" horiz-adv-x="1118" 
d="M569 354q45 259 96 571t79 495l28 182q64 -7 138 -18t116 -18l43 -7q-79 -383 -161.5 -791.5t-125.5 -625.5l-43 -216l-377 -8q-73 345 -150 752.5t-118 642.5l-41 235l357 54z" />
    <glyph glyph-name="cid56" unicode="W" horiz-adv-x="1482" 
d="M930 -74q-56 275 -104.5 523.5t-68.5 359.5l-20 111q-36 -236 -80 -484.5t-70 -379.5l-26 -130l-346 2l-145 1659l315 19q7 -238 18 -495t18 -395l7 -138q41 268 81 521t59 371l20 119l254 4q39 -235 89 -490.5t81 -393.5l30 -138q15 250 28 508t18 391l6 132
q71 -2 150.5 -7t123.5 -9l43 -5l-154 -1657z" />
    <glyph glyph-name="cid57" unicode="X" horiz-adv-x="993" 
d="M911 -59l-288 -29l-142 461l-125 -469l-293 30q71 200 141 407.5t104 314.5l34 108q-137 431 -262 809l336 37q16 -91 39 -193.5t38 -159.5l15 -57q76 224 117 404l305 -35q-72 -185 -148.5 -386t-116.5 -310l-40 -109q128 -394 286 -823z" />
    <glyph glyph-name="cid58" unicode="Y" horiz-adv-x="987" 
d="M852 598l-219 -217q-2 -11 -4.5 -39t-6 -141t4.5 -277q-133 -2 -283 2q-8 147 -8 463q-59 55 -115.5 113t-82.5 88l-27 31q-12 167 -27 410t-24 403l-9 159l316 4q-4 -684 2 -968l239 -8l13 976l321 -2q-45 -609 -90 -997z" />
    <glyph glyph-name="cid59" unicode="Z" horiz-adv-x="1028" 
d="M985 1217q-363 -542 -659 -996q275 18 608 55q-21 -180 -27 -346q-351 -4 -737 -4q-68 160 -119 303q325 528 617 1006q-288 -2 -566 -4q-4 158 -14 373q331 -11 705 -15q94 -169 192 -372z" />
    <glyph glyph-name="cid60" unicode="[" horiz-adv-x="997" 
d="M809 1421l-336 13q-1 -230 4 -548t10 -521l5 -203q132 3 301 28l30 -376l-628 -4q-15 446 -35.5 953t-33.5 791l-13 283l741 -6q-9 -102 -20 -202.5t-18 -152.5t-7 -55z" />
    <glyph glyph-name="cid97" unicode="\" horiz-adv-x="1298" 
d="M408 1782q347 -838 780 -1829q-150 -60 -291 -113q-409 957 -811 1817q134 51 322 125z" />
    <glyph glyph-name="cid62" unicode="]" horiz-adv-x="993" 
d="M209 1395q-23 229 -35 436q325 -4 717 -8q-66 -1061 -78 -2026q-347 4 -670 8q35 210 45 398q33 -6 353 -62q2 87 5 230t7.5 488t3.5 575q-194 -19 -348 -39z" />
    <glyph glyph-name="cid63" unicode="^" horiz-adv-x="1269" 
d="M1202 981q-61 -46 -130 -107t-108 -99l-38 -38l-279 434q-64 -87 -146.5 -196.5t-132.5 -175.5l-51 -66q-57 62 -123.5 129t-104.5 103l-38 36q110 108 231.5 233t187.5 196l67 71l247 -24q76 -98 180.5 -222t171.5 -199z" />
    <glyph glyph-name="cid64" unicode="_" horiz-adv-x="870" 
d="M74 272q388 -12 727 -20q-11 -131 -15 -309q-298 -7 -698 -15q-12 166 -14 344z" />
    <glyph glyph-name="cid65" unicode="`" horiz-adv-x="706" 
d="M72 1722q163 82 325 168q123 -239 258 -512q-143 -71 -280 -139q-143 235 -303 483z" />
    <glyph glyph-name="cid66" unicode="a" horiz-adv-x="1046" 
d="M352 563q7 -217 27 -438q159 21 235 31q7 184 13 403q-15 1 -40.5 2t-102 3t-132.5 -1zM795 -37l-400 -90q-124 103 -278 195q-18 245 -47 559q110 84 264 188q61 -7 137 -16.5t120.5 -15t45.5 -5.5q4 22 7 57.5t4 60.5l1 24l-442 -21q-13 106 -19 266h480
q132 -108 243 -204q-22 -202 -39 -403t-24 -300l-6 -100q40 -15 157 -31q-12 -56 -27.5 -117t-24.5 -94l-9 -33z" />
    <glyph glyph-name="cid67" unicode="b" horiz-adv-x="1005" 
d="M688 883q-182 -11 -317 -19q-2 -402 8 -723q145 -2 272 2q27 409 37 740zM127 -61q-39 819 -72 1646l316 8q-4 -141 -5 -258.5t0 -164.5l1 -48q161 19 317 29q121 -109 266 -238q-37 -410 -82 -788q-81 -120 -196 -231q-261 20 -545 45z" />
    <glyph glyph-name="cid68" unicode="c" horiz-adv-x="978" 
d="M928 885l4 -221l-275 14l-4 178l-291 14q5 -153 9.5 -331t6.5 -279l1 -102l246 -11l-2 187l286 -4v-183q-55 -62 -110.5 -122t-84.5 -89l-28 -30l-332 -17q-73 65 -138 126t-94 89l-28 29l-28 752q62 59 128.5 129t101.5 110l36 41l330 -16z" />
    <glyph glyph-name="cid69" unicode="d" horiz-adv-x="983" 
d="M377 143l270 -2q4 143 6 324t2 290v109l-315 19q4 -148 13.5 -333t16.5 -296zM356 -106q-60 49 -114 107t-78 91l-25 33q-20 168 -40.5 365t-30.5 310l-11 113q74 57 145.5 116.5t106.5 90.5l35 31q69 -4 148 -11.5t123 -12.5l44 -5q4 155 -4 492q142 -6 277 -8
l-70 -1667z" />
    <glyph glyph-name="cid70" unicode="e" horiz-adv-x="987" 
d="M350 659l307 31l15 193l-324 -9zM883 133q-41 -53 -93 -107t-84 -82l-32 -28l-318 -22l-258 227l-39 743q53 70 114.5 143t96.5 111l35 37l393 -16q54 -49 118.5 -110.5t101.5 -98.5l38 -37q-16 -78 -33 -178t-27 -161l-9 -60l-529 -29q4 -159 4 -313q75 0 140.5 3.5
t93.5 6.5l29 4l-13 172q62 6 133.5 10t112.5 5l41 1z" />
    <glyph glyph-name="cid71" unicode="f" horiz-adv-x="886" 
d="M500 967l317 24l-8 -295q-190 4 -309 6q2 -392 0 -786q-26 -1 -53.5 -1t-51.5 0.5t-46 2t-39.5 3t-31 2.5t-20.5 2l-8 1q-2 466 -10 774q-107 -4 -166 -6l-8 262l163 5q-3 176 -28 391l274 254h381q-16 -205 -39 -404q-162 31 -305 58q-5 -5 -12 -293z" />
    <glyph glyph-name="cid72" unicode="g" horiz-adv-x="972" 
d="M631 866q-129 0 -283 -4q15 -353 19 -702q132 -2 243 2q17 487 21 704zM829 -313q-118 -117 -235 -215q-151 -2 -262 -2q-114 110 -223 229q8 76 10 172q143 -8 227 -14q-2 -88 -2 -154q115 -2 246 0q1 16 2 40t2 86t-2 79q-108 2 -221 2q-141 122 -256 235
q-21 361 -52 725q132 148 273 277q137 8 303 8q146 -124 285 -276q-18 -223 -35.5 -404.5t-29.5 -332t-30 -455.5z" />
    <glyph glyph-name="cid73" unicode="h" horiz-adv-x="1019" 
d="M637 -74q10 496 16 905q-133 -2 -272 -8q-6 -464 -8 -897q-135 -6 -256 -6q-19 937 -37 1679l313 5l-14 -547q35 63 82 112q125 -4 260 -12q116 -166 231 -305q-14 -468 -18 -932q-150 2 -297 6z" />
    <glyph glyph-name="cid74" unicode="i" horiz-adv-x="483" 
d="M360 -70h-256l-6 1215l299 -4q-10 -263 -19.5 -566t-13.5 -474zM408 1305q-154 2 -322 4q-6 170 -10 309q170 0 344 -4q-6 -135 -12 -309z" />
    <glyph glyph-name="cid75" unicode="j" horiz-adv-x="598" 
d="M164 1618q188 0 364 -4q-6 -135 -14 -309q-172 2 -340 4q-6 170 -10 309zM174 1137q188 -4 340 6q-17 -681 -25 -1327q-143 -156 -256 -285q-129 -15 -227 -23l2 306l189 6q-9 681 -23 1317z" />
    <glyph glyph-name="cid76" unicode="k" horiz-adv-x="987" 
d="M915 -80l-327 8q-52 114 -106 244.5t-82 204.5l-27 74q-4 -133 -6 -264t-2 -196v-65l-254 -2q-4 746 -33 1682l334 -2l-29 -852q115 216 201 413q143 -44 282 -112q-63 -76 -150 -188.5t-142 -186.5l-56 -74q107 -228 211 -418l205 7z" />
    <glyph glyph-name="cid77" unicode="l" horiz-adv-x="477" 
d="M360 -80l-247 -2q-5 858 -23 1679h313q-23 -805 -43 -1677z" />
    <glyph glyph-name="cid78" unicode="m" horiz-adv-x="1406" 
d="M1028 -74q15 440 19 908q-79 -7 -181 -15q-12 -347 -28 -801q-107 2 -273 0q0 354 -2 795q-85 4 -196 8q4 -876 4 -899q-70 2 -258 0q-25 501 -39 918q116 157 268 315q110 -6 221 -10l105 -168q76 82 166 166q100 2 221 6q114 -115 276 -291q-9 -196 -16 -430t-9 -370
l-3 -136q-111 2 -275 4z" />
    <glyph glyph-name="cid79" unicode="n" horiz-adv-x="972" 
d="M649 -72q0 471 -4 908q-153 -1 -272 -9q-2 -431 8 -899q-84 2 -270 0q-15 575 -35 912q137 147 303 307q209 -4 287 -4q124 -143 241 -299q-11 -220 -20 -449.5t-12 -348.5l-3 -120q-104 0 -223 2z" />
    <glyph glyph-name="cid80" unicode="o" horiz-adv-x="974" 
d="M350 893q9 -372 17 -758q122 -10 235 -12q11 355 23 772q-164 2 -275 -2zM858 109q-129 -99 -258 -199h-238q-131 90 -262 213q-23 359 -37 784q121 131 238 240q144 10 334 22q145 -125 268 -266q-10 -107 -17.5 -231t-11.5 -220t-6.5 -178t-4.5 -125t-5 -40z" />
    <glyph glyph-name="cid81" unicode="p" horiz-adv-x="950" 
d="M365 899q-5 -361 -9 -698h228l24 678q-56 6 -116.5 11t-93.5 7zM596 -51l-254 -10l-2 -451h-244q-12 776 -35 1675l594 8l250 -270q-11 -171 -25 -349t-22 -270l-8 -92q-48 -58 -111.5 -118.5t-102.5 -91.5z" />
    <glyph glyph-name="cid82" unicode="q" horiz-adv-x="937" 
d="M342 891q-6 -353 4 -698h250q4 146 7 315t4 266l1 96q-123 13 -266 21zM82 182q-12 331 -37 711q131 139 252 270q252 -4 573 -8l-34 -1675h-265q13 235 19 450q-86 3 -256 11q-123 110 -252 241z" />
    <glyph glyph-name="cid83" unicode="r" horiz-adv-x="808" 
d="M737 823q-88 9 -186 17q-44 -39 -84.5 -79t-58.5 -61l-19 -20q-12 -366 -14 -754h-277q-2 261 -6 564t-7 475l-3 172h326l-5 -150q74 72 148 146q96 6 205 10q-7 -154 -19 -320z" />
    <glyph glyph-name="cid84" unicode="s" horiz-adv-x="1005" 
d="M932 901q4 -72 6 -178q-178 2 -311 10q0 68 2 148q-101 -3 -244 -13q0 -145 4 -239q113 -10 238 2q135 -105 280 -211q-8 -125 -24 -279q-139 -131 -248 -221q-127 -2 -285 -4q-145 131 -241 223q-9 74 -13 135l289 5q2 -62 2 -121q109 2 234 4l4 213q-59 3 -117.5 4
t-87.5 1l-29 -1q-68 48 -142 96t-115 72l-40 24q-6 172 -8 301q156 170 289 283q137 4 276 10q166 -168 281 -264z" />
    <glyph glyph-name="cid85" unicode="t" horiz-adv-x="876" 
d="M817 -86l-334 4q-129 119 -260 232q-4 153 -6 331.5t-2 280.5v102q-49 -2 -119 -2l-12 287l131 -6q0 221 -2 268q73 0 148 -2.5t114 -4.5l39 -3l-10 -254h301q-4 -115 -12 -295q-182 6 -299 10l-9 -690q67 3 148 8.5t129 9.5l47 5q4 -63 6 -133t2 -109v-39z" />
    <glyph glyph-name="cid86" unicode="u" horiz-adv-x="1064" 
d="M780 35q-65 -55 -135 -121l-268 2q-115 105 -256 244q-11 190 -20.5 437t-12.5 399l-4 151q150 2 324 -4q-15 -540 -17 -930q108 0 266 2q4 464 0 885q162 -2 324 -10q-10 -198 -26.5 -430t-28.5 -365l-11 -133q24 -9 58 -19t56 -16l22 -6l-62 -211l-125 31
q-17 24 -38 47.5t-34 35.5z" />
    <glyph glyph-name="cid87" unicode="v" horiz-adv-x="1048" 
d="M547 233q37 204 74 433t55 356l18 127q65 -5 139 -13.5t115 -13.5l41 -6q-64 -294 -136 -593t-111 -451l-40 -152q-75 1 -154.5 0t-121.5 -2l-43 -2q-70 288 -145.5 581.5t-115.5 442.5l-40 150q60 13 139.5 27.5t128.5 22.5l49 9q27 -187 64 -416t61 -365z" />
    <glyph glyph-name="cid88" unicode="w" horiz-adv-x="1232" 
d="M766 -74q-25 124 -64.5 281.5t-66.5 252.5l-27 95q-29 -148 -64 -305t-55 -240l-20 -84l-305 -6q-23 270 -52.5 572.5t-47.5 469.5l-19 168l287 15l30 -758q45 188 84.5 362t56.5 254l17 80h211q24 -145 58.5 -321.5t56.5 -280.5l22 -104q9 169 20.5 359t19.5 296l7 105
q43 -1 110 -5.5t113 -9.5l46 -4q-32 -260 -60 -559.5t-40 -468.5l-13 -170z" />
    <glyph glyph-name="cid89" unicode="x" horiz-adv-x="946" 
d="M872 -33q-56 -15 -126 -29.5t-112 -21.5l-42 -8q-27 75 -62.5 160t-57.5 132l-21 48l-138 -340l-268 41q70 133 140.5 270.5t105.5 208.5l35 72q-53 122 -122.5 275.5t-109.5 240t-39 88.5q64 18 144.5 34.5t128.5 23.5l49 7l102 -417q25 96 55 200t47 160l17 57
q57 -9 124 -23t106 -24l38 -10q-56 -146 -123 -297t-106 -229l-39 -78q49 -103 117.5 -238t112.5 -219z" />
    <glyph glyph-name="cid90" unicode="y" horiz-adv-x="985" 
d="M768 -530q-146 6 -252 10q23 213 39 461q-76 -7 -164 -23q-56 39 -123.5 93t-107.5 88l-39 34q-13 214 -31 464.5t-30 394.5l-11 143q68 5 152 9t134 6l50 1q-10 -490 6 -995q37 -3 81 -4t70 0h25q25 437 45 1009q172 -10 332 -18q-86 -760 -176 -1673z" />
    <glyph glyph-name="cid91" unicode="z" horiz-adv-x="1015" 
d="M954 844q-350 -355 -598 -649q222 2 557 10q-14 -172 -28 -289q-351 6 -729 0q-64 133 -109 270q292 327 586 664q-29 -1 -80 -2.5t-190 -4t-257 -1.5q-1 20 -2.5 53.5t-4 114.5t-1.5 137q329 -6 725 0q80 -153 131 -303z" />
    <glyph glyph-name="cid92" unicode="{" horiz-adv-x="1058" 
d="M610 1827l232 -223l-293 -215q19 -98 44.5 -211t41.5 -176l16 -64q-27 -29 -59.5 -66.5t-51.5 -60.5l-18 -23l129 -122l-92 -455l258 -166q-43 -53 -85.5 -109.5t-63.5 -87.5l-21 -30q-92 64 -196 139.5t-162 118.5l-58 43l131 502q-82 83 -180 167q101 92 164 160
q-29 101 -69 224t-65 196l-26 72q87 76 193 173t169 155z" />
    <glyph glyph-name="cid99" unicode="|" horiz-adv-x="571" 
d="M453 -111q-186 2 -340 0q10 993 -13 1837q166 1 367 5q-2 -99 -5 -272.5t-7 -659t-2 -910.5z" />
    <glyph glyph-name="cid94" unicode="}" horiz-adv-x="1073" 
d="M524 1827q229 -215 422 -387q-92 -265 -160 -492q29 -30 70.5 -70t68.5 -65l27 -25q-44 -37 -89 -79t-68 -65l-23 -23l129 -502q-207 -156 -414 -301q-74 108 -170 227q129 86 258 166q-39 209 -92 455q66 61 129 122q-68 84 -129 150q58 230 101 451q-137 102 -291 215
q120 117 231 223z" />
    <glyph glyph-name="cid100" unicode="~" horiz-adv-x="1200" 
d="M111 1460q184 119 346 232q137 -136 254 -232q123 74 254 170q70 -119 129 -209q-188 -98 -383 -207q-133 116 -244 216q-95 -77 -201 -173q-81 111 -155 203z" />
    <glyph glyph-name="cid101" unicode="&#xa1;" horiz-adv-x="841" 
d="M268 1214h289q6 -130 14 -245q-147 -2 -309 2q2 116 6 243zM258 825h315q12 -251 24 -571.5t18 -515.5l6 -195l-449 6z" />
    <glyph glyph-name="cid102" unicode="&#xa2;" horiz-adv-x="1091" 
d="M668 -213q-59 2 -211 0q0 36 -2 104l-121 -2q-73 65 -133 126t-83 89l-24 29l-28 752q62 59 123 129t91 110l31 41l117 -4q-1 25 -2 76t-2 76q77 0 278 4q-2 -62 -6 -166l88 -2q57 -56 118.5 -122t94.5 -104l33 -38l4 -221l-254 14l-4 178q-12 1 -45 2t-45 2
q-11 -349 -16 -713h78l-3 187l267 -4v-183q-55 -62 -105.5 -122t-74.5 -89l-23 -30q-21 -1 -72.5 -3t-68.5 -3v-113zM451 154q0 33 -15 714l-94 2q5 -153 9 -331t5 -279l2 -102q12 -1 46.5 -2t46.5 -2z" />
    <glyph glyph-name="cid103" unicode="&#xa3;" horiz-adv-x="1099" 
d="M500 907l172 4q-4 -61 -5 -126.5t0 -100.5l1 -35q-88 0 -168 -6q2 -175 2 -448q213 -6 495 -9q-4 -135 -10 -264q-53 -1 -143 -3t-329.5 -5t-432.5 -2q-4 156 -10 289q67 -2 176 -2q-6 355 -8 442q-107 -4 -166 -6l-8 262l163 4q-3 303 -28 518l274 252h381
q-16 -204 -39 -403q-162 30 -305 59q-1 -1 -12 -420z" />
    <glyph glyph-name="cid107" unicode="&#xa4;" horiz-adv-x="1320" 
d="M1030 0q-43 51 -141 162q-9 -7 -22 -14t-22 -10l-9 -3l-351 4l-51 25q-82 -95 -158 -164q-102 80 -194 168q53 45 168 145l-25 43l-12 414q4 4 12.5 22.5t12.5 22.5q-96 84 -162 158q96 80 192 170q54 -63 148 -178q9 7 22 13t22 8l9 3l367 8q6 -7 30 -20.5t29 -18.5
q73 81 131 170q98 -84 188 -170q-47 -55 -143 -147q9 -7 17 -18t12 -18l4 -7l-27 -410q-2 -2 -7 -17t-7 -17q78 -71 151 -150q-88 -80 -184 -174zM819 748h-321l-6 -390l309 4q6 68 10.5 164.5t6.5 159.5z" />
    <glyph glyph-name="cid61" unicode="&#xa5;" horiz-adv-x="1075" 
d="M967 1581q-17 -69 -46.5 -244t-50.5 -315l-20 -141l-238 -252q138 4 205 8l-4 -240l-192 4q0 -32 4 -110q66 2 192 6l-4 -240l-176 4q4 -30 7.5 -82t4.5 -63l-287 2l7 150h-138l-4 219h154q0 41 4 119q-86 3 -154 0l-4 219l172 2v8q-108 143 -247 278q-23 482 -58 664
q179 0 324 4q-2 -145 -1 -294t3 -263l2 -113q105 -4 199 -6q22 444 22 680q160 -4 324 -4z" />
    <glyph glyph-name="cid93" unicode="&#xa6;" horiz-adv-x="839" 
d="M217 1569q182 -2 381 -4q-10 -372 -16 -645q-19 -1 -52.5 -3t-125.5 -4.5t-171 -1.5q-10 465 -16 658zM231 559q195 -2 367 -4q-10 -457 -14 -625q-162 -6 -334 -8q-11 451 -19 637z" />
    <glyph glyph-name="cid720" unicode="&#xa7;" horiz-adv-x="1273" 
d="M1192 1161l-262 2l8 189q-89 2 -161 0.5t-117 -4.5l-46 -2q1 -59 4 -125t6 -102l3 -36l295 -2q60 -49 124.5 -108t99.5 -93l34 -34l-15 -260l-252 -211l17 -305l-299 -228q-67 -2 -140 -2t-113 1l-40 1q-63 49 -129 104t-101 85l-34 30v191l284 -2l-8 -158q78 -2 144 -1
t108 3l43 2l-22 275q-14 -1 -38 -1.5t-101.5 -1.5t-147.5 1q-123 117 -240 211l-14 274q62 43 126.5 96.5t97.5 85.5l34 33l-14 301q60 58 130 123.5t110 102.5l40 36l338 2q56 -51 120 -120t100 -112l36 -44zM909 606l-4 236q-300 2 -575 -2l8 -232q136 -3 278.5 -3.5
t217.5 0.5z" />
    <glyph glyph-name="cid647" unicode="&#xa8;" horiz-adv-x="987" 
d="M399 2077q-4 -60 -7 -129t-4 -108l-1 -38l-281 2l-6 277zM879 2077q-4 -60 -7 -128.5t-4 -107.5v-39l-282 2l-6 277z" />
    <glyph glyph-name="cid152" unicode="&#xa9;" horiz-adv-x="1619" 
d="M1180 981l2 -184l-228 10l-6 149l-241 13l14 -598l205 -9l-2 156l239 -2v-154q-45 -51 -91.5 -101.5t-70.5 -75.5l-24 -25l-277 -15q-61 56 -115.5 107.5t-78.5 75.5l-25 24l-22 629q51 49 106.5 107.5t84.5 91.5l30 34l276 -14zM1079 1587q111 -95 231.5 -205
t185.5 -172l65 -63q-16 -212 -31.5 -446t-23.5 -362l-7 -128q-125 -127 -319 -335l-41 -44q-150 -3 -279.5 -2.5t-215.5 2.5l-87 2l-371 316l-116 849q60 97 126.5 215.5t103.5 188.5l36 70zM1296 319q8 169 10 364t0 305l-1 110q-61 58 -127.5 120t-103.5 95l-36 33
q-124 -13 -250.5 -29.5t-191.5 -26.5l-64 -10q-36 -64 -81 -133.5t-72 -107.5l-27 -38q6 -171 20.5 -365t25.5 -302l12 -109q46 -45 103 -97t91 -81l33 -29q133 -2 232.5 -1t157.5 3l58 3q115 151 211 296z" />
    <glyph glyph-name="cid140" unicode="&#xaa;" horiz-adv-x="690" 
d="M262 1905q4 -109 14 -222q82 11 119 17q2 92 6 203zM485 1602l-200 -46q-64 52 -140 101q-10 120 -24 280q55 44 133 95q30 -3 68.5 -8t61.5 -8t24 -3l6 72l-224 -10q-6 53 -10 133h242q68 -54 123 -103q-11 -102 -20 -202.5t-12 -150.5l-3 -50q21 -8 80 -16l-31 -123z
" />
    <glyph glyph-name="cid109" unicode="&#xab;" horiz-adv-x="1329" 
d="M1061 1065q45 -44 98.5 -98.5t84.5 -87.5l30 -33q-216 -166 -404 -316q77 -72 176 -155t160 -131l60 -47q-36 -42 -82 -91.5t-74 -78.5l-27 -29q-107 105 -222 215.5t-177 168.5l-61 58l-2 219q89 77 199 178.5t176 164.5zM518 1065q45 -44 98 -98.5t83 -87.5l30 -33
q-229 -177 -401 -316q69 -67 168 -150t163 -133l64 -50l-182 -199q-108 101 -223 211.5t-176 170.5l-62 60l-4 219q94 81 204.5 182.5t173.5 162.5z" />
    <glyph glyph-name="cid153" unicode="&#xac;" horiz-adv-x="1200" 
d="M1116 793v-596l-377 6l19 254q-151 -1 -317 1t-257 4l-90 3l-8 311z" />
    <glyph glyph-name="cid151" unicode="&#xad;" horiz-adv-x="1058" 
d="M119 940q404 -8 829 -20q-2 -193 -12 -373q-407 -11 -801 -15q-6 222 -16 408z" />
    <glyph glyph-name="cid154" unicode="&#xae;" horiz-adv-x="1619" 
d="M725 1006l-2 -459q117 -4 211 -10q7 103 18 221.5t18 185.5l7 68zM1184 285q-2 -28 -6 -64t-6.5 -58t-2.5 -28q62 84 127 184q8 169 10 364t0 305l-1 110q-61 58 -127.5 120t-103.5 95l-36 33q-124 -13 -250.5 -29.5t-191.5 -26.5l-64 -10q-36 -64 -81 -133.5t-72 -107.5
l-27 -38q6 -171 20.5 -365t25.5 -302l12 -109q46 -45 103 -97t91 -81l33 -29q133 -2 232.5 -1t157.5 3l58 3q35 44 82 110l-241 8q-40 57 -80.5 119.5t-61.5 96.5l-20 34l-39 2q6 -106 16 -256q-137 -2 -219 0q-12 501 -41 1047q281 12 510 18q58 -49 110 -95.5t75 -68.5
l22 -22l-61 -488q-42 -27 -91 -62t-78 -56l-28 -21l82 -113zM1079 1587q111 -95 231.5 -205t185.5 -172l65 -63q-16 -212 -31.5 -446t-23.5 -362l-7 -128q-125 -127 -319 -335l-41 -44q-150 -3 -279.5 -2.5t-215.5 2.5l-87 2l-371 316l-116 849q60 97 126.5 215.5
t103.5 188.5l36 70z" />
    <glyph glyph-name="cid129" unicode="&#xaf;" horiz-adv-x="897" 
d="M61 2097q390 -10 758 -12q-4 -135 -12 -264q-357 -15 -733 -25q-9 141 -13 301z" />
    <glyph glyph-name="cid707" unicode="&#xb0;" horiz-adv-x="636" 
d="M403 2050h-159l-4 -186l153 2zM580 2062l-17 -198q-28 -36 -65.5 -74t-60.5 -58l-23 -20l-176 2q-37 30 -77.5 67t-62.5 59l-22 22l-8 202l159 148l187 4q31 -32 72.5 -70.5t67.5 -61.5z" />
    <glyph glyph-name="cid694" unicode="&#xb1;" horiz-adv-x="1507" 
d="M926 829q216 -2 415 -2q-8 -83 -12 -235q-233 0 -407 -2q-2 -107 -2 -283q-181 6 -351 10v269q-194 -4 -403 -8q-4 108 -12 266q55 -1 131.5 -4t139.5 -4.5t140 -1.5q-4 99 -8 296q207 5 383 11q-13 -250 -14 -312zM127 217q91 -2 238 -6t481.5 -9.5t527.5 -4.5
q-8 -76 -14 -248q-819 -7 -1221 -15q-4 101 -12 283z" />
    <glyph glyph-name="cid157" unicode="&#xb2;" horiz-adv-x="534" 
d="M469 2136q-13 -123 -29 -256q-51 -49 -112 -102q-70 2 -129 6q2 -72 6 -82q96 8 221 18q-2 -60 -8 -121q-80 0 -322 -4q-4 97 -14 193q53 47 108 104q69 2 132 0q10 95 14 232q-35 0 -137 2q6 -62 14 -166q-67 -4 -133 -4q-2 61 -4 176q57 62 98 109q86 2 182 6
q60 -56 113 -111z" />
    <glyph glyph-name="cid158" unicode="&#xb3;" horiz-adv-x="522" 
d="M51 1694l4 118l127 -4l-4 -104l152 2q-1 39 -3.5 83.5t-4.5 69.5l-3 25l-126 8l4 113l118 8l2 123l-186 -8l-16 125l204 2l107 -98l4 -146l-74 -51q13 -14 30 -29.5t28 -24.5l10 -8l29 -196q-22 -17 -48 -43t-41 -43l-16 -17l-180 7q-26 13 -55.5 35t-45.5 37z" />
    <glyph glyph-name="cid645" unicode="&#xb4;" horiz-adv-x="657" 
d="M254 1665l-203 180q77 72 161 152.5t130 124.5l45 45q46 -51 100.5 -108t85.5 -89l31 -31q-77 -57 -164.5 -125.5t-136.5 -108.5z" />
    <glyph glyph-name="cid159" unicode="&#xb5;" horiz-adv-x="1105" 
d="M395 -82l-10 -432l-268 -2q3 431 -11 975l-22 688q170 2 344 -4l-2 -43q0 -33 -4 -203.5t-7 -355t-3 -328.5q108 0 266 2q4 464 0 885q161 -2 323 -10q-10 -198 -26.5 -430t-27.5 -365l-11 -133l135 -41l-61 -211l-125 31q-17 24 -38 47.5t-33 35.5l-13 11
q-65 -55 -135 -121l-269 2z" />
    <glyph glyph-name="cid778" unicode="&#xb6;" horiz-adv-x="1110" 
d="M1049 1583q-4 -352 -7 -770t-4 -661v-242h-245q-1 323 -8.5 689.5t-14.5 571.5l-8 205h-131l2 -1460q-59 -2 -129.5 -2t-111.5 1l-40 1l21 809q-138 76 -283 172q-25 266 -31 514q142 82 283 168z" />
    <glyph glyph-name="cid117" unicode="&#xb7;" horiz-adv-x="997" 
d="M707 797q1 -86 -3 -181.5t-8 -148.5l-4 -53l-393 4l-10 385z" />
    <glyph glyph-name="cid134" unicode="&#xb8;" horiz-adv-x="516" 
d="M119 -82h149l-59 -102h102q70 -52 133 -105q-6 -79 -14 -149q-135 -2 -268 -2q-4 53 -6 102q84 -2 137 -2q2 22 2 47q-49 4 -125 10q-54 35 -115 90q33 56 64 111z" />
    <glyph glyph-name="cid160" unicode="&#xb9;" horiz-adv-x="444" 
d="M309 2210q-16 -286 -22 -615q-60 2 -121 2q15 275 29 488q-35 4 -78 0q-6 62 -6 125q108 4 198 0z" />
    <glyph glyph-name="cid144" unicode="&#xba;" horiz-adv-x="569" 
d="M215 2066q4 -212 6 -368q49 0 125 -2q1 22 2 59.5t3 135t1 173.5zM449 1692q-50 -50 -97 -107q-49 0 -135 4q-57 46 -106 109q-3 170 -11 375q48 64 105 125q74 -2 164 0q57 -64 106 -134q-18 -198 -26 -372z" />
    <glyph glyph-name="cid123" unicode="&#xbb;" horiz-adv-x="1382" 
d="M848 1051q239 -228 452 -412q-6 -116 -16 -227q-210 -181 -467 -414q-92 109 -184 199q239 180 393 307l-377 342q97 107 199 205zM291 1051q243 -222 452 -412q-8 -116 -16 -227q-210 -181 -465 -414q-92 109 -186 199q229 178 393 307l-377 342q97 107 199 205z" />
    <glyph glyph-name="cid161" unicode="&#xbc;" horiz-adv-x="1386" 
d="M1247 -94q-43 -2 -89 -2t-70 1l-25 1l16 274l-178 -24q-42 32 -83 68t-61 56l-20 21l39 442l180 -22q-12 -84 -23.5 -185.5t-16.5 -161.5l-5 -59l174 21l19 491l164 -2q-11 -344 -16.5 -573.5t-5.5 -287.5zM414 1667q-27 -435 -35 -932q-90 2 -184 2q25 419 45 742
q-53 4 -119 -2q-10 94 -10 190q164 4 303 0zM913 1755q65 -21 122 -43t81 -34l25 -11q-183 -402 -379 -848.5t-300 -692.5l-104 -245q-54 16 -98.5 34t-61.5 28l-18 10q170 408 353.5 858.5t281.5 696.5z" />
    <glyph glyph-name="cid162" unicode="&#xbd;" horiz-adv-x="1386" 
d="M1303 647q-16 -174 -39 -358q-74 -72 -158 -148q-100 5 -184 11q4 -103 8 -117q137 12 311 28q-2 -83 -10 -169q-114 -1 -455 -7q-6 136 -18 271q75 67 153 145q95 4 185 0q14 133 20 330q-49 0 -194 2q10 -89 18 -234q-92 -6 -186 -6q0 86 -4 248q80 86 137 154
q121 4 256 8q86 -76 160 -158zM414 1667q-27 -435 -35 -932q-90 2 -184 2q25 419 45 742q-53 4 -119 -2q-10 94 -10 190q164 4 303 0zM913 1755q65 -21 122 -43t81 -34l25 -11q-183 -402 -379 -848.5t-300 -692.5l-104 -245q-54 16 -98.5 34t-61.5 28l-18 10
q170 408 353.5 858.5t281.5 696.5z" />
    <glyph glyph-name="cid163" unicode="&#xbe;" horiz-adv-x="1517" 
d="M68 877l4 167l180 -6l-4 -149l215 2l-14 254l-181 14l6 158l168 10q3 44 4 88t0 66v22l-266 -12l-22 178l291 4l151 -139l6 -207l-104 -74q17 -19 41 -40.5t39 -33.5l16 -12l41 -280q-31 -24 -68.5 -60.5t-59.5 -60.5l-22 -25l-258 9q-36 18 -77 50t-64 54zM1382 -94
q-43 -2 -89 -2t-71 1l-24 1l16 274l-178 -24q-42 32 -83 68t-61 56l-20 21l39 442l181 -22q-12 -84 -23 -185.5t-17 -161.5l-5 -59l174 21l18 491l164 -2q-12 -344 -17.5 -574t-4.5 -287zM1049 1755q65 -21 122 -43t81 -34l24 -11q-183 -402 -378.5 -848.5t-299.5 -692.5
l-104 -245q-54 16 -98.5 34t-62.5 28l-18 10q170 408 353.5 858.5t281.5 696.5z" />
    <glyph glyph-name="cid126" unicode="&#xbf;" horiz-adv-x="1482" 
d="M418 -506q-81 79 -166 168t-130 138l-44 50l72 498q63 54 140 108t123 82l46 27l155 -26q2 69 5.5 141t6.5 110l3 37h270l16 -323l-268 -223l-176 22q-11 -96 -16.5 -210.5t-5.5 -180.5v-66q133 -4 270 -4.5t207 0.5l71 2l-14 312q81 6 170 14.5t137 13.5l49 6
q5 -68 15.5 -149t17.5 -129l8 -47q-76 -86 -158.5 -180t-126.5 -145l-44 -52zM920 973q-150 -4 -312 0q2 117 6 244h291q7 -131 15 -244z" />
    <glyph glyph-name="cid164" unicode="&#xc0;" horiz-adv-x="1054" 
d="M655 1665q-172 115 -387 256q87 121 189 246q168 -143 358 -295q-101 -127 -160 -207zM682 575q4 364 -6 689l-309 20q14 -384 41 -713zM928 -72q-117 2 -254 0q4 219 10 422q-150 -6 -248 -12q5 -213 15 -401q-146 -9 -285 -9q-46 630 -107 1387q134 160 279 293
q166 -2 340 4q147 -150 319 -324q-40 -726 -69 -1360z" />
    <glyph glyph-name="cid165" unicode="&#xc1;" horiz-adv-x="1054" 
d="M459 1665l-203 180q77 72 161 152.5t129 124.5l46 45q46 -51 100.5 -108t85.5 -89l31 -31q-77 -57 -164.5 -125.5t-136.5 -108.5zM682 575q4 364 -6 689l-309 20q14 -384 41 -713zM928 -72q-117 2 -254 0q4 219 10 422q-150 -6 -248 -12q5 -213 15 -401q-146 -9 -285 -9
q-46 630 -107 1387q134 160 279 293q166 -2 340 4q147 -150 319 -324q-40 -726 -69 -1360z" />
    <glyph glyph-name="cid166" unicode="&#xc2;" horiz-adv-x="1054" 
d="M918 1843q-31 -27 -69.5 -65.5t-61.5 -63.5l-23 -24l-238 311l-262 -307l-158 149q74 81 150 166.5t115 130.5l39 45q51 -2 109 -2t90 1l32 1q65 -83 134.5 -168.5t106.5 -129.5zM682 575q4 364 -6 689l-309 20q14 -384 41 -713zM928 -72q-117 2 -254 0q4 219 10 422
q-150 -6 -248 -12q5 -213 15 -401q-146 -9 -285 -9q-46 630 -107 1387q134 160 279 293q166 -2 340 4q147 -150 319 -324q-40 -726 -69 -1360z" />
    <glyph glyph-name="cid167" unicode="&#xc3;" horiz-adv-x="1054" 
d="M45 1919q184 110 358 225q122 -127 226 -225q125 66 250 166q56 -103 122 -203q-198 -101 -372 -203q-125 103 -238 209q-85 -82 -194 -168l-23 30q-23 31 -60.5 80.5t-68.5 88.5zM682 575q4 364 -6 689l-309 20q14 -384 41 -713zM928 -72q-117 2 -254 0q4 219 10 422
q-150 -6 -248 -12q5 -213 15 -401q-146 -9 -285 -9q-46 630 -107 1387q134 160 279 293q166 -2 340 4q147 -150 319 -324q-40 -726 -69 -1360z" />
    <glyph glyph-name="cid168" unicode="&#xc4;" horiz-adv-x="1054" 
d="M440 2028q0 -65 -2.5 -134t-5.5 -105l-2 -36l-250 4l-6 277q38 -2 79 -3.5t73 -2t58.5 -0.5h41.5h14zM868 2028l-10 -275l-250 4l-6 277q41 -2 83 -3.5t73.5 -2t57 -0.5h38.5h14zM682 575q4 364 -6 689l-309 20q14 -384 41 -713zM928 -72q-117 2 -254 0q4 219 10 422
q-150 -6 -248 -12q5 -213 15 -401q-146 -9 -285 -9q-46 630 -107 1387q134 160 279 293q166 -2 340 4q147 -150 319 -324q-40 -726 -69 -1360z" />
    <glyph glyph-name="cid169" unicode="&#xc5;" horiz-adv-x="1054" 
d="M608 2050h-159l-5 -186l154 2zM784 2062l-16 -198q-28 -36 -65.5 -74t-60.5 -58l-24 -20l-176 2q-37 30 -77.5 67t-62.5 59l-21 22l-9 202l160 148l186 4q31 -32 72.5 -70.5t67.5 -61.5zM682 575q4 364 -6 689l-309 20q14 -384 41 -713zM928 -72q-117 2 -254 0
q4 219 10 422q-150 -6 -248 -12q5 -213 15 -401q-146 -9 -285 -9q-46 630 -107 1387q134 160 279 293q166 -2 340 4q147 -150 319 -324q-40 -726 -69 -1360z" />
    <glyph glyph-name="cid139" unicode="&#xc6;" horiz-adv-x="1509" 
d="M618 1298q-158 -392 -264 -710l273 -25q3 367 -9 735zM1434 1253q-296 19 -519 27v-559q230 19 478 33l2 -281h-475q6 -121 10 -246q239 21 508 41q12 -182 12 -338q-320 0 -815 -8q0 209 -6 414q-128 0 -271 4q17 -220 33 -406q-90 -8 -293 -8q-15 304 -35 637l398 1026
q460 11 973 27q6 -181 0 -363z" />
    <glyph glyph-name="cid170" unicode="&#xc7;" horiz-adv-x="1044" 
d="M365 -190q13 21 32.5 55.5t22.5 40.5h-55q-58 60 -119 125.5t-93 100.5l-32 36q-16 223 -31.5 493t-23.5 428l-7 158q58 86 120 172t95 129l33 43l371 23l307 -328l-55 -510l-287 -12l31 510l-305 -19q-1 -232 1.5 -501t5.5 -422l3 -152q50 -2 111.5 -2t97.5 1l37 1
q4 44 7.5 103.5t5.5 96.5l1 38l303 -8q-4 -64 -11.5 -132t-12.5 -104l-5 -37q-63 -56 -131.5 -113.5t-105.5 -87.5l-37 -30h-64q-33 -55 -51 -88h107q32 -24 67 -51t54 -43l18 -15l-14 -155l-281 -3l-6 107l143 -2l2 49h-118z" />
    <glyph glyph-name="cid171" unicode="&#xc8;" horiz-adv-x="958" 
d="M594 1665q-172 115 -387 256q86 121 188 246q169 -143 359 -295q-101 -127 -160 -207zM791 788l12 -301l-418 -24q4 -158 10 -242q227 9 498 29q-4 -166 -8 -324q-168 -4 -350 -4.5t-281 0.5l-98 2q-33 764 -99 1659l848 14q-8 -178 -18 -352q-298 15 -527 29
q2 -128 5.5 -264.5t6.5 -208.5l3 -72q176 22 416 59z" />
    <glyph glyph-name="cid172" unicode="&#xc9;" horiz-adv-x="958" 
d="M418 1665l-203 180q77 72 161 152.5t130 124.5l45 45q46 -51 100.5 -108t85.5 -89l31 -31q-77 -57 -164.5 -125.5t-136.5 -108.5zM791 788l12 -301l-418 -24q4 -158 10 -242q227 9 498 29q-4 -166 -8 -324q-168 -4 -350 -4.5t-281 0.5l-98 2q-33 764 -99 1659l848 14
q-8 -178 -18 -352q-298 15 -527 29q2 -128 5.5 -264.5t6.5 -208.5l3 -72q176 22 416 59z" />
    <glyph glyph-name="cid173" unicode="&#xca;" horiz-adv-x="958" 
d="M897 1843q-31 -27 -69.5 -65.5t-61.5 -63.5l-23 -24l-237 311l-262 -307l-158 149q74 81 149.5 166.5t114.5 130.5l39 45q51 -2 109 -2t90 1l33 1zM791 788l12 -301l-418 -24q4 -158 10 -242q227 9 498 29q-4 -166 -8 -324q-168 -4 -350 -4.5t-281 0.5l-98 2
q-33 764 -99 1659l848 14q-8 -178 -18 -352q-298 15 -527 29q2 -128 5.5 -264.5t6.5 -208.5l3 -72q176 22 416 59z" />
    <glyph glyph-name="cid174" unicode="&#xcb;" horiz-adv-x="958" 
d="M399 2028q0 -65 -2.5 -134t-4.5 -105l-3 -36l-250 4l-6 277q38 -2 79 -3.5t73 -2t58.5 -0.5h40.5h15zM827 2028l-10 -275l-250 4l-6 277q41 -2 83 -3.5t73.5 -2t57 -0.5h39.5h13zM791 788l12 -301l-418 -24q4 -158 10 -242q227 9 498 29q-4 -166 -8 -324
q-168 -4 -350 -4.5t-281 0.5l-98 2q-33 764 -99 1659l848 14q-8 -178 -18 -352q-298 15 -527 29q2 -128 5.5 -264.5t6.5 -208.5l3 -72q176 22 416 59z" />
    <glyph glyph-name="cid175" unicode="&#xcc;" horiz-adv-x="677" 
d="M453 1665q-172 115 -387 256q86 121 188 246q168 -143 358 -295q-100 -127 -159 -207zM494 -70q-145 2 -299 0q-8 846 -33 1669q165 1 366 5q-34 -892 -34 -1674z" />
    <glyph glyph-name="cid176" unicode="&#xcd;" horiz-adv-x="686" 
d="M272 1665q-42 36 -92.5 81t-79.5 72l-30 27q77 72 161 152.5t129 124.5l46 45q46 -51 100.5 -108t85.5 -89l31 -31q-77 -57 -165 -125.5t-137 -108.5zM494 -70q-145 2 -299 0q-8 846 -33 1669q165 1 366 5q-34 -892 -34 -1674z" />
    <glyph glyph-name="cid177" unicode="&#xce;" horiz-adv-x="905" 
d="M854 1843q-31 -27 -69.5 -65.5t-61.5 -63.5l-23 -24l-237 311l-262 -307l-158 149q74 81 149.5 166.5t114.5 130.5l39 45q51 -2 109 -2t91 1l32 1zM594 -70q-145 2 -299 0q-8 846 -33 1669q166 1 367 5q-35 -892 -35 -1674z" />
    <glyph glyph-name="cid178" unicode="&#xcf;" horiz-adv-x="808" 
d="M317 2028q0 -65 -2.5 -134t-4.5 -105l-3 -36l-250 4l-6 277q38 -2 79 -3.5t73 -2t58.5 -0.5h40.5h15zM745 2028l-10 -275l-250 4l-6 277q41 -2 83 -3.5t73.5 -2t57 -0.5h39.5h13zM535 -70q-145 2 -299 0q-8 846 -33 1669q165 1 366 5q-34 -892 -34 -1674z" />
    <glyph glyph-name="cid179" unicode="&#xd0;" horiz-adv-x="1134" 
d="M403 1257q10 -345 11 -383h131q-6 -133 -8 -258l-117 -2l6 -393l281 -2q16 229 30.5 490.5t21.5 408.5l7 146q-80 2 -170.5 0t-141.5 -4zM963 190q-119 -129 -240 -256q-32 -1 -82.5 -2t-202.5 -3t-256 3q-10 274 -26 676l-107 -2q-4 154 -10 283q49 -2 104 -6
q-13 328 -30 671q320 39 663 70q156 -160 299 -340q-61 -614 -112 -1094z" />
    <glyph glyph-name="cid180" unicode="&#xd1;" horiz-adv-x="1153" 
d="M96 1919q185 110 359 225q121 -127 225 -225q125 66 250 166q57 -103 123 -203q-199 -101 -373 -203q-125 103 -238 209q-85 -82 -194 -168l-23 30q-23 31 -60.5 80.5t-68.5 88.5zM766 487q4 522 16 1123q146 -2 312 -8q-39 -812 -76 -1678q-118 -4 -270 -8
q-209 507 -361 899q25 -423 39 -895q-154 4 -328 6q-12 748 -18 1678q109 0 285 6q208 -626 401 -1123z" />
    <glyph glyph-name="cid181" unicode="&#xd2;" horiz-adv-x="1089" 
d="M655 1665q-172 115 -387 256q87 121 189 246q168 -143 358 -295q-101 -127 -160 -207zM377 1239q10 -591 14 -1024q74 -2 283 -6q2 62 6 166.5t9.5 375.5t4.5 480q-16 1 -44 3t-111 4.5t-162 0.5zM942 197q-117 -135 -250 -293q-73 2 -311 10q-140 127 -279 301
q-6 470 -26 1040q12 20 35 54.5t93 126t140 166.5q145 -6 397 0q138 -174 271 -371q-47 -550 -70 -1034z" />
    <glyph glyph-name="cid182" unicode="&#xd3;" horiz-adv-x="1089" 
d="M459 1665l-203 180q77 72 161 152.5t129 124.5l46 45q46 -51 100.5 -108t85.5 -89l31 -31q-77 -57 -164.5 -125.5t-136.5 -108.5zM377 1239q10 -591 14 -1024q74 -2 283 -6q2 62 6 166.5t9.5 375.5t4.5 480q-16 1 -44 3t-111 4.5t-162 0.5zM942 197q-117 -135 -250 -293
q-73 2 -311 10q-140 127 -279 301q-6 470 -26 1040q12 20 35 54.5t93 126t140 166.5q145 -6 397 0q138 -174 271 -371q-47 -550 -70 -1034z" />
    <glyph glyph-name="cid183" unicode="&#xd4;" horiz-adv-x="1089" 
d="M958 1843q-31 -27 -69.5 -65.5t-60.5 -63.5l-23 -24l-238 311l-262 -307l-158 149q74 81 150 166.5t115 130.5l39 45q51 -2 109 -2t90 1l32 1zM377 1239q10 -591 14 -1024q74 -2 283 -6q2 62 6 166.5t9.5 375.5t4.5 480q-16 1 -44 3t-111 4.5t-162 0.5zM942 197
q-117 -135 -250 -293q-73 2 -311 10q-140 127 -279 301q-6 470 -26 1040q12 20 35 54.5t93 126t140 166.5q145 -6 397 0q138 -174 271 -371q-47 -550 -70 -1034z" />
    <glyph glyph-name="cid184" unicode="&#xd5;" horiz-adv-x="1089" 
d="M66 1919q184 110 358 225q121 -127 225 -225q125 66 250 166q57 -103 123 -203q-199 -101 -373 -203q-124 103 -237 209q-86 -82 -195 -168l-23 30q-22 31 -59.5 80.5t-68.5 88.5zM377 1239q10 -591 14 -1024q74 -2 283 -6q2 62 6 166.5t9.5 375.5t4.5 480q-16 1 -44 3
t-111 4.5t-162 0.5zM942 197q-117 -135 -250 -293q-73 2 -311 10q-140 127 -279 301q-6 470 -26 1040q12 20 35 54.5t93 126t140 166.5q145 -6 397 0q138 -174 271 -371q-47 -550 -70 -1034z" />
    <glyph glyph-name="cid185" unicode="&#xd6;" horiz-adv-x="1089" 
d="M461 2028q0 -65 -2.5 -134t-4.5 -105l-3 -36l-250 4l-6 277q38 -2 79 -3.5t73 -2t58.5 -0.5h40.5h15zM889 2028l-10 -275l-250 4l-6 277q41 -2 83 -3.5t73.5 -2t57 -0.5h39.5h13zM377 1239q10 -591 14 -1024q74 -2 283 -6q2 62 6 166.5t9.5 375.5t4.5 480q-16 1 -44 3
t-111 4.5t-162 0.5zM942 197q-117 -135 -250 -293q-73 2 -311 10q-140 127 -279 301q-6 470 -26 1040q12 20 35 54.5t93 126t140 166.5q145 -6 397 0q138 -174 271 -371q-47 -550 -70 -1034z" />
    <glyph glyph-name="cid695" unicode="&#xd7;" horiz-adv-x="1173" 
d="M588 471q-152 -153 -273 -264q-86 105 -184 199q39 35 126 124t140 138q-143 143 -262 258q103 98 199 186q27 -27 67 -67.5t61.5 -62.5t55.5 -54t70 -64q123 119 260 264q98 -106 196 -204q-177 -180 -256 -256q126 -135 259 -262q-105 -103 -205 -197q-37 39 -82.5 88
t-63 67t-45.5 46t-63 61z" />
    <glyph glyph-name="cid142" unicode="&#xd8;" horiz-adv-x="1089" 
d="M877 1733l225 -82q-27 -59 -156 -334q4 -6 26.5 -37.5t33.5 -48.5q-47 -550 -70 -1034q-117 -135 -248 -293q-73 2 -313 10q-21 20 -58 55q-16 -36 -36 -72t-31 -55l-12 -18q-54 16 -98 32t-62 24l-17 9q15 35 55.5 117t55.5 119q-11 13 -36.5 43t-39.5 47
q-6 470 -26 1040q13 20 35.5 54.5t93.5 126t141 166.5q145 -6 395 0q20 -25 51 -68zM684 748q-172 -371 -250 -533q68 -3 234 -6q10 241 16 539zM381 612q70 163 270 621q-111 9 -280 6q6 -300 10 -627z" />
    <glyph glyph-name="cid187" unicode="&#xd9;" horiz-adv-x="1085" 
d="M655 1665q-172 115 -387 256q87 121 189 246q168 -143 358 -295q-101 -127 -160 -207zM1034 1550q-29 -676 -49 -1296q-131 -157 -268 -350q-125 2 -289 2q-155 161 -309 311q-17 322 -32 666t-21 527l-7 183q168 5 369 9q-12 -718 0 -1348q144 2 287 10q6 599 18 1288
q147 0 301 -2z" />
    <glyph glyph-name="cid188" unicode="&#xda;" horiz-adv-x="1085" 
d="M459 1665l-203 180q77 72 161 152.5t129 124.5l46 45q46 -51 100.5 -108t85.5 -89l31 -31q-77 -57 -164.5 -125.5t-136.5 -108.5zM1034 1550q-29 -676 -49 -1296q-131 -157 -268 -350q-125 2 -289 2q-155 161 -309 311q-17 322 -32 666t-21 527l-7 183q168 5 369 9
q-12 -718 0 -1348q144 2 287 10q6 599 18 1288q147 0 301 -2z" />
    <glyph glyph-name="cid189" unicode="&#xdb;" horiz-adv-x="1085" 
d="M958 1843q-31 -27 -69.5 -65.5t-60.5 -63.5l-23 -24l-238 311l-262 -307l-158 149q74 81 150 166.5t115 130.5l39 45q51 -2 109 -2t90 1l32 1zM1034 1550q-29 -676 -49 -1296q-131 -157 -268 -350q-125 2 -289 2q-155 161 -309 311q-17 322 -32 666t-21 527l-7 183
q168 5 369 9q-12 -718 0 -1348q144 2 287 10q6 599 18 1288q147 0 301 -2z" />
    <glyph glyph-name="cid190" unicode="&#xdc;" horiz-adv-x="1085" 
d="M461 2028q0 -65 -2.5 -134t-4.5 -105l-3 -36l-250 4l-6 277q38 -2 79 -3.5t73 -2t58.5 -0.5h40.5h15zM889 2028l-10 -275l-250 4l-6 277q41 -2 83 -3.5t73.5 -2t57 -0.5h39.5h13zM1034 1550q-29 -676 -49 -1296q-131 -157 -268 -350q-125 2 -289 2q-155 161 -309 311
q-17 322 -32 666t-21 527l-7 183q168 5 369 9q-12 -718 0 -1348q144 2 287 10q6 599 18 1288q147 0 301 -2z" />
    <glyph glyph-name="cid191" unicode="&#xdd;" horiz-adv-x="987" 
d="M459 1665l-203 180q77 72 161 152.5t129 124.5l46 45q46 -51 100.5 -108t85.5 -89l31 -31q-77 -57 -164.5 -125.5t-136.5 -108.5zM852 598l-240 -217q1 -102 15 -457q-133 -2 -283 2q12 147 12 463l-245 232q-12 167 -27 410t-24 403l-9 159l316 4q-4 -684 2 -968l239 -8
l13 976l321 -2q-45 -609 -90 -997z" />
    <glyph glyph-name="cid192" unicode="&#xde;" horiz-adv-x="983" 
d="M637 1030q-129 -2 -272 -4v-571l258 -2q2 26 5 74.5t7 199.5t2 303zM934 1059q-41 -290 -68 -623q-124 -121 -243 -219q-141 0 -258 -6q-3 -53 -4 -125.5t-1 -119.5v-46l-270 2l-22 1661q156 -4 299 0l-2 -272q188 2 297 4q125 -115 272 -256z" />
    <glyph glyph-name="cid150" unicode="&#xdf;" horiz-adv-x="1003" 
d="M68 1374l237 211q71 4 160.5 6t142.5 2h54l292 -268l-63 -627q-80 -38 -158 -67l219 -90l-8 -394q-52 -48 -117.5 -103.5t-104.5 -86.5l-40 -31l-184 2q7 33 13.5 118.5t10.5 125.5l133 -2l23 268l-178 82l-37 187q43 23 86 49t65 40l21 15q8 67 18 193.5t15 219.5l6 93
q-61 -3 -135 -3t-118 2l-44 1q0 -353 20 -1387l-262 -2z" />
    <glyph glyph-name="cid193" unicode="&#xe0;" horiz-adv-x="1042" 
d="M635 1223q-172 115 -387 256q86 120 188 245q169 -142 359 -294q-101 -127 -160 -207zM352 563q7 -217 27 -438q159 21 235 31q7 184 13 403q-15 1 -40.5 2t-102 3t-132.5 -1zM795 -37l-400 -90q-124 103 -278 195q-18 245 -47 559q110 84 264 188q61 -7 137 -16.5
t120.5 -15t45.5 -5.5q4 22 7 57.5t4 60.5l1 24l-442 -21q-13 106 -19 266h480q132 -108 243 -204q-22 -202 -39 -403t-24 -300l-6 -100q40 -15 157 -31q-12 -56 -27.5 -117t-24.5 -94l-9 -33z" />
    <glyph glyph-name="cid194" unicode="&#xe1;" horiz-adv-x="1046" 
d="M459 1214q-42 36 -92.5 81t-80.5 73l-30 27q77 72 161 152.5t129 124.5l46 44q46 -51 100.5 -108t85.5 -88l31 -31q-77 -57 -164.5 -126t-136.5 -109zM352 563q7 -217 27 -438q159 21 235 31q7 184 13 403q-15 1 -40.5 2t-102 3t-132.5 -1zM795 -37l-400 -90
q-124 103 -278 195q-18 245 -47 559q110 84 264 188q61 -7 137 -16.5t120.5 -15t45.5 -5.5q4 22 7 57.5t4 60.5l1 24l-442 -21q-13 106 -19 266h480q132 -108 243 -204q-22 -202 -39 -403t-24 -300l-6 -100q40 -15 157 -31q-12 -56 -27.5 -117t-24.5 -94l-9 -33z" />
    <glyph glyph-name="cid195" unicode="&#xe2;" horiz-adv-x="1046" 
d="M918 1376q-31 -27 -69.5 -65.5t-61.5 -62.5l-23 -25l-238 311l-262 -307l-158 149q74 81 150 166.5t115 130.5l39 45q51 -2 109 -2t90 1l32 1q65 -83 134.5 -168.5t106.5 -129.5zM352 563q7 -217 27 -438q159 21 235 31q7 184 13 403q-15 1 -40.5 2t-102 3t-132.5 -1z
M795 -37l-400 -90q-124 103 -278 195q-18 245 -47 559q110 84 264 188q61 -7 137 -16.5t120.5 -15t45.5 -5.5q4 22 7 57.5t4 60.5l1 24l-442 -21q-13 106 -19 266h480q132 -108 243 -204q-22 -202 -39 -403t-24 -300l-6 -100q40 -15 157 -31q-12 -56 -27.5 -117t-24.5 -94
l-9 -33z" />
    <glyph glyph-name="cid196" unicode="&#xe3;" horiz-adv-x="1046" 
d="M45 1438q184 110 358 225q122 -127 226 -225q125 66 250 166q56 -103 122 -203q-198 -101 -372 -203q-125 102 -238 211q-85 -84 -194 -170l-23 31q-23 30 -60.5 79.5t-68.5 88.5zM352 563q7 -217 27 -438q159 21 235 31q7 184 13 403q-15 1 -40.5 2t-102 3t-132.5 -1z
M795 -37l-400 -90q-124 103 -278 195q-18 245 -47 559q110 84 264 188q61 -7 137 -16.5t120.5 -15t45.5 -5.5q4 22 7 57.5t4 60.5l1 24l-442 -21q-13 106 -19 266h480q132 -108 243 -204q-22 -202 -39 -403t-24 -300l-6 -100q40 -15 157 -31q-12 -56 -27.5 -117t-24.5 -94
l-9 -33z" />
    <glyph glyph-name="cid197" unicode="&#xe4;" horiz-adv-x="1044" 
d="M440 1563q0 -65 -2.5 -134t-5.5 -105l-2 -36l-250 2l-6 277q60 -3 126.5 -4t103.5 -1zM868 1563l-10 -275l-250 2l-6 277q64 -3 130.5 -4t101.5 -1zM352 563q7 -217 27 -438q159 21 235 31q7 184 13 403q-15 1 -40.5 2t-102 3t-132.5 -1zM795 -37l-400 -90
q-124 103 -278 195q-18 245 -47 559q110 84 264 188q61 -7 137 -16.5t120.5 -15t45.5 -5.5q4 22 7 57.5t4 60.5l1 24l-442 -21q-13 106 -19 266h480q132 -108 243 -204q-22 -202 -39 -403t-24 -300l-6 -100q40 -15 157 -31q-12 -56 -27.5 -117t-24.5 -94l-9 -33z" />
    <glyph glyph-name="cid198" unicode="&#xe5;" horiz-adv-x="1038" 
d="M608 1579h-159l-5 -186l154 2zM784 1591l-16 -198q-28 -36 -65.5 -74t-60.5 -58l-24 -20l-176 2q-37 30 -77.5 67t-62.5 59l-21 22l-9 202l160 148l186 4q31 -32 72.5 -70.5t67.5 -60.5zM352 563q7 -217 27 -438q159 21 235 31q7 184 13 403q-15 1 -40.5 2t-102 3
t-132.5 -1zM795 -37l-400 -90q-124 103 -278 195q-18 245 -47 559q110 84 264 188q61 -7 137 -16.5t120.5 -15t45.5 -5.5q4 22 7 57.5t4 60.5l1 24l-442 -21q-13 106 -19 266h480q132 -108 243 -204q-22 -202 -39 -403t-24 -300l-6 -100q40 -15 157 -31q-12 -56 -27.5 -117
t-24.5 -94l-9 -33z" />
    <glyph glyph-name="cid145" unicode="&#xe6;" horiz-adv-x="1648" 
d="M987 659l307 31l15 193l-324 -9zM1520 133q-41 -53 -93 -107t-84 -82l-32 -28l-318 -22l-166 145q-12 -16 -23 -35t-16 -30l-4 -11l-399 -90q-125 103 -279 195q-18 245 -47 559q111 84 265 188q61 -7 137.5 -16.5t121.5 -15t46 -5.5l10 142l-440 -21q-15 106 -19 266
h479q78 -65 166 -139l117 129l393 -16q54 -49 118.5 -110.5t102.5 -98.5l37 -37q-16 -78 -33 -178t-26 -161l-10 -60l-529 -29q4 -159 4 -313q75 0 140.5 3.5t94.5 6.5l28 4l-13 172q62 6 133.5 10t112.5 5l41 1zM342 563q9 -217 27 -438q161 21 237 31q4 184 12 403
q-16 1 -41.5 2t-102 3t-132.5 -1z" />
    <glyph glyph-name="cid199" unicode="&#xe7;" horiz-adv-x="978" 
d="M928 885l4 -221l-275 14l-4 178l-291 14q5 -153 9.5 -331t6.5 -279l1 -102l246 -11l-2 187l286 -4v-183q-55 -62 -110.5 -122t-84.5 -89l-28 -30q-25 -2 -78.5 -5t-79.5 -5q-6 -10 -21.5 -37t-23.5 -41h107q32 -24 66.5 -51t53.5 -43l19 -15l-14 -155l-281 -3l-6 107
l143 -2l2 49h-118l-131 105q36 58 47 79h-17q-73 65 -138 126t-94 89l-28 29l-28 752q62 59 128.5 129t101.5 110l36 41l330 -16z" />
    <glyph glyph-name="cid200" unicode="&#xe8;" horiz-adv-x="987" 
d="M635 1223q-172 115 -387 256q86 120 188 245q169 -142 359 -294q-101 -127 -160 -207zM350 659l307 31l15 193l-324 -9zM883 133q-41 -53 -93 -107t-84 -82l-32 -28l-318 -22l-258 227l-39 743q53 70 114.5 143t96.5 111l35 37l393 -16q54 -49 118.5 -110.5t101.5 -98.5
l38 -37q-16 -78 -33 -178t-27 -161l-9 -60l-529 -29q4 -159 4 -313q75 0 140.5 3.5t93.5 6.5l29 4l-13 172q62 6 133.5 10t112.5 5l41 1z" />
    <glyph glyph-name="cid201" unicode="&#xe9;" horiz-adv-x="987" 
d="M459 1214q-42 36 -92.5 81t-80.5 73l-30 27q77 72 161 152.5t129 124.5l46 44q46 -51 100.5 -108t85.5 -88l31 -31q-77 -57 -164.5 -126t-136.5 -109zM350 659l307 31l15 193l-324 -9zM883 133q-41 -53 -93 -107t-84 -82l-32 -28l-318 -22l-258 227l-39 743
q53 70 114.5 143t96.5 111l35 37l393 -16q54 -49 118.5 -110.5t101.5 -98.5l38 -37q-16 -78 -33 -178t-27 -161l-9 -60l-529 -29q4 -159 4 -313q75 0 140.5 3.5t93.5 6.5l29 4l-13 172q62 6 133.5 10t112.5 5l41 1z" />
    <glyph glyph-name="cid202" unicode="&#xea;" horiz-adv-x="987" 
d="M897 1376q-31 -27 -69.5 -65.5t-61.5 -62.5l-23 -25l-237 311l-262 -307l-158 149q74 81 149.5 166.5t114.5 130.5l39 45q51 -2 109 -2t90 1l33 1zM350 659l307 31l15 193l-324 -9zM883 133q-41 -53 -93 -107t-84 -82l-32 -28l-318 -22l-258 227l-39 743q53 70 114.5 143
t96.5 111l35 37l393 -16q54 -49 118.5 -110.5t101.5 -98.5l38 -37q-16 -78 -33 -178t-27 -161l-9 -60l-529 -29q4 -159 4 -313q75 0 140.5 3.5t93.5 6.5l29 4l-13 172q62 6 133.5 10t112.5 5l41 1z" />
    <glyph glyph-name="cid203" unicode="&#xeb;" horiz-adv-x="987" 
d="M420 1563q0 -65 -2.5 -134t-5.5 -105l-2 -36l-250 2l-6 277q60 -3 126.5 -4t103.5 -1zM848 1563l-10 -275l-250 2l-6 277q64 -3 130.5 -4t101.5 -1zM350 659l307 31l15 193l-324 -9zM883 133q-41 -53 -93 -107t-84 -82l-32 -28l-318 -22l-258 227l-39 743
q53 70 114.5 143t96.5 111l35 37l393 -16q54 -49 118.5 -110.5t101.5 -98.5l38 -37q-16 -78 -33 -178t-27 -161l-9 -60l-529 -29q4 -159 4 -313q75 0 140.5 3.5t93.5 6.5l29 4l-13 172q62 6 133.5 10t112.5 5l41 1z" />
    <glyph glyph-name="cid204" unicode="&#xec;" horiz-adv-x="720" 
d="M485 1223q-172 115 -387 256q87 120 189 245q168 -142 358 -294q-101 -127 -160 -207zM477 -70h-254l-6 1215l297 -4q-10 -263 -19.5 -566t-13.5 -474z" />
    <glyph glyph-name="cid205" unicode="&#xed;" horiz-adv-x="720" 
d="M287 1214q-42 36 -92.5 81t-80.5 73l-30 27q77 72 161 152.5t129 124.5l46 44q46 -51 100.5 -108t85.5 -88l31 -31q-77 -57 -164.5 -126t-136.5 -109zM477 -70h-254l-6 1215l297 -4q-10 -263 -19.5 -566t-13.5 -474z" />
    <glyph glyph-name="cid206" unicode="&#xee;" horiz-adv-x="843" 
d="M825 1376q-31 -27 -69.5 -65.5t-61.5 -62.5l-22 -25l-238 311l-262 -307l-158 149q74 81 149.5 166.5t114.5 130.5l39 45q51 -2 109 -2t90 1l33 1zM526 -70h-256l-6 1215l299 -4q-10 -263 -19.5 -566t-13.5 -474z" />
    <glyph glyph-name="cid207" unicode="&#xef;" horiz-adv-x="843" 
d="M334 1563q0 -65 -2.5 -134t-5.5 -105l-2 -36l-250 2l-6 277q60 -3 126.5 -4t103.5 -1zM762 1563l-10 -275l-250 2l-6 277q64 -3 130.5 -4t101.5 -1zM526 -70h-256l-6 1215l299 -4q-10 -263 -19.5 -566t-13.5 -474z" />
    <glyph glyph-name="cid208" unicode="&#xf0;" horiz-adv-x="1128" 
d="M358 739q6 -129 15 -272t15 -221l5 -78q68 -1 150.5 0.5t130.5 3.5l49 2q0 67 27 561q-94 -2 -181 -1t-149 3zM1044 1460q-114 -64 -223 -125l240 -393q-12 -166 -36 -371.5t-42 -328.5l-18 -123q-56 -47 -123.5 -101.5t-107.5 -85.5l-40 -30l-291 -6
q-64 52 -134.5 113.5t-108.5 97.5l-39 36l-58 605q57 71 124.5 147t106.5 116l38 40q69 -11 161.5 -21t150.5 -14l58 -4q-21 50 -48 106t-44 86l-16 31q-38 -17 -74.5 -36.5t-87 -47.5t-94.5 -51q-68 82 -127 188q135 47 264 115q-16 25 -60 84.5t-80 106.5l-36 46l186 158
q48 -63 99 -125.5t78 -93.5l26 -31q111 66 193 113q75 -95 163 -201z" />
    <glyph glyph-name="cid209" unicode="&#xf1;" horiz-adv-x="972" 
d="M25 1438q184 110 358 225q121 -127 225 -225q125 66 250 166q57 -103 123 -203q-199 -101 -373 -203q-124 102 -237 211q-86 -84 -195 -170l-22 31q-23 30 -60.5 79.5t-68.5 88.5zM649 -72q0 471 -4 908q-153 -1 -272 -9q-2 -431 8 -899q-84 2 -270 0q-15 575 -35 912
q137 147 303 307q209 -4 287 -4q124 -143 241 -299q-11 -220 -20 -449.5t-12 -348.5l-3 -120q-104 0 -223 2z" />
    <glyph glyph-name="cid210" unicode="&#xf2;" horiz-adv-x="980" 
d="M594 1223q-172 115 -387 256q86 120 188 245q169 -142 359 -294q-101 -127 -160 -207zM350 893q9 -372 17 -758q122 -10 235 -12q11 355 23 772q-164 2 -275 -2zM858 109q-129 -99 -258 -199h-238q-131 90 -262 213q-23 359 -37 784q121 131 238 240q144 10 334 22
q145 -125 268 -266q-10 -107 -17.5 -231t-11.5 -220t-6.5 -178t-4.5 -125t-5 -40z" />
    <glyph glyph-name="cid211" unicode="&#xf3;" horiz-adv-x="966" 
d="M418 1214q-42 36 -92.5 81t-80.5 73l-30 27q77 72 161 152.5t130 124.5l45 44q46 -51 100.5 -108t85.5 -88l31 -31q-77 -57 -164.5 -126t-136.5 -109zM350 893q9 -372 17 -758q122 -10 235 -12q11 355 23 772q-164 2 -275 -2zM858 109q-129 -99 -258 -199h-238
q-131 90 -262 213q-23 359 -37 784q121 131 238 240q144 10 334 22q145 -125 268 -266q-10 -107 -17.5 -231t-11.5 -220t-6.5 -178t-4.5 -125t-5 -40z" />
    <glyph glyph-name="cid212" unicode="&#xf4;" horiz-adv-x="960" 
d="M877 1376q-31 -27 -69.5 -65.5t-61.5 -62.5l-23 -25l-238 311l-262 -307l-157 149q74 81 149.5 166.5t114.5 130.5l39 45q51 -2 109 -2t90 1l32 1q65 -83 134.5 -168.5t105.5 -129.5zM350 893q9 -372 17 -758q122 -10 235 -12q11 355 23 772q-164 2 -275 -2zM858 109
q-129 -99 -258 -199h-238q-131 90 -262 213q-23 359 -37 784q121 131 238 240q144 10 334 22q145 -125 268 -266q-10 -107 -17.5 -231t-11.5 -220t-6.5 -178t-4.5 -125t-5 -40z" />
    <glyph glyph-name="cid213" unicode="&#xf5;" horiz-adv-x="962" 
d="M4 1438q184 110 358 225q122 -127 226 -225q125 66 250 166q57 -103 123 -203q-199 -101 -373 -203q-125 102 -238 211q-85 -84 -194 -170l-23 31q-23 30 -60.5 79.5t-68.5 88.5zM350 893q9 -372 17 -758q122 -10 235 -12q11 355 23 772q-164 2 -275 -2zM858 109
q-129 -99 -258 -199h-238q-131 90 -262 213q-23 359 -37 784q121 131 238 240q144 10 334 22q145 -125 268 -266q-10 -107 -17.5 -231t-11.5 -220t-6.5 -178t-4.5 -125t-5 -40z" />
    <glyph glyph-name="cid214" unicode="&#xf6;" horiz-adv-x="960" 
d="M379 1563q0 -65 -2.5 -134t-4.5 -105l-3 -36l-250 2l-6 277q60 -3 126.5 -4t102.5 -1zM807 1563l-10 -275l-250 2l-6 277q64 -3 130.5 -4t100.5 -1zM350 893q9 -372 17 -758q122 -10 235 -12q11 355 23 772q-164 2 -275 -2zM858 109q-129 -99 -258 -199h-238
q-131 90 -262 213q-23 359 -37 784q121 131 238 240q144 10 334 22q145 -125 268 -266q-10 -107 -17.5 -231t-11.5 -220t-6.5 -178t-4.5 -125t-5 -40z" />
    <glyph glyph-name="cid696" unicode="&#xf7;" horiz-adv-x="1288" 
d="M788 477l-10 -270l-268 2l-6 272zM788 1153q-4 -59 -6.5 -126.5t-3.5 -105.5v-38q-63 -2 -122.5 -1t-102.5 3l-43 2l-6 272zM158 827q482 -8 977 -14q-5 -129 -13 -260q-457 -4 -950 -10q-8 147 -14 284z" />
    <glyph glyph-name="cid148" unicode="&#xf8;" horiz-adv-x="940" 
d="M733 1233q43 -22 86.5 -48t65.5 -41l22 -16q-16 -27 -45.5 -83t-44.5 -84q46 -52 51 -58q-10 -105 -20 -230.5t-16.5 -220.5t-12 -177.5t-9.5 -125.5t-7 -40q-88 -99 -217 -199h-238q-22 14 -59 43l-74 -143l-147 94q14 28 40 82t39 82q-9 7 -19 16.5t-22.5 21
t-19.5 17.5q-23 359 -39 784q123 131 240 240q141 10 334 22q20 -20 53 -55zM600 551q-203 -391 -217 -418q72 -7 205 -10q6 176 12 428zM344 465q35 72 74 149t81 159t62 122q-153 0 -227 -2q4 -184 10 -428z" />
    <glyph glyph-name="cid216" unicode="&#xf9;" horiz-adv-x="1064" 
d="M635 1223q-172 115 -387 256q86 120 188 245q169 -142 359 -294q-101 -127 -160 -207zM780 35q-65 -55 -135 -121l-268 2q-115 105 -256 244q-11 190 -20.5 437t-12.5 399l-4 151q150 2 324 -4q-15 -540 -17 -930q108 0 266 2q4 464 0 885q162 -2 324 -10
q-10 -198 -26.5 -430t-28.5 -365l-11 -133q24 -9 58 -19t56 -16l22 -6l-62 -211l-125 31q-17 24 -38 47.5t-34 35.5z" />
    <glyph glyph-name="cid217" unicode="&#xfa;" horiz-adv-x="1064" 
d="M479 1214q-42 36 -92.5 81t-80.5 73l-30 27q77 72 161 152.5t129 124.5l46 44q46 -51 100.5 -108t85.5 -88l31 -31q-77 -57 -164.5 -126t-136.5 -109zM780 35q-65 -55 -135 -121l-268 2q-115 105 -256 244q-11 190 -20.5 437t-12.5 399l-4 151q150 2 324 -4
q-15 -540 -17 -930q108 0 266 2q4 464 0 885q162 -2 324 -10q-10 -198 -26.5 -430t-28.5 -365l-11 -133q24 -9 58 -19t56 -16l22 -6l-62 -211l-125 31q-17 24 -38 47.5t-34 35.5z" />
    <glyph glyph-name="cid218" unicode="&#xfb;" horiz-adv-x="1064" 
d="M938 1376q-31 -27 -69.5 -65.5t-61.5 -62.5l-23 -25l-237 311l-262 -307l-158 149q74 81 149.5 166.5t114.5 130.5l39 45q51 -2 109 -2t91 1l32 1zM780 35q-65 -55 -135 -121l-268 2q-115 105 -256 244q-11 190 -20.5 437t-12.5 399l-4 151q150 2 324 -4
q-15 -540 -17 -930q108 0 266 2q4 464 0 885q162 -2 324 -10q-10 -198 -26.5 -430t-28.5 -365l-11 -133q24 -9 58 -19t56 -16l22 -6l-62 -211l-125 31q-17 24 -38 47.5t-34 35.5z" />
    <glyph glyph-name="cid219" unicode="&#xfc;" horiz-adv-x="1064" 
d="M461 1563q0 -65 -2.5 -134t-4.5 -105l-3 -36l-250 2l-6 277q60 -3 126.5 -4t102.5 -1zM889 1563l-10 -275l-250 2l-6 277q64 -3 130.5 -4t100.5 -1zM780 35q-65 -55 -135 -121l-268 2q-115 105 -256 244q-11 190 -20.5 437t-12.5 399l-4 151q150 2 324 -4
q-15 -540 -17 -930q108 0 266 2q4 464 0 885q162 -2 324 -10q-10 -198 -26.5 -430t-28.5 -365l-11 -133q24 -9 58 -19t56 -16l22 -6l-62 -211l-125 31q-17 24 -38 47.5t-34 35.5z" />
    <glyph glyph-name="cid220" unicode="&#xfd;" horiz-adv-x="985" 
d="M438 1214q-42 36 -92.5 81t-79.5 73l-30 27q77 72 161 152t129 125l45 44q46 -51 100.5 -108t85.5 -88l31 -31q-77 -57 -164.5 -126t-136.5 -109zM768 -530q-146 6 -252 10q23 213 39 461q-76 -7 -164 -23q-56 39 -123.5 93t-107.5 88l-39 34q-13 214 -31 464.5
t-30 394.5l-11 143q68 5 152 9t134 6l50 1q-10 -490 6 -995q37 -3 81 -4t70 0h25q25 437 45 1009q172 -10 332 -18q-86 -760 -176 -1673z" />
    <glyph glyph-name="cid221" unicode="&#xfe;" horiz-adv-x="985" 
d="M637 813q-129 -2 -272 -4v-653q125 -2 258 0q2 35 5 97t7 235t2 325zM934 842q-41 -372 -68 -705q-124 -121 -243 -215q-141 0 -258 -6q-3 -53 -4 -151.5t-1 -170.5v-73l-270 2l-22 1911q156 -4 299 0q0 -156 -2 -338q188 2 297 2q125 -115 272 -256z" />
    <glyph glyph-name="cid222" unicode="&#xff;" horiz-adv-x="985" 
d="M420 1563q0 -65 -2.5 -134t-5.5 -105l-2 -36l-250 2l-6 277q60 -3 126.5 -4t103.5 -1zM848 1563l-10 -275l-250 2l-6 277q64 -3 130.5 -4t101.5 -1zM768 -530q-146 6 -252 10q23 213 39 461q-76 -7 -164 -23q-56 39 -123.5 93t-107.5 88l-39 34q-13 214 -31 464.5
t-30 394.5l-11 143q68 5 152 9t134 6l50 1q-10 -490 6 -995q37 -3 81 -4t70 0h25q25 437 45 1009q172 -10 332 -18q-86 -760 -176 -1673z" />
    <glyph glyph-name="Amacron" unicode="&#x100;" horiz-adv-x="1054" 
d="M106 2019q403 -16 828 -20q-4 -98 -14 -270q-440 -11 -801 -15q-11 98 -13 305zM682 575q4 364 -6 689l-309 20q14 -384 41 -713zM928 -72q-117 2 -254 0q4 219 10 422q-150 -6 -248 -12q5 -213 15 -401q-146 -9 -285 -9q-46 630 -107 1387q134 160 279 293q166 -2 340 4
q147 -150 319 -324q-40 -726 -69 -1360z" />
    <glyph glyph-name="amacron" unicode="&#x101;" horiz-adv-x="1050" 
d="M106 1563q403 -17 828 -21q-4 -98 -14 -270q-440 -11 -801 -15q-11 99 -13 306zM352 563q7 -217 27 -438q159 21 235 31q7 184 13 403q-15 1 -40.5 2t-102 3t-132.5 -1zM795 -37l-400 -90q-124 103 -278 195q-18 245 -47 559q110 84 264 188q61 -7 137 -16.5t120.5 -15
t45.5 -5.5q4 22 7 57.5t4 60.5l1 24l-442 -21q-13 106 -19 266h480q132 -108 243 -204q-22 -202 -39 -403t-24 -300l-6 -100q40 -15 157 -31q-12 -56 -27.5 -117t-24.5 -94l-9 -33z" />
    <glyph glyph-name="Abreve" unicode="&#x102;" horiz-adv-x="1054" 
d="M973 1849q-143 -67 -311 -153q-199 2 -357 8q-135 90 -254 178q74 93 156 189q53 -45 176 -121q110 -2 235 -4q93 71 189 141q74 -111 166 -238zM682 575q4 364 -6 689l-309 20q14 -384 41 -713zM928 -72q-117 2 -254 0q4 219 10 422q-150 -6 -248 -12q5 -213 15 -401
q-146 -9 -285 -9q-46 630 -107 1387q134 160 279 293q166 -2 340 4q147 -150 319 -324q-40 -726 -69 -1360z" />
    <glyph glyph-name="abreve" unicode="&#x103;" horiz-adv-x="1050" 
d="M973 1391q-143 -68 -311 -154q-199 2 -357 8q-135 90 -254 178q74 93 156 189q53 -45 176 -121q110 -2 235 -4q93 71 189 141q74 -110 166 -237zM352 563q7 -217 27 -438q159 21 235 31q7 184 13 403q-15 1 -40.5 2t-102 3t-132.5 -1zM795 -37l-400 -90
q-124 103 -278 195q-18 245 -47 559q110 84 264 188q61 -7 137 -16.5t120.5 -15t45.5 -5.5q4 22 7 57.5t4 60.5l1 24l-442 -21q-13 106 -19 266h480q132 -108 243 -204q-22 -202 -39 -403t-24 -300l-6 -100q40 -15 157 -31q-12 -56 -27.5 -117t-24.5 -94l-9 -33z" />
    <glyph glyph-name="Aogonek" unicode="&#x104;" horiz-adv-x="1054" 
d="M883 -72l-107 -170l45 -51l82 72l72 -90q-42 -29 -85 -57.5t-65 -41.5l-22 -14l-199 168q30 60 86 184h-16q4 219 10 422q-150 -6 -248 -12q5 -213 15 -401q-146 -9 -285 -9q-46 630 -107 1387q134 160 279 293q166 -2 340 4q147 -150 319 -324q-40 -726 -69 -1360h-45z
M682 575q4 364 -6 689l-309 20q14 -384 41 -713z" />
    <glyph glyph-name="aogonek" unicode="&#x105;" horiz-adv-x="1046" 
d="M870 -80l-106 -162l45 -51l82 72l72 -90q-42 -29 -85 -57.5t-65 -41.5l-22 -14l-199 168q17 33 57 112t43 85l-297 -68q-124 103 -278 195q-18 245 -47 559q110 84 264 188q61 -7 137 -16.5t120.5 -15t45.5 -5.5q4 22 7 57.5t4 60.5l1 24l-442 -21q-13 106 -19 266h480
q132 -108 243 -204q-22 -202 -39 -403t-24 -300l-6 -100q40 -15 157 -31q-12 -56 -27.5 -117t-24.5 -94l-9 -33q-21 11 -68 37zM352 563q7 -217 27 -438q159 21 235 31q7 184 13 403q-15 1 -40.5 2t-102 3t-132.5 -1z" />
    <glyph glyph-name="Cacute" unicode="&#x106;" horiz-adv-x="1044" 
d="M418 1665l-203 180q77 72 161 152.5t130 124.5l45 45q46 -51 100.5 -108t85.5 -89l31 -31q-77 -57 -164.5 -125.5t-136.5 -108.5zM913 137q-63 -56 -131.5 -113.5t-105.5 -87.5l-37 -30h-274q-58 60 -119 125.5t-93 100.5l-32 36q-16 223 -31.5 493t-23.5 428l-7 158
q58 86 120 172t95 129l33 43l371 23l307 -328l-55 -510l-287 -12l31 510l-305 -19q-1 -232 1.5 -501t5.5 -422l3 -152q50 -2 111.5 -2t97.5 1l37 1q4 44 7.5 103.5t5.5 96.5l1 38l303 -8q-4 -64 -11.5 -132t-12.5 -104z" />
    <glyph glyph-name="cacute" unicode="&#x107;" horiz-adv-x="978" 
d="M438 1214q-42 36 -92.5 81t-79.5 73l-30 27q77 72 161 152t129 125l45 44q46 -51 100.5 -108t85.5 -88l31 -31q-77 -57 -164.5 -126t-136.5 -109zM928 885l4 -221l-275 14l-4 178l-291 14q5 -153 9.5 -331t6.5 -279l1 -102l246 -11l-2 187l286 -4v-183
q-55 -62 -110.5 -122t-84.5 -89l-28 -30l-332 -17q-73 65 -138 126t-94 89l-28 29l-28 752q62 59 128.5 129t101.5 110l36 41l330 -16z" />
    <glyph glyph-name="Cdotaccent" unicode="&#x10a;" horiz-adv-x="1044" 
d="M682 2034q1 -58 -1.5 -131.5t-5.5 -117.5l-3 -44l-301 4l-6 293zM913 137q-63 -56 -131.5 -113.5t-105.5 -87.5l-37 -30h-274q-58 60 -119 125.5t-93 100.5l-32 36q-16 223 -31.5 493t-23.5 428l-7 158q58 86 120 172t95 129l33 43l371 23l307 -328l-55 -510l-287 -12
l31 510l-305 -19q-1 -232 1.5 -501t5.5 -422l3 -152q50 -2 111.5 -2t97.5 1l37 1q4 44 7.5 103.5t5.5 96.5l1 38l303 -8q-4 -64 -11.5 -132t-12.5 -104z" />
    <glyph glyph-name="cdotaccent" unicode="&#x10b;" horiz-adv-x="978" 
d="M657 1548q1 -58 -1.5 -131.5t-5.5 -117.5l-3 -44l-301 5l-6 292zM928 885l4 -221l-275 14l-4 178l-291 14q5 -153 9.5 -331t6.5 -279l1 -102l246 -11l-2 187l286 -4v-183q-55 -62 -110.5 -122t-84.5 -89l-28 -30l-332 -17q-73 65 -138 126t-94 89l-28 29l-28 752
q62 59 128.5 129t101.5 110l36 41l330 -16z" />
    <glyph glyph-name="Ccaron" unicode="&#x10c;" horiz-adv-x="1044" 
d="M117 2019l155 154l238 -311l260 307q32 -32 72 -69.5t64 -59.5l24 -21q-80 -81 -166.5 -166.5t-133.5 -130.5l-46 -45h-168q-55 68 -129.5 153.5t-122.5 137.5zM913 137q-63 -56 -131.5 -113.5t-105.5 -87.5l-37 -30h-274q-58 60 -119 125.5t-93 100.5l-32 36
q-16 223 -31.5 493t-23.5 428l-7 158q58 86 120 172t95 129l33 43l371 23l307 -328l-55 -510l-287 -12l31 510l-305 -19q-1 -232 1.5 -501t5.5 -422l3 -152q50 -2 111.5 -2t97.5 1l37 1q4 44 7.5 103.5t5.5 96.5l1 38l303 -8q-4 -64 -11.5 -132t-12.5 -104z" />
    <glyph glyph-name="ccaron" unicode="&#x10d;" horiz-adv-x="978" 
d="M88 1597l154 152l239 -309l260 307q32 -32 71.5 -69.5t63.5 -59.5l23 -21q-79 -81 -165 -166.5t-132 -130.5l-47 -45h-170q-54 68 -128 153.5t-121 137.5zM928 885l4 -221l-275 14l-4 178l-291 14q5 -153 9.5 -331t6.5 -279l1 -102l246 -11l-2 187l286 -4v-183
q-55 -62 -110.5 -122t-84.5 -89l-28 -30l-332 -17q-73 65 -138 126t-94 89l-28 29l-28 752q62 59 128.5 129t101.5 110l36 41l330 -16z" />
    <glyph glyph-name="Dcaron" unicode="&#x10e;" horiz-adv-x="1058" 
d="M117 2019l155 154l238 -311l260 307q32 -32 72 -69.5t64 -59.5l24 -21q-80 -81 -166.5 -166.5t-133.5 -130.5l-46 -45h-168q-55 68 -129.5 153.5t-122.5 137.5zM346 1257l21 -1036l280 -2q16 229 31 490.5t22 408.5l7 146q-79 2 -169.5 0t-141.5 -4zM903 190
q-118 -129 -239 -256q-32 -1 -82.5 -2t-202.5 -3t-256 3q-27 764 -70 1622q323 39 664 70q156 -160 299 -340q-62 -614 -113 -1094z" />
    <glyph glyph-name="dcaron" unicode="&#x10f;" horiz-adv-x="983" 
d="M96 2019l156 154l237 -311l261 307q32 -32 72 -69.5t64 -59.5l23 -21q-80 -81 -166.5 -166.5t-132.5 -130.5l-47 -45h-168q-55 68 -129.5 153.5t-121.5 137.5zM377 143l270 -2q4 143 6 324t2 290v109l-315 19q4 -148 13.5 -333t16.5 -296zM356 -106q-60 49 -114 107
t-78 91l-25 33q-20 168 -40.5 365t-30.5 310l-11 113q74 57 145.5 116.5t106.5 90.5l35 31q69 -4 148 -11.5t123 -12.5l44 -5q4 155 -4 492q142 -6 277 -8l-70 -1667z" />
    <glyph glyph-name="Emacron" unicode="&#x112;" horiz-adv-x="958" 
d="M86 2019q402 -16 827 -20q-4 -98 -14 -270q-440 -11 -801 -15q-10 98 -12 305zM791 788l12 -301l-418 -24q4 -158 10 -242q227 9 498 29q-4 -166 -8 -324q-168 -4 -350 -4.5t-281 0.5l-98 2q-33 764 -99 1659l848 14q-8 -178 -18 -352q-298 15 -527 29q2 -128 5.5 -264.5
t6.5 -208.5l3 -72q176 22 416 59z" />
    <glyph glyph-name="emacron" unicode="&#x113;" horiz-adv-x="987" 
d="M72 1548q404 -16 829 -20q-4 -99 -14 -271q-440 -10 -801 -14q-10 98 -14 305zM350 659l307 31l15 193l-324 -9zM883 133q-41 -53 -93 -107t-84 -82l-32 -28l-318 -22l-258 227l-39 743q53 70 114.5 143t96.5 111l35 37l393 -16q54 -49 118.5 -110.5t101.5 -98.5l38 -37
q-16 -78 -33 -178t-27 -161l-9 -60l-529 -29q4 -159 4 -313q75 0 140.5 3.5t93.5 6.5l29 4l-13 172q62 6 133.5 10t112.5 5l41 1z" />
    <glyph glyph-name="Edotaccent" unicode="&#x116;" horiz-adv-x="958" 
d="M641 2034q1 -58 -1.5 -131.5t-5.5 -117.5l-3 -44l-301 4l-6 293zM791 788l12 -301l-418 -24q4 -158 10 -242q227 9 498 29q-4 -166 -8 -324q-168 -4 -350 -4.5t-281 0.5l-98 2q-33 764 -99 1659l848 14q-8 -178 -18 -352q-298 15 -527 29q2 -128 5.5 -264.5t6.5 -208.5
l3 -72q176 22 416 59z" />
    <glyph glyph-name="edotaccent" unicode="&#x117;" horiz-adv-x="987" 
d="M649 1565q1 -58 -1.5 -131.5t-5.5 -117.5l-3 -44l-301 4l-6 293zM350 659l307 31l15 193l-324 -9zM883 133q-41 -53 -93 -107t-84 -82l-32 -28l-318 -22l-258 227l-39 743q53 70 114.5 143t96.5 111l35 37l393 -16q54 -49 118.5 -110.5t101.5 -98.5l38 -37
q-16 -78 -33 -178t-27 -161l-9 -60l-529 -29q4 -159 4 -313q75 0 140.5 3.5t93.5 6.5l29 4l-13 172q62 6 133.5 10t112.5 5l41 1z" />
    <glyph glyph-name="Eogonek" unicode="&#x118;" horiz-adv-x="958" 
d="M784 -76h15l-109 -166l45 -51l82 72l72 -90q-42 -29 -85 -57.5t-65 -41.5l-22 -14l-199 168q64 132 84 178l-446 2q-33 764 -99 1659l848 14q-8 -178 -18 -352q-298 15 -527 29q2 -128 5.5 -264.5t6.5 -208.5l3 -72q176 22 416 59l12 -301l-418 -24q4 -158 10 -242
q227 9 498 29q-4 -166 -8 -324q-17 0 -51 -1t-50 -1z" />
    <glyph glyph-name="eogonek" unicode="&#x119;" horiz-adv-x="987" 
d="M674 -84l-10 -2l-103 -156l45 -51l82 72l72 -90q-42 -29 -85 -57.5t-65 -41.5l-22 -14l-199 168q47 92 74 156l-107 -6l-258 227l-39 743q53 70 114.5 143t96.5 111l35 37l393 -16q54 -49 118.5 -110.5t101.5 -98.5l38 -37q-16 -78 -33 -178t-27 -161l-9 -60l-529 -29
q4 -159 4 -313q75 0 140.5 3.5t93.5 6.5l29 4l-13 172q62 6 133.5 10t112.5 5l41 1l-16 -221q-41 -53 -93 -107t-84 -82zM350 659l307 31l15 193l-324 -9z" />
    <glyph glyph-name="Ecaron" unicode="&#x11a;" horiz-adv-x="958" 
d="M117 2019l155 154l238 -311l260 307q32 -32 72 -69.5t64 -59.5l24 -21q-80 -81 -166.5 -166.5t-133.5 -130.5l-46 -45h-168q-55 68 -129.5 153.5t-122.5 137.5zM791 788l12 -301l-418 -24q4 -158 10 -242q227 9 498 29q-4 -166 -8 -324q-168 -4 -350 -4.5t-281 0.5l-98 2
q-33 764 -99 1659l848 14q-8 -178 -18 -352q-298 15 -527 29q2 -128 5.5 -264.5t6.5 -208.5l3 -72q176 22 416 59z" />
    <glyph glyph-name="ecaron" unicode="&#x11b;" horiz-adv-x="987" 
d="M96 1593l156 152l237 -309l261 307q32 -32 71.5 -69.5t63.5 -59.5l24 -21q-80 -81 -166.5 -166.5t-132.5 -130.5l-47 -45h-168q-55 68 -129.5 153.5t-121.5 137.5zM350 659l307 31l15 193l-324 -9zM883 133q-41 -53 -93 -107t-84 -82l-32 -28l-318 -22l-258 227l-39 743
q53 70 114.5 143t96.5 111l35 37l393 -16q54 -49 118.5 -110.5t101.5 -98.5l38 -37q-16 -78 -33 -178t-27 -161l-9 -60l-529 -29q4 -159 4 -313q75 0 140.5 3.5t93.5 6.5l29 4l-13 172q62 6 133.5 10t112.5 5l41 1z" />
    <glyph glyph-name="Gbreve" unicode="&#x11e;" horiz-adv-x="1122" 
d="M1014 1849q-144 -67 -312 -153q-198 2 -356 8q-135 90 -254 178q74 93 156 189q53 -45 176 -121q110 -2 235 -4q93 71 189 141q74 -111 166 -238zM719 1270q-162 2 -305 -8q12 -538 16 -1069q197 -5 289 -7q2 98 4 170q-119 -6 -164 -10q-1 46 0 109t3 103l1 40l461 -27
q-17 -246 -29 -393q-115 -119 -262 -252q-186 -2 -301 -8q-141 103 -266 242q-45 517 -92 1104q165 171 321 329q189 4 420 6q105 -151 236 -301q-5 -139 -15 -272q-162 2 -336 0q9 117 19 244z" />
    <glyph glyph-name="gbreve" unicode="&#x11f;" horiz-adv-x="1003" 
d="M973 1391q-143 -68 -311 -154q-199 2 -357 8q-135 90 -254 178q74 93 156 189q53 -45 176 -121q110 -2 235 -4q93 71 189 141q74 -110 166 -237zM631 866q-129 0 -283 -4q15 -353 19 -702q132 -2 243 2q17 487 21 704zM829 -313q-118 -117 -235 -215q-151 -2 -262 -2
q-114 110 -223 229q8 76 10 172q143 -8 227 -14q-2 -88 -2 -154q115 -2 246 0q1 16 2 40t2 86t-2 79q-108 2 -221 2q-141 122 -256 235q-21 361 -52 725q132 148 273 277q137 8 303 8q146 -124 285 -276q-18 -223 -35.5 -404.5t-29.5 -332t-30 -455.5z" />
    <glyph glyph-name="Gdotaccent" unicode="&#x120;" horiz-adv-x="1122" 
d="M723 2034q1 -58 -1.5 -131.5t-5.5 -117.5l-3 -44l-301 4l-6 293zM719 1270q-162 2 -305 -8q12 -538 16 -1069q197 -5 289 -7q2 98 4 170q-119 -6 -164 -10q-1 46 0 109t3 103l1 40l461 -27q-17 -246 -29 -393q-115 -119 -262 -252q-186 -2 -301 -8q-141 103 -266 242
q-45 517 -92 1104q165 171 321 329q189 4 420 6q105 -151 236 -301q-5 -139 -15 -272q-162 2 -336 0q9 117 19 244z" />
    <glyph glyph-name="gdotaccent" unicode="&#x121;" horiz-adv-x="1003" 
d="M662 1548q1 -58 -2 -131.5t-6 -117.5l-3 -44l-301 5l-6 292zM631 866q-129 0 -283 -4q15 -353 19 -702q132 -2 243 2q17 487 21 704zM829 -313q-118 -117 -235 -215q-151 -2 -262 -2q-114 110 -223 229q8 76 10 172q143 -8 227 -14q-2 -88 -2 -154q115 -2 246 0
q1 16 2 40t2 86t-2 79q-108 2 -221 2q-141 122 -256 235q-21 361 -52 725q132 148 273 277q137 8 303 8q146 -124 285 -276q-18 -223 -35.5 -404.5t-29.5 -332t-30 -455.5z" />
    <glyph glyph-name="uni0122" unicode="&#x122;" horiz-adv-x="1122" 
d="M422 -262q127 -2 252 -2q-4 -130 -8 -228q-35 -49 -84 -145q-31 15 -74 27q19 37 35 90q-29 8 -109 24q-6 130 -12 234zM719 1270q-162 2 -305 -8q12 -538 16 -1069q197 -5 289 -7q2 98 4 170q-119 -6 -164 -10q-1 46 0 109t3 103l1 40l461 -27q-17 -246 -29 -393
q-115 -119 -262 -252q-186 -2 -301 -8q-141 103 -266 242q-45 517 -92 1104q165 171 321 329q189 4 420 6q105 -151 236 -301q-5 -139 -15 -272q-162 2 -336 0q9 117 19 244z" />
    <glyph glyph-name="uni0123" unicode="&#x123;" horiz-adv-x="1003" 
d="M631 866q-129 0 -283 -4q15 -353 19 -702q132 -2 243 2q17 487 21 704zM829 -313q-118 -117 -235 -215q-151 -2 -262 -2q-114 110 -223 229q8 76 10 172q143 -8 227 -14q-2 -88 -2 -154q115 -2 246 0q1 16 2 40t2 86t-2 79q-108 2 -221 2q-141 122 -256 235
q-21 361 -52 725q132 148 273 277q137 8 303 8q146 -124 285 -276q-18 -223 -35.5 -404.5t-29.5 -332t-30 -455.5zM606 1329q-125 4 -250 4q5 130 9 228q35 49 84 143q30 -13 71 -25q-17 -37 -33 -90q29 -10 109 -24q6 -132 10 -236z" />
    <glyph glyph-name="Hbar" unicode="&#x126;" horiz-adv-x="1304" 
d="M47 1456q53 0 137 -2l-4 127l348 8q-4 -94 -4 -139q41 -1 126.5 -2t127.5 -2v147l350 -6l-6 -147q24 -1 71 -2t69 -2q-5 -52 -15 -232l-137 -2q-18 -346 -33 -667.5t-21 -470.5l-5 -148l-267 6l-2 481q-149 3 -278 3q4 -226 0 -476l-264 -4q-28 718 -47 1266l-130 -2
q-16 127 -16 266zM780 1198l-264 -2q-4 -135 -6 -269t-2 -201v-67q112 7 278 15q-4 216 -6 524z" />
    <glyph glyph-name="hbar" unicode="&#x127;" horiz-adv-x="1079" 
d="M33 1497l112 -4l-2 106l314 5q0 -45 -4 -119q30 -1 119 -4t143 -4q-3 -42 -13 -222q-94 -4 -256 -8l-4 -190q35 63 82 112q123 -4 260 -12q117 -166 232 -305q-15 -468 -19 -932q-150 2 -297 6q11 496 17 905q-134 -2 -273 -8q-6 -464 -8 -897q-135 -6 -256 -6
q-12 669 -28 1323q-33 -2 -105 -2q-6 70 -14 256z" />
    <glyph glyph-name="Imacron" unicode="&#x12a;" horiz-adv-x="897" 
d="M25 2019q402 -16 827 -20q-4 -120 -14 -270q-440 -11 -801 -15q-10 98 -12 305zM561 -80l-248 -2q-4 858 -20 1679h311q-20 -805 -43 -1677z" />
    <glyph glyph-name="imacron" unicode="&#x12b;" horiz-adv-x="854" 
d="M51 1561q388 -5 760 -13q-4 -135 -14 -266q-372 -16 -731 -22q-7 115 -15 301zM268 -76q0 585 -6 1229q160 2 342 -4q-14 -587 -37 -1225q-158 -4 -299 0z" />
    <glyph glyph-name="Iogonek" unicode="&#x12e;" horiz-adv-x="477" 
d="M360 -80h-30l-107 -162l45 -51l82 72l72 -90q-42 -29 -85 -57.5t-65 -41.5l-22 -14l-199 168q49 97 82 174h-20q-5 858 -23 1679h313q-23 -805 -43 -1677z" />
    <glyph glyph-name="iogonek" unicode="&#x12f;" horiz-adv-x="483" 
d="M360 -70h-30q-30 -46 -55.5 -89t-35.5 -63l-10 -20l45 -51l82 72l72 -90q-42 -29 -85 -57.5t-65 -41.5l-22 -14l-199 168q42 85 80 186h-33l-6 1215l299 -4q-10 -263 -19.5 -566t-13.5 -474z" />
    <glyph glyph-name="Idotaccent" unicode="&#x130;" horiz-adv-x="477" 
d="M397 2034q1 -58 -1.5 -131.5t-5.5 -117.5l-3 -44l-301 4l-6 293zM360 -80l-247 -2q-5 858 -23 1679h313q-23 -805 -43 -1677z" />
    <glyph glyph-name="dotlessi" unicode="&#x131;" horiz-adv-x="483" 
d="M360 -70h-256l-6 1215l299 -4q-10 -263 -19.5 -566t-13.5 -474z" />
    <glyph glyph-name="IJ" unicode="&#x132;" horiz-adv-x="1456" 
d="M1274 166q-47 -57 -106 -121t-94 -99l-36 -36q-53 -1 -130.5 3t-129.5 9l-51 4q-64 70 -130 138.5t-100 101.5l-34 33l-14 282q84 4 156 3.5t119 -4.5l48 -3l-14 -262q60 -5 120.5 -8t91.5 -3l31 -1l19 1405l336 -15q-17 -337 -37.5 -693.5t-32.5 -545.5zM367 -80
l-248 -2q-5 858 -21 1679h312q-20 -805 -43 -1677z" />
    <glyph glyph-name="ij" unicode="&#x133;" horiz-adv-x="997" 
d="M535 1618q188 0 364 -4q-6 -135 -14 -309q-172 2 -340 4q-6 170 -10 309zM545 1137q190 -4 340 6q-17 -681 -25 -1327q-143 -156 -256 -285q-129 -15 -227 -23l2 306l188 6q-8 681 -22 1317zM371 -70h-254l-6 1215l297 -4q-10 -263 -19.5 -566t-13.5 -474zM418 1305
q-152 2 -320 4q-6 170 -10 309q168 0 344 -4q-6 -135 -14 -309z" />
    <glyph glyph-name="uni0136" unicode="&#x136;" horiz-adv-x="1019" 
d="M934 -84l-336 14l-180 295l-4 -293q-67 -4 -136.5 -7t-105.5 -4l-37 -1q-8 288 -22 708t-25 696l-10 275q78 -1 162.5 1t129.5 4l46 2q-5 -147 -4 -245.5t4 -148.5l4 -51q129 181 256 410q117 -55 260 -135q-116 -175 -239 -365t-188 -293l-65 -102q154 -262 295 -461
l207 25q0 -75 -3 -156t-6 -124zM379 -262q127 -2 252 -2q-4 -130 -8 -228q-35 -49 -84 -145q-31 15 -74 27q19 37 35 90q-29 8 -109 24q-6 130 -12 234z" />
    <glyph glyph-name="uni0137" unicode="&#x137;" horiz-adv-x="987" 
d="M915 -80l-327 8q-52 114 -106 244.5t-82 204.5l-27 74q-4 -133 -6 -264t-2 -196v-65l-254 -2q-4 746 -33 1682l334 -2l-29 -852q115 216 201 413q143 -44 282 -112q-63 -76 -150 -188.5t-142 -186.5l-56 -74q107 -228 211 -418l205 7zM356 -262q127 -2 252 -2
q-4 -130 -8 -228q-35 -49 -84 -145q-31 15 -74 27q19 37 35 90q-28 8 -108 24q-7 130 -13 234z" />
    <glyph glyph-name="Lacute" unicode="&#x139;" horiz-adv-x="784" 
d="M295 1665l-203 180q77 72 161 152.5t129 124.5l46 45q46 -51 100.5 -108t85.5 -89l31 -31q-77 -57 -164.5 -125.5t-136.5 -108.5zM381 221l336 29l12 -322h-618l-39 1661l352 10q-16 -373 -27 -717.5t-13 -502.5z" />
    <glyph glyph-name="lacute" unicode="&#x13a;" horiz-adv-x="688" 
d="M274 1665q-42 36 -92.5 81t-79.5 72l-30 27q77 72 161 152.5t129 124.5l46 45q46 -51 100.5 -108t85.5 -89l31 -31q-77 -57 -165 -125.5t-137 -108.5zM463 -80l-248 -2q-4 858 -22 1679h313q-23 -805 -43 -1677z" />
    <glyph glyph-name="uni013B" unicode="&#x13b;" horiz-adv-x="784" 
d="M272 -262q125 -2 250 -2q-4 -130 -8 -228q-35 -49 -84 -145q-31 15 -72 27q17 37 33 90q-28 8 -108 24q-7 130 -11 234zM397 1585q-37 -830 -43 -1374q160 11 338 31q8 -152 31 -328q-337 6 -596 0q-39 826 -86 1649q170 6 356 22z" />
    <glyph glyph-name="cid296" unicode="&#x13c;" horiz-adv-x="456" 
d="M113 -262q127 -2 252 -2q-7 -130 -9 -228q-35 -49 -84 -145q-32 15 -73 27q18 37 34 90q-28 8 -108 24q-8 130 -12 234zM61 1581h336q-16 -339 -29 -752.5t-18 -658.5l-6 -244q-156 -4 -252 -8q-2 385 -9.5 800.5t-14.5 639.5z" />
    <glyph glyph-name="Lcaron" unicode="&#x13d;" horiz-adv-x="874" 
d="M35 2019l155 154l238 -311l260 307q32 -32 72 -69.5t64 -59.5l24 -21q-80 -81 -166.5 -166.5t-133.5 -130.5l-46 -45h-168q-55 68 -129.5 153.5t-122.5 137.5zM381 221l336 29l12 -322h-618l-39 1661l352 10q-16 -373 -27 -717.5t-13 -502.5z" />
    <glyph glyph-name="lcaron" unicode="&#x13e;" horiz-adv-x="878" 
d="M35 2019l155 154l238 -311l260 307q32 -32 72 -69.5t64 -59.5l24 -21q-80 -81 -166.5 -166.5t-133.5 -130.5l-46 -45h-168q-55 68 -129.5 153.5t-122.5 137.5zM545 -80l-248 -2q-5 858 -23 1679h314q-23 -805 -43 -1677z" />
    <glyph glyph-name="Lslash" unicode="&#x141;" horiz-adv-x="940" 
d="M186 496q-37 41 -81.5 92t-70.5 82l-26 30l246 177l-16 712l352 10q-3 -80 -10 -247t-9 -248l64 45q39 -56 85.5 -119t73.5 -98l27 -35q-98 -58 -262 -160l-10 -516l334 29l12 -322h-619q-2 96 -7 304.5t-7 312.5z" />
    <glyph glyph-name="lslash" unicode="&#x142;" horiz-adv-x="860" 
d="M541 -80l-248 -2q0 257 -4 627l-76 -49l-176 204l248 179q-1 75 -6 326.5t-7 391.5h312l-13 -514l91 66q40 -56 87 -119t74 -98l27 -35q-79 -45 -289 -176q-18 -719 -20 -801z" />
    <glyph glyph-name="Nacute" unicode="&#x143;" horiz-adv-x="1153" 
d="M479 1665l-203 180q77 72 161 152.5t129 124.5l46 45q46 -51 100.5 -108t85.5 -89l31 -31q-77 -57 -164.5 -125.5t-136.5 -108.5zM766 487q4 522 16 1123q146 -2 312 -8q-39 -812 -76 -1678q-118 -4 -270 -8q-209 507 -361 899q25 -423 39 -895q-154 4 -328 6
q-12 748 -18 1678q109 0 285 6q208 -626 401 -1123z" />
    <glyph glyph-name="nacute" unicode="&#x144;" horiz-adv-x="972" 
d="M397 1223q-42 36 -92.5 81t-80.5 72l-29 27q77 72 161 152t129 125l45 44q46 -51 100.5 -108t85.5 -88l32 -31q-77 -57 -165 -125.5t-137 -108.5zM649 -72q0 471 -4 908q-153 -1 -272 -9q-2 -431 8 -899q-84 2 -270 0q-15 575 -35 912q137 147 303 307q209 -4 287 -4
q124 -143 241 -299q-11 -220 -20 -449.5t-12 -348.5l-3 -120q-104 0 -223 2z" />
    <glyph glyph-name="uni0145" unicode="&#x145;" horiz-adv-x="1169" 
d="M766 487q4 522 16 1123q146 -2 312 -8q-39 -812 -76 -1678q-118 -4 -270 -8q-209 507 -361 899q25 -423 39 -895q-154 4 -328 6q-12 748 -18 1678q109 0 285 6q208 -626 401 -1123zM401 -262q127 -2 252 -2q-4 -130 -8 -228q-35 -49 -84 -145q-31 15 -74 27q19 37 35 90
q-28 8 -108 24q-7 130 -13 234z" />
    <glyph glyph-name="uni0146" unicode="&#x146;" horiz-adv-x="964" 
d="M649 -72q0 471 -4 908q-153 -1 -272 -9q-2 -431 8 -899q-84 2 -270 0q-15 575 -35 912q137 147 303 307q209 -4 287 -4q124 -143 241 -299q-11 -220 -20 -449.5t-12 -348.5l-3 -120q-104 0 -223 2zM334 -262q127 -2 252 -2q-4 -130 -8 -228q-35 -49 -84 -145
q-31 15 -74 27q19 37 35 90q-29 8 -109 24q-6 130 -12 234z" />
    <glyph glyph-name="Ncaron" unicode="&#x147;" horiz-adv-x="1171" 
d="M178 2019l156 154l237 -311l260 307q32 -32 72 -69.5t64 -59.5l24 -21q-80 -81 -166.5 -166.5t-132.5 -130.5l-47 -45h-168q-55 68 -129.5 153.5t-121.5 137.5zM766 487q4 522 16 1123q146 -2 312 -8q-39 -812 -76 -1678q-118 -4 -270 -8q-209 507 -361 899
q25 -423 39 -895q-154 4 -328 6q-12 748 -18 1678q109 0 285 6q208 -626 401 -1123z" />
    <glyph glyph-name="ncaron" unicode="&#x148;" horiz-adv-x="972" 
d="M96 1591l156 152l237 -309l261 307q32 -32 71.5 -69.5t63.5 -59.5l24 -21q-80 -81 -166.5 -166.5t-132.5 -130.5l-47 -45h-168q-55 68 -129.5 153.5t-121.5 137.5zM649 -72q0 471 -4 908q-153 -1 -272 -9q-2 -431 8 -899q-84 2 -270 0q-15 575 -35 912q137 147 303 307
q209 -4 287 -4q124 -143 241 -299q-11 -220 -20 -449.5t-12 -348.5l-3 -120q-104 0 -223 2z" />
    <glyph glyph-name="Ohungarumlaut" unicode="&#x150;" horiz-adv-x="1081" 
d="M367 1667q-46 11 -107 29t-99 30l-38 13q36 96 71.5 198.5t52.5 156.5l17 54l279 -84zM803 1667q-46 11 -107 29t-99 30l-38 13q36 96 71.5 198.5t52.5 156.5l17 54l279 -84zM377 1239q10 -591 14 -1024q74 -2 283 -6q2 62 6 166.5t9.5 375.5t4.5 480q-16 1 -44 3
t-111 4.5t-162 0.5zM942 197q-117 -135 -250 -293q-73 2 -311 10q-140 127 -279 301q-6 470 -26 1040q12 20 35 54.5t93 126t140 166.5q145 -6 397 0q138 -174 271 -371q-47 -550 -70 -1034z" />
    <glyph glyph-name="ohungarumlaut" unicode="&#x151;" horiz-adv-x="958" 
d="M350 893q9 -372 17 -758q122 -10 235 -12q11 355 23 772q-164 2 -275 -2zM858 109q-129 -99 -258 -199h-238q-131 90 -262 213q-23 359 -37 784q121 131 238 240q144 10 334 22q145 -125 268 -266q-10 -107 -17.5 -231t-11.5 -220t-6.5 -178t-4.5 -125t-5 -40zM305 1255
q-46 11 -107 29t-99 30l-38 13q36 96 71.5 199t53.5 158l17 55l278 -86zM741 1255q-46 11 -107 29t-98 30l-38 13q36 96 71.5 199t52.5 158l17 55l279 -86z" />
    <glyph glyph-name="OE" unicode="&#x152;" horiz-adv-x="1722" 
d="M1552 788l11 -301l-418 -24q4 -158 10 -242q227 9 498 29q-4 -166 -6 -324q-168 -4 -351 -4.5t-282 0.5l-99 2q-2 86 -10 236q-95 -108 -217 -256q-75 2 -313 10q-140 127 -279 301q-6 470 -26 1040q13 20 35.5 54.5t93.5 126t141 166.5q143 -6 395 0q37 -47 90 -119
l-8 100l848 14q-8 -178 -18 -352q-298 15 -527 29l17 -545q173 22 415 59zM371 1239q10 -591 14 -1024q74 -2 283 -6q3 62 6.5 166.5t9.5 375.5t4 480q-16 1 -44 3t-111 4.5t-162 0.5z" />
    <glyph glyph-name="oe" unicode="&#x153;" horiz-adv-x="1628" 
d="M983 659l307 31l15 193l-324 -9zM1516 133q-41 -53 -93 -107t-84 -82l-32 -28l-318 -22l-203 176q-84 -84 -178 -160h-237q-134 90 -265 213q-22 359 -36 784q120 131 237 240q144 10 334 22q72 -72 160 -168l137 154l393 -16q54 -49 118.5 -110.5t102.5 -98.5l37 -37
q-16 -78 -33 -178t-26 -161l-10 -60l-529 -29q4 -159 4 -313q75 0 140.5 3.5t93.5 6.5l28 4l-12 172q62 6 133.5 10t112.5 5l41 1zM356 893q9 -372 19 -758q120 -10 235 -12q11 355 23 772q-166 2 -277 -2z" />
    <glyph glyph-name="Racute" unicode="&#x154;" horiz-adv-x="1040" 
d="M459 1665l-203 180q77 72 161 152.5t129 124.5l46 45q46 -51 100.5 -108t85.5 -89l31 -31q-77 -57 -164.5 -125.5t-136.5 -108.5zM379 1307l-2 -729q129 -9 252 -17q9 163 22 352t22 297l9 107zM971 180l-19 -260l-313 12q-53 91 -105 190.5t-78 153.5l-26 54l-51 2
q8 -168 20 -406q-178 -4 -284 0q-15 797 -54 1663q345 21 641 31l289 -297l-82 -776q-53 -44 -110.5 -99t-88.5 -88l-32 -34l104 -160z" />
    <glyph glyph-name="racute" unicode="&#x155;" horiz-adv-x="808" 
d="M326 1223l-203 180q77 72 161 152.5t130 124.5l45 44q46 -51 100.5 -108t85.5 -88l31 -31q-77 -57 -164.5 -125.5t-136.5 -108.5zM737 823q-88 9 -186 17q-44 -39 -84.5 -79t-58.5 -61l-19 -20q-12 -366 -14 -754h-277q-2 261 -6 564t-7 475l-3 172h326l-5 -150
q74 72 148 146q96 6 205 10q-7 -154 -19 -320z" />
    <glyph glyph-name="Rcaron" unicode="&#x158;" horiz-adv-x="1040" 
d="M117 2019l155 154l238 -311l260 307q32 -32 72 -69.5t64 -59.5l24 -21q-80 -81 -166.5 -166.5t-133.5 -130.5l-46 -45h-168q-55 68 -129.5 153.5t-122.5 137.5zM379 1307l-2 -729q129 -9 252 -17q9 163 22 352t22 297l9 107zM971 180l-19 -260l-313 12q-53 91 -105 190.5
t-78 153.5l-26 54l-51 2q8 -168 20 -406q-178 -4 -284 0q-15 797 -54 1663q345 21 641 31l289 -297l-82 -776q-53 -44 -110.5 -99t-88.5 -88l-32 -34l104 -160z" />
    <glyph glyph-name="rcaron" unicode="&#x159;" horiz-adv-x="880" 
d="M35 1599l155 152l238 -309l260 307q32 -32 72 -69.5t64 -59.5l24 -21q-80 -81 -166.5 -166.5t-133.5 -130.5l-46 -45h-168q-55 68 -129.5 153.5t-122.5 137.5zM758 823q-89 9 -187 17q-44 -39 -84 -79t-59 -61l-18 -20q-13 -366 -15 -754h-276q-2 261 -6 564t-7 475
l-4 172h326l-4 -150q73 72 147 146q96 6 205 10q-6 -154 -18 -320z" />
    <glyph glyph-name="Sacute" unicode="&#x15a;" horiz-adv-x="1101" 
d="M1053 1327q-8 -161 -31 -356q-147 4 -268 4q-2 153 2 350q-207 -17 -357 -25q-3 -275 7 -550q172 -2 352 -2q135 -119 266 -234q-14 -200 -16 -362q-140 -127 -271 -244q-168 0 -315 2q-178 110 -309 225q0 47 -2.5 104.5t-4.5 91.5l-2 34q18 1 48.5 2t114.5 2t155 0
q0 -144 4 -224q139 7 311 19q4 146 0 330q-141 2 -321 -2q-174 118 -334 237q4 332 -14 612q151 130 288 265q183 8 400 14q137 -139 297 -293zM459 1665l-203 180q77 72 161 152.5t129 124.5l46 45q46 -51 100.5 -108t85.5 -89l31 -31q-77 -57 -164.5 -125.5t-136.5 -108.5
z" />
    <glyph glyph-name="sacute" unicode="&#x15b;" horiz-adv-x="991" 
d="M932 901q4 -72 6 -178q-178 2 -311 10q0 68 2 148q-101 -3 -244 -13q0 -145 4 -239q113 -10 238 2q135 -105 280 -211q-8 -125 -24 -279q-139 -131 -248 -221q-127 -2 -285 -4q-145 131 -241 223q-9 74 -13 135l289 5q2 -62 2 -121q109 2 234 4l4 213q-59 3 -117.5 4
t-87.5 1l-29 -1q-68 48 -142 96t-115 72l-40 24q-6 172 -8 301q156 170 289 283q137 4 276 10q166 -168 281 -264zM408 1223l-203 180q77 72 161 152.5t130 124.5l45 44q46 -51 100.5 -108t85.5 -88l31 -31q-77 -57 -164.5 -125.5t-136.5 -108.5z" />
    <glyph glyph-name="Scedilla" unicode="&#x15e;" horiz-adv-x="1114" 
d="M406 -190q15 23 35 59.5t22 40.5h-41q-178 110 -309 225q0 47 -2.5 104.5t-4.5 91.5l-2 34q18 1 48.5 2t114.5 2t155 0q0 -144 4 -224q139 7 311 19q4 146 0 330q-141 2 -321 -2q-174 118 -334 237q4 332 -14 612q151 130 288 265q183 8 400 14q137 -139 297 -293
q-8 -161 -31 -356q-147 4 -268 4q-2 153 2 350q-207 -17 -357 -25q-3 -275 7 -550q172 -2 352 -2q135 -119 266 -234q-14 -200 -16 -362q-140 -127 -271 -244h-119q-43 -72 -53 -90h107q32 -24 67 -51t53 -43l19 -15l-14 -155l-281 -3l-6 107l143 -2l2 49h-118z" />
    <glyph glyph-name="scedilla" unicode="&#x15f;" horiz-adv-x="1005" 
d="M346 -190q50 83 60 106h-56q-145 131 -241 223q-9 74 -13 135l289 5q2 -62 2 -121q109 2 234 4l4 213q-59 3 -117.5 4t-87.5 1l-29 -1q-68 48 -142 96t-115 72l-40 24q-6 172 -8 301q156 170 289 283q137 4 276 10q166 -168 281 -264q4 -72 6 -178q-178 2 -311 10
q0 68 2 148q-101 -3 -244 -13q0 -145 4 -239q113 -10 238 2q135 -105 280 -211q-8 -125 -24 -279q-139 -131 -248 -221l-72 -2q-29 -52 -59 -100h108l140 -109l-15 -155l-280 -3l-8 107l143 -2l4 49h-119q-30 23 -63 49t-50 41z" />
    <glyph glyph-name="cid330" unicode="&#x160;" horiz-adv-x="1114" 
d="M158 2019l155 154l238 -311l260 307q32 -32 72 -69.5t64 -59.5l24 -21q-80 -81 -166.5 -166.5t-132.5 -130.5l-47 -45h-168q-55 68 -129.5 153.5t-121.5 137.5zM1053 1327q-8 -161 -31 -356q-147 4 -268 4q-2 153 2 350q-207 -17 -357 -25q-3 -275 7 -550q172 -2 352 -2
q135 -119 266 -234q-14 -200 -16 -362q-140 -127 -271 -244q-168 0 -315 2q-178 110 -309 225q0 47 -2.5 104.5t-4.5 91.5l-2 34q18 1 48.5 2t114.5 2t155 0q0 -144 4 -224q139 7 311 19q4 146 0 330q-141 2 -321 -2q-174 118 -334 237q4 332 -14 612q151 130 288 265
q183 8 400 14q137 -139 297 -293z" />
    <glyph glyph-name="scaron" unicode="&#x161;" horiz-adv-x="1005" 
d="M96 1599l156 152l237 -309l261 307q32 -32 71.5 -69.5t63.5 -59.5l24 -21q-80 -81 -166.5 -166.5t-132.5 -130.5l-47 -45h-168q-55 68 -129.5 153.5t-121.5 137.5zM932 901q4 -72 6 -178q-178 2 -311 10q0 68 2 148q-101 -3 -244 -13q0 -145 4 -239q113 -10 238 2
q135 -105 280 -211q-8 -125 -24 -279q-139 -131 -248 -221q-127 -2 -285 -4q-145 131 -241 223q-9 74 -13 135l289 5q2 -62 2 -121q109 2 234 4l4 213q-59 3 -117.5 4t-87.5 1l-29 -1q-68 48 -142 96t-115 72l-40 24q-6 172 -8 301q156 170 289 283q137 4 276 10
q166 -168 281 -264z" />
    <glyph glyph-name="cid334" unicode="&#x164;" horiz-adv-x="1073" 
d="M137 2019l156 154l237 -311l261 307q32 -32 72 -69.5t63 -59.5l24 -21q-80 -81 -166.5 -166.5t-133.5 -130.5l-46 -45h-168q-55 68 -129.5 153.5t-122.5 137.5zM383 -78q-6 445 -16 1297q-107 -5 -281 -11q-12 199 -20 383l940 13l-19 -381l-297 2q-17 -661 -33 -1297
q-137 -2 -274 -6z" />
    <glyph glyph-name="tcaron" unicode="&#x165;" horiz-adv-x="876" 
d="M35 1819l155 151l238 -309l260 307q32 -32 72 -69t64 -59l24 -21q-80 -81 -166.5 -166.5t-133.5 -130.5l-46 -45h-168q-55 68 -129.5 153.5t-122.5 137.5zM817 -86l-334 4q-129 119 -260 232q-4 153 -6 331.5t-2 280.5v102q-49 -2 -119 -2l-12 287l131 -6q0 221 -2 268
q73 0 148 -2.5t114 -4.5l39 -3l-10 -254h301q-4 -115 -12 -295q-182 6 -299 10l-9 -690q67 3 148 8.5t129 9.5l47 5q4 -63 6 -133t2 -109v-39z" />
    <glyph glyph-name="cid340" unicode="&#x16a;" horiz-adv-x="1085" 
d="M147 2019q403 -16 828 -20q-4 -98 -14 -270q-440 -11 -801 -15q-11 98 -13 305zM1034 1550q-29 -676 -49 -1296q-131 -157 -268 -350q-125 2 -289 2q-155 161 -309 311q-17 322 -32 666t-21 527l-7 183q168 5 369 9q-12 -718 0 -1348q144 2 287 10q6 599 18 1288
q147 0 301 -2z" />
    <glyph glyph-name="umacron" unicode="&#x16b;" horiz-adv-x="1064" 
d="M133 1548q405 -16 830 -20q-5 -99 -15 -271q-440 -10 -801 -14q-10 98 -14 305zM780 35q-65 -55 -135 -121l-268 2q-115 105 -256 244q-11 190 -20.5 437t-12.5 399l-4 151q150 2 324 -4q-15 -540 -17 -930q108 0 266 2q4 464 0 885q162 -2 324 -10q-10 -198 -26.5 -430
t-28.5 -365l-11 -133q24 -9 58 -19t56 -16l22 -6l-62 -211l-125 31q-17 24 -38 47.5t-34 35.5z" />
    <glyph glyph-name="cid344" unicode="&#x16e;" horiz-adv-x="1085" 
d="M629 2050h-160l-2 -186l154 2zM805 2062l-17 -198q-28 -36 -65 -74t-61 -58l-23 -20l-176 2q-37 30 -77.5 67t-62.5 59l-22 22l-6 202l158 148l186 4q31 -32 72.5 -70.5t67.5 -61.5zM1034 1550q-29 -676 -49 -1296q-131 -157 -268 -350q-125 2 -289 2q-155 161 -309 311
q-17 322 -32 666t-21 527l-7 183q168 5 369 9q-12 -718 0 -1348q144 2 287 10q6 599 18 1288q147 0 301 -2z" />
    <glyph glyph-name="cid345" unicode="&#x16f;" horiz-adv-x="1064" 
d="M608 1579h-159l-5 -186l154 2zM784 1591l-16 -198q-28 -36 -65.5 -74t-60.5 -58l-24 -20l-176 2q-37 30 -77.5 67t-62.5 59l-21 22l-9 202l160 148l186 4q31 -32 72.5 -70.5t67.5 -60.5zM780 35q-65 -55 -135 -121l-268 2q-115 105 -256 244q-11 190 -20.5 437t-12.5 399
l-4 151q150 2 324 -4q-15 -540 -17 -930q108 0 266 2q4 464 0 885q162 -2 324 -10q-10 -198 -26.5 -430t-28.5 -365l-11 -133q24 -9 58 -19t56 -16l22 -6l-62 -211l-125 31q-17 24 -38 47.5t-34 35.5z" />
    <glyph glyph-name="cid346" unicode="&#x170;" horiz-adv-x="1085" 
d="M367 1667q-46 11 -107 29t-99 30l-38 13q36 96 71.5 198.5t52.5 156.5l17 54l279 -84zM803 1667q-46 11 -107 29t-99 30l-38 13q36 96 71.5 198.5t52.5 156.5l17 54l279 -84zM1034 1550q-29 -676 -49 -1296q-131 -157 -268 -350q-125 2 -289 2q-155 161 -309 311
q-17 322 -32 666t-21 527l-7 183q168 5 369 9q-12 -718 0 -1348q144 2 287 10q6 599 18 1288q147 0 301 -2z" />
    <glyph glyph-name="cid347" unicode="&#x171;" horiz-adv-x="1064" 
d="M346 1255q-46 11 -107 29t-99 30l-38 13q36 96 71.5 199t52.5 158l18 55l278 -86zM782 1255q-46 11 -107 29t-99 30l-37 13q36 96 71.5 199t52.5 158l17 55l278 -86zM780 35q-65 -55 -135 -121l-268 2q-115 105 -256 244q-11 190 -20.5 437t-12.5 399l-4 151
q150 2 324 -4q-15 -540 -17 -930q108 0 266 2q4 464 0 885q162 -2 324 -10q-10 -198 -26.5 -430t-28.5 -365l-11 -133q24 -9 58 -19t56 -16l22 -6l-62 -211l-125 31q-17 24 -38 47.5t-34 35.5z" />
    <glyph glyph-name="cid348" unicode="&#x172;" horiz-adv-x="1085" 
d="M717 -96h-15l-96 -146l47 -51l80 72l74 -90q-42 -29 -85 -57.5t-65 -41.5l-22 -14l-201 168q48 92 78 162h-84q-155 161 -309 311q-17 322 -32 666t-21 527l-7 183q168 5 369 9q-12 -718 0 -1348q144 2 287 10q6 599 18 1288q147 0 301 -2q-29 -676 -49 -1296
q-131 -157 -268 -350z" />
    <glyph glyph-name="cid349" unicode="&#x173;" horiz-adv-x="1064" 
d="M989 -90q-17 -26 -48 -64t-53 -63l-22 -25l47 -51l82 72l72 -90q-42 -29 -85 -57.5t-65 -41.5l-22 -14l-201 168q19 35 123 254l-37 37q-65 -55 -135 -121l-268 2q-115 105 -256 244q-11 190 -20.5 437t-12.5 399l-4 151q150 2 324 -4q-15 -540 -17 -930q108 0 266 2
q4 464 0 885q162 -2 324 -10q-10 -198 -26.5 -430t-28.5 -365l-11 -133q24 -9 58 -19t56 -16l22 -6z" />
    <glyph glyph-name="cid354" unicode="&#x178;" horiz-adv-x="987" 
d="M399 2028q0 -65 -2.5 -134t-4.5 -105l-3 -36l-250 4l-6 277q38 -2 79 -3.5t73 -2t58.5 -0.5h40.5h15zM827 2028l-10 -275l-250 4l-6 277q41 -2 83 -3.5t73.5 -2t57 -0.5h39.5h13zM852 598l-240 -217q1 -102 15 -457q-133 -2 -283 2q12 147 12 463l-245 232
q-12 167 -27 410t-24 403l-9 159l316 4q-4 -684 2 -968l239 -8l13 976l321 -2q-45 -609 -90 -997z" />
    <glyph glyph-name="cid355" unicode="&#x179;" horiz-adv-x="1028" 
d="M418 1665l-203 180q77 72 161 152.5t130 124.5l45 45q46 -51 100.5 -108t85.5 -89l31 -31q-77 -57 -164.5 -125.5t-136.5 -108.5zM985 1217q-363 -542 -659 -996q275 18 608 55q-21 -180 -27 -346q-351 -4 -737 -4q-68 160 -119 303q325 528 617 1006q-288 -2 -566 -4
q-4 158 -14 373q331 -11 705 -15q94 -169 192 -372z" />
    <glyph glyph-name="cid356" unicode="&#x17a;" horiz-adv-x="1015" 
d="M459 1214q-42 36 -92.5 81t-80.5 73l-30 27q77 72 161 152.5t129 124.5l46 44q46 -51 100.5 -108t85.5 -88l31 -31q-77 -57 -164.5 -126t-136.5 -109zM954 844q-350 -355 -598 -649q222 2 557 10q-14 -172 -28 -289q-351 6 -729 0q-64 133 -109 270q292 327 586 664
q-29 -1 -80 -2.5t-190 -4t-257 -1.5q-1 20 -2.5 53.5t-4 114.5t-1.5 137q329 -6 725 0q80 -153 131 -303z" />
    <glyph glyph-name="cid357" unicode="&#x17b;" horiz-adv-x="1028" 
d="M682 2034q1 -58 -1.5 -131.5t-5.5 -117.5l-3 -44l-301 4l-6 293zM985 1217q-363 -542 -659 -996q275 18 608 55q-21 -180 -27 -346q-351 -4 -737 -4q-68 160 -119 303q325 528 617 1006q-288 -2 -566 -4q-4 158 -14 373q331 -11 705 -15q94 -169 192 -372z" />
    <glyph glyph-name="cid358" unicode="&#x17c;" horiz-adv-x="1015" 
d="M657 1548q1 -58 -1.5 -131.5t-5.5 -117.5l-3 -44l-301 5l-6 292zM954 844q-350 -355 -598 -649q222 2 557 10q-14 -172 -28 -289q-351 6 -729 0q-64 133 -109 270q292 327 586 664q-29 -1 -80 -2.5t-190 -4t-257 -1.5q-1 20 -2.5 53.5t-4 114.5t-1.5 137q329 -6 725 0
q80 -153 131 -303z" />
    <glyph glyph-name="cid359" unicode="&#x17d;" horiz-adv-x="1028" 
d="M117 2019l155 154l238 -311l260 307q32 -32 72 -69.5t64 -59.5l24 -21q-80 -81 -166.5 -166.5t-133.5 -130.5l-46 -45h-168q-55 68 -129.5 153.5t-122.5 137.5zM985 1217q-363 -542 -659 -996q275 18 608 55q-21 -180 -27 -346q-351 -4 -737 -4q-68 160 -119 303
q325 528 617 1006q-288 -2 -566 -4q-4 158 -14 373q331 -11 705 -15q94 -169 192 -372z" />
    <glyph glyph-name="cid360" unicode="&#x17e;" horiz-adv-x="1015" 
d="M96 1591l156 152l237 -309l261 307q32 -32 71.5 -69.5t63.5 -59.5l24 -21q-80 -81 -166.5 -166.5t-132.5 -130.5l-47 -45h-168q-55 68 -129.5 153.5t-121.5 137.5zM954 844q-350 -355 -598 -649q222 2 557 10q-14 -172 -28 -289q-351 6 -729 0q-64 133 -109 270
q292 327 586 664q-29 -1 -80 -2.5t-190 -4t-257 -1.5q-1 20 -2.5 53.5t-4 114.5t-1.5 137q329 -6 725 0q80 -153 131 -303z" />
    <glyph glyph-name="cid364" unicode="&#x192;" horiz-adv-x="1292" 
d="M831 1079v-188q212 -4 287 -4q-5 -77 -5 -163.5t3 -134.5l2 -48h-305q-17 -327 -35 -617q-18 -14 -49 -40.5t-114.5 -113t-151.5 -178.5q-76 0 -161.5 -3t-133.5 -6l-47 -3l-23 305l242 -18q30 35 75 75.5t75 63.5l30 23q5 90 5.5 217.5t-1.5 209.5l-2 83
q-45 -1 -117 -3.5t-120 -3.5q-4 71 -12.5 163t-15.5 148l-7 56l287 -6q1 64 1 83.5t-5 94.5t-7 111q56 67 117 153t94 139l33 52l422 55q1 -88 6 -181t10 -142l4 -50l-276 -8q-31 -30 -57.5 -60.5t-36.5 -45.5z" />
    <glyph glyph-name="cid383" unicode="&#x1c5;" horiz-adv-x="2066" 
d="M1128 1591l154 152l238 -309l262 307q31 -32 70.5 -69.5t63.5 -59.5l23 -21l-344 -342h-170q-55 68 -129 153.5t-121 137.5zM1985 844q-348 -355 -596 -649q222 2 557 10q-15 -172 -31 -289q-351 6 -727 0q-66 133 -111 270q294 327 588 664q-29 -1 -79.5 -2.5t-190 -4
t-258.5 -1.5q-1 20 -3 53.5t-4.5 114.5t-1.5 137q329 -6 727 0q81 -153 130 -303zM375 1257l22 -1036l279 -2q16 229 30.5 490.5t21.5 408.5l7 146q-79 2 -169 0t-140 -4zM932 190q-119 -129 -240 -256q-31 -1 -82 -2t-202.5 -3t-255.5 3q-27 764 -70 1622q322 39 663 70
q157 -160 302 -340q-64 -614 -115 -1094z" />
    <glyph glyph-name="cid384" unicode="&#x1c6;" horiz-adv-x="1951" 
d="M377 143l270 -2q4 143 6 324t2 290v109l-315 19q4 -148 13.5 -333t16.5 -296zM356 -106q-60 49 -114 107t-78 91l-25 33q-20 168 -40.5 365t-30.5 310l-11 113q74 57 145.5 116.5t106.5 90.5l35 31q69 -4 148 -11.5t123 -12.5l44 -5q4 155 -4 492q142 -6 277 -8
l-70 -1667zM1006 1591l153 152l238 -309l262 307q31 -32 70.5 -69.5t63.5 -59.5l24 -21l-344 -342h-170q-55 68 -129 153.5t-121 137.5zM1862 844q-348 -355 -596 -649q222 2 557 10q-15 -172 -31 -289q-351 6 -727 0q-66 133 -111 270q294 327 588 664q-29 -1 -79.5 -2.5
t-190 -4t-258.5 -1.5q-1 20 -2.5 53.5t-4 114.5t-1.5 137q329 -6 727 0q80 -153 129 -303z" />
    <glyph glyph-name="cid396" unicode="&#x1f2;" horiz-adv-x="1792" 
d="M1712 844q-223 -357 -416 -649q42 2 377 10q-14 -172 -28 -289q-173 6 -549 0q-66 133 -111 270q244 360 408 664q-9 -1 -30 -2.5t-110.5 -4t-208.5 -1.5q-1 20 -2.5 53.5t-4 114.5t-1.5 137q151 -6 547 0q80 -153 129 -303zM375 1257l22 -1036l187 -2q16 229 30.5 490.5
t21.5 408.5l7 146q-79 2 -146 0t-95 -4zM840 190q-119 -129 -240 -256q-21 -1 -58.5 -2t-158 -3t-231.5 3q-27 764 -70 1622q230 39 571 70q156 -160 301 -340q-63 -614 -114 -1094z" />
    <glyph glyph-name="cid397" unicode="&#x1f3;" horiz-adv-x="1638" 
d="M1563 844q-223 -357 -416 -649q42 2 377 10q-15 -172 -29 -289q-173 6 -549 0q-65 133 -110 270q243 360 407 664q-9 -1 -29.5 -2.5t-110 -4t-208.5 -1.5q-1 20 -2.5 53.5t-4 114.5t-1.5 137q151 -6 547 0q80 -153 129 -303zM377 143l180 -2q4 143 6 324t2 290v109
l-225 19q4 -148 13.5 -333t16.5 -296zM356 -106q-60 49 -114 107t-78 91l-25 33q-20 168 -40.5 365t-30.5 310l-11 113q74 57 145.5 116.5t106.5 90.5l35 31q69 -4 125.5 -11.5t78.5 -12.5l21 -5q4 155 -4 492q140 -6 277 -8q-15 -378 -33 -794.5t-29 -644.5l-10 -228z" />
    <glyph glyph-name="cid420" unicode="&#x21a;" horiz-adv-x="1028" 
d="M383 -78q-6 445 -16 1297q-107 -5 -281 -11q-12 199 -20 383l940 13l-19 -381l-297 2q-17 -661 -33 -1297q-137 -2 -274 -6zM399 -262q127 -2 252 -2q-4 -130 -8 -228q-35 -49 -84 -145q-31 15 -74 27q19 37 35 90q-28 8 -108 24q-7 130 -13 234z" />
    <glyph glyph-name="cid421" unicode="&#x21b;" horiz-adv-x="940" 
d="M817 -86l-334 4q-129 119 -260 232q-4 153 -6 331.5t-2 280.5v102q-49 -2 -119 -2l-12 287l131 -6q0 221 -2 268q73 0 148 -2.5t114 -4.5l39 -3l-10 -254h301q-4 -115 -12 -295q-182 6 -299 10l-9 -690q67 3 148 8.5t129 9.5l47 5q4 -63 6 -133t2 -109v-39zM338 -262
q127 -2 252 -2q-4 -130 -8 -228q-35 -49 -84 -145q-31 15 -74 27q19 37 35 90q-29 8 -109 24q-6 130 -12 234z" />
    <glyph glyph-name="cid98" unicode="&#x2bb;" horiz-adv-x="595" 
d="M508 1036q-211 4 -418 4q8 217 14 381q83 164 140 301q76 -16 162 -43q-33 -112 -56 -231q4 6 139 -21q11 -217 19 -391z" />
    <glyph glyph-name="cid96" unicode="&#x2bc;" horiz-adv-x="567" 
d="M70 1696q210 -4 417 -4q-8 -217 -14 -381q-82 -164 -139 -301q-76 16 -162 43q32 112 55 231q-6 -4 -139 21q-12 217 -18 391z" />
    <glyph glyph-name="cid128" unicode="&#x2c6;" horiz-adv-x="1028" 
d="M977 1513q-37 -34 -81 -77.5t-70 -69.5l-25 -27l-271 295q-60 -60 -136.5 -133t-122.5 -115l-46 -43q-38 40 -83.5 82.5t-71.5 64.5l-27 23l358 349q51 0 109.5 -2t91.5 -4l33 -1q71 -76 156.5 -161.5t135.5 -133.5z" />
    <glyph glyph-name="cid433" unicode="&#x2c7;" horiz-adv-x="919" 
d="M55 2019l156 154l238 -311l260 307q32 -32 72 -69.5t63 -59.5l24 -21q-80 -81 -166.5 -166.5t-133.5 -130.5l-46 -45h-168q-55 68 -129.5 153.5t-122.5 137.5z" />
    <glyph glyph-name="cid450" unicode="&#x2d8;" horiz-adv-x="1028" 
d="M973 1849q-143 -67 -311 -153q-199 2 -357 8q-135 90 -254 178q74 93 156 189q53 -45 176 -121q110 -2 235 -4q93 71 189 141q74 -111 166 -238z" />
    <glyph glyph-name="cid451" unicode="&#x2d9;" horiz-adv-x="579" 
d="M444 2034q1 -58 -1.5 -131.5t-5.5 -117.5l-3 -44l-303 4l-6 293z" />
    <glyph glyph-name="cid133" unicode="&#x2da;" horiz-adv-x="636" 
d="M403 2050h-159l-4 -186l153 2zM580 2062l-17 -198q-28 -36 -65.5 -74t-60.5 -58l-23 -20l-176 2q-37 30 -77.5 67t-62.5 59l-22 22l-8 202l159 148l187 4q31 -32 72.5 -70.5t67.5 -61.5z" />
    <glyph glyph-name="cid453" unicode="&#x2db;" horiz-adv-x="516" 
d="M158 -76h196l-110 -166l47 -51l80 72l73 -90q-42 -29 -85 -57.5t-65 -41.5l-22 -14l-200 168q19 36 40.5 81t33.5 72z" />
    <glyph glyph-name="cid454" unicode="&#x2dc;" horiz-adv-x="1054" 
d="M45 1919q184 110 358 225q122 -127 226 -225q125 66 250 166q56 -103 122 -203q-198 -101 -372 -203q-125 103 -238 209q-85 -82 -194 -168l-23 30q-23 31 -60.5 80.5t-68.5 88.5z" />
    <glyph glyph-name="gravecomb" unicode="&#x300;" horiz-adv-x="706" 
d="M53 1749q197 65 385 141q130 -278 228 -530q-167 -88 -312 -154q-14 30 -39 82t-103.5 195t-158.5 266z" />
    <glyph glyph-name="cid127" unicode="&#x301;" horiz-adv-x="657" 
d="M254 1665l-203 180q77 72 161 152.5t130 124.5l45 45q46 -51 100.5 -108t85.5 -89l31 -31q-77 -57 -164.5 -125.5t-136.5 -108.5z" />
    <glyph glyph-name="uni0302" unicode="&#x302;" 
 />
    <glyph glyph-name="tildecomb" unicode="&#x303;" horiz-adv-x="1200" 
d="M111 1460q160 99 346 232q125 -132 254 -232q127 68 254 170q57 -123 129 -209q-172 -74 -383 -207q-135 136 -244 216q-117 -87 -201 -173q-77 115 -155 203z" />
    <glyph glyph-name="uni0304" unicode="&#x304;" horiz-adv-x="950" 
d="M106 2126q315 -15 740 -21q-5 -137 -15 -309q-351 -10 -712 -16q-11 141 -13 346z" />
    <glyph glyph-name="cid226" unicode="&#x305;" horiz-adv-x="897" 
d="M82 1987q390 -3 758 -13q-9 -88 -13 -266q-40 -3 -110 -7t-263 -10.5t-360 -4.5q-4 115 -12 301z" />
    <glyph glyph-name="cid130" unicode="&#x306;" horiz-adv-x="1028" 
d="M973 1849q-143 -67 -311 -153q-199 2 -357 8q-135 90 -254 178q74 93 156 189q53 -45 176 -121q110 -2 235 -4q93 71 189 141q74 -111 166 -238z" />
    <glyph glyph-name="cid131" unicode="&#x307;" horiz-adv-x="579" 
d="M444 2034q1 -58 -1.5 -131.5t-5.5 -117.5l-3 -44l-303 4l-6 293z" />
    <glyph glyph-name="cid132" unicode="&#x308;" horiz-adv-x="923" 
d="M379 2028q0 -65 -2.5 -134t-4.5 -105l-3 -36l-250 4l-6 277q38 -2 79 -3.5t73 -2t58.5 -0.5h40.5h15zM807 2028l-10 -275l-250 4l-6 277q41 -2 83 -3.5t73.5 -2t57 -0.5h39.5h13z" />
    <glyph glyph-name="uni030A" unicode="&#x30a;" 
 />
    <glyph glyph-name="cid135" unicode="&#x30b;" horiz-adv-x="1026" 
d="M326 1667q-46 11 -107 29t-99 30l-38 13q36 96 71.5 198.5t52.5 156.5l17 54l279 -84zM762 1667q-46 11 -107 29t-99 30l-38 13q36 96 71.5 198.5t52.5 156.5l17 54l279 -84z" />
    <glyph glyph-name="cid137" unicode="&#x30c;" horiz-adv-x="919" 
d="M55 2019l156 154l238 -311l260 307q32 -32 72 -69.5t63 -59.5l24 -21q-80 -81 -166.5 -166.5t-133.5 -130.5l-46 -45h-168q-55 68 -129.5 153.5t-122.5 137.5z" />
    <glyph glyph-name="uni0327" unicode="&#x327;" horiz-adv-x="516" 
d="M49 -190l66 114h155q-32 -57 -61 -106h106l140 -109l-15 -155l-280 -3l-6 107l143 -2l2 49h-119z" />
    <glyph glyph-name="cid136" unicode="&#x328;" horiz-adv-x="516" 
d="M158 -76h196l-110 -166l47 -51l80 72l73 -90q-42 -29 -85 -57.5t-65 -41.5l-22 -14l-200 168q19 36 40.5 81t33.5 72z" />
    <glyph glyph-name="uni0332" unicode="&#x332;" horiz-adv-x="886" 
d="M86 287q294 -17 719 -21q-4 -139 -14 -309q-332 -10 -693 -14q-10 137 -12 344z" />
    <glyph glyph-name="cid138" unicode="&#x336;" horiz-adv-x="1546" 
d="M127 952q634 -12 1292 -20q-4 -189 -14 -373q-74 -2 -200 -4.5t-461 -6.5t-605 -3q-4 221 -12 407z" />
    <glyph glyph-name="cid458" unicode="&#x37e;" horiz-adv-x="770" 
d="M193 264q210 -4 417 -4q-8 -217 -14 -379q-82 -164 -139 -301q-76 16 -162 43q32 113 55 232q-6 -5 -139 20q-12 215 -18 389zM168 1151q225 -4 448 -4q-8 -238 -14 -420q-221 -2 -416 -8q-10 239 -18 432z" />
    <glyph glyph-name="cid459" unicode="&#x384;" horiz-adv-x="722" 
d="M481 1690l-213 -2l-22 340l248 12z" />
    <glyph glyph-name="cid460" unicode="&#x385;" horiz-adv-x="722" 
d="M481 1690l-213 -2l-22 340l248 12zM295 1591l-8 -274q-60 -2 -116 -1.5t-96 2.5l-40 1l-6 276q63 1 129.5 0t101.5 -3zM723 1591q0 -65 -2 -133.5t-4 -104.5l-2 -36q-61 -3 -117 -2.5t-96 2.5l-39 2l-6 276q60 1 126.5 0t102.5 -3z" />
    <glyph glyph-name="cid461" unicode="&#x386;" horiz-adv-x="1413" 
d="M410 1427l-213 -2l-23 340l248 13zM995 -51q-22 133 -77 301l-449 -10q-30 -121 -61 -285h-332q234 840 424 1614q198 2 411 14q205 -821 430 -1610q-158 -20 -346 -24zM874 504q-41 236 -74.5 377t-86.5 321q-78 -281 -178 -688z" />
    <glyph glyph-name="cid462" unicode="&#x387;" horiz-adv-x="620" 
d="M518 797q-5 -84 -8.5 -180t-4.5 -149l-1 -54l-393 4q1 87 -1.5 183t-5.5 149l-2 53z" />
    <glyph glyph-name="cid463" unicode="&#x388;" horiz-adv-x="1206" 
d="M260 1427l-211 -2q-7 78 -13 163t-8 131l-3 46l247 13zM1038 788l13 -301l-418 -24q4 -158 10 -242q227 9 498 29q-4 -166 -8 -324q-168 -4 -350.5 -4.5t-280.5 0.5l-99 2q-32 764 -98 1659l848 14q-8 -178 -20 -352q-296 15 -525 29q2 -128 5.5 -264.5t6.5 -208.5l3 -72
q175 22 415 59z" />
    <glyph glyph-name="cid464" unicode="&#x389;" horiz-adv-x="1337" 
d="M1206 -84l-266 6l-2 481q-150 3 -279 3q4 -226 0 -476l-264 -4q-13 308 -27.5 721.5t-23.5 673.5l-8 260l348 8q-8 -208 -13.5 -440.5t-6.5 -360.5l-2 -129q114 7 280 15q-8 412 -8 919l350 -6q-23 -441 -42.5 -859t-27.5 -615zM279 1427l-211 -2l-23 340l248 13
q-2 -84 -5.5 -172t-5.5 -134z" />
    <glyph glyph-name="cid465" unicode="&#x38a;" horiz-adv-x="749" 
d="M279 1427l-211 -2l-23 340l248 13q-2 -84 -5.5 -172t-5.5 -134zM662 -70q-148 2 -300 0q-9 846 -32 1669q163 1 364 5q-32 -892 -32 -1674z" />
    <glyph glyph-name="cid467" unicode="&#x38c;" horiz-adv-x="1228" 
d="M516 1239q10 -591 14 -1024q74 -2 283 -6q3 62 7 166.5t10 375.5t4 480q-16 1 -44 3t-111.5 4.5t-162.5 0.5zM1081 197q-116 -135 -247 -293q-74 2 -314 10q-139 127 -278 301q-7 470 -27 1040q13 20 35.5 54.5t93.5 126t141 166.5q146 -6 396 0q137 -174 270 -371
q-47 -550 -70 -1034zM279 1427l-211 -2l-23 340l248 13q-2 -84 -5.5 -172t-5.5 -134z" />
    <glyph glyph-name="cid469" unicode="&#x38e;" horiz-adv-x="1402" 
d="M268 1427l-211 -2l-22 340l248 13q-2 -84 -5.5 -172t-6.5 -134zM1006 338q-4 -100 -7 -205.5t-3 -160.5l-1 -56h-344q3 119 3 215.5t-2 157.5l-3 61q-162 651 -336 1258q187 2 332 12q121 -550 197 -926q111 517 211 928q154 -4 301 -6q-215 -798 -348 -1278z" />
    <glyph glyph-name="cid470" unicode="&#x38f;" horiz-adv-x="1470" 
d="M266 1427l-211 -2l-22 340l248 13q-2 -84 -5.5 -172t-6.5 -134zM1368 238q-9 -184 -25 -297q-315 6 -516 14q-14 158 -32 285l301 438q-14 92 -45 246t-55 262l-25 108q-23 1 -63 2t-158.5 2t-229.5 0q-86 -271 -149 -630q154 -231 295 -426l-19 -291l-518 -8l-25 284
l295 2q-70 69 -156.5 170t-138.5 167l-51 67l142 704q177 148 337 275q202 2 431 2q163 -141 333 -297q37 -290 119 -692q-19 -27 -51.5 -71t-121.5 -149.5t-165 -173.5q148 3 291 7z" />
    <glyph glyph-name="cid471" unicode="&#x390;" horiz-adv-x="845" 
d="M522 1690l-213 -2l-22 340l248 12zM336 1591l-8 -274q-60 -2 -116 -1.5t-96 2.5l-40 1l-6 276q63 1 129.5 0t101.5 -3zM764 1591q0 -65 -2 -133.5t-4 -104.5l-2 -36q-61 -3 -117 -2.5t-95 2.5l-40 2l-6 276q60 1 126.5 0t103.5 -3zM817 -76l-270 4q-53 46 -123 103.5
t-114 92.5l-44 34q0 193 -2.5 449t-5.5 415l-2 160h317q-2 -67 -3.5 -169.5t-4 -391t3.5 -435.5q68 -4 242 2q6 -141 6 -264z" />
    <glyph glyph-name="cid1011" unicode="&#x391;" horiz-adv-x="1447" 
d="M1055 -51q-27 124 -99 321q-55 -1 -235.5 -14.5t-294.5 -15.5q-30 -121 -61 -285h-291q242 815 424 1614q235 12 411 14q201 -793 451 -1610q-76 -10 -305 -24zM913 504q-15 65 -52.5 229.5t-55.5 243t-45.5 187.5t-48.5 182q-119 -425 -219 -832q183 -7 421 -10z" />
    <glyph glyph-name="cid1012" unicode="&#x392;" horiz-adv-x="1001" 
d="M614 129l4 479q-104 2 -251 8l10 -518q57 4 116.5 12t90.5 14zM365 852l233 6q7 137 15.5 252.5t12.5 161.5l5 47h-297q25 -149 31 -467zM918 676q-6 -96 -10.5 -244t-5.5 -248l-1 -100l-260 -166l-518 6l-78 1659q138 5 290.5 15t236.5 17l83 7q62 -62 136 -133.5
t117 -112.5l44 -41q-22 -139 -47 -256.5t-39 -164.5l-14 -48q-31 -11 -162 -96q39 -18 96 -41.5t94 -38.5z" />
    <glyph glyph-name="cid1013" unicode="&#x393;" horiz-adv-x="966" 
d="M86 1575q168 -2 364.5 -2t309.5 1l112 1l-16 -307q-76 4 -201.5 7t-212.5 4l-88 1q0 -316 2 -653t4 -516l2 -179q-91 1 -161.5 0t-95.5 -2l-25 -2q5 396 6.5 808t0.5 626z" />
    <glyph glyph-name="cid1014" unicode="&#x394;" horiz-adv-x="1325" 
d="M326 176q52 1 187 2.5t256.5 3t207.5 2.5q-83 312 -322 1100q-202 -654 -329 -1108zM1286 188q-55 -141 -110 -245q-524 -11 -988 -15q-69 111 -153 242q203 602 414 1378q208 -4 403 -6q24 -83 66 -223.5t156.5 -500t211.5 -630.5z" />
    <glyph glyph-name="cid1015" unicode="&#x395;" horiz-adv-x="958" 
d="M791 788l12 -301l-418 -24q4 -158 10 -242q227 9 498 29q-4 -166 -8 -324q-168 -4 -350 -4.5t-281 0.5l-98 2q-33 764 -99 1659l848 14q-8 -178 -18 -352q-298 15 -527 29q2 -128 5.5 -264.5t6.5 -208.5l3 -72q176 22 416 59z" />
    <glyph glyph-name="cid1016" unicode="&#x396;" horiz-adv-x="1028" 
d="M985 1217q-363 -542 -659 -996q275 18 608 55q-21 -180 -27 -346q-351 -4 -737 -4q-68 160 -119 303q325 528 617 1006q-288 -2 -566 -4q-4 158 -14 373q331 -11 705 -15q94 -169 192 -372z" />
    <glyph glyph-name="cid1017" unicode="&#x397;" horiz-adv-x="1060" 
d="M940 -84l-266 6l-2 481q-150 3 -279 3q4 -226 0 -476l-264 -4q-13 308 -27.5 721.5t-23.5 673.5l-8 260l348 8q-8 -208 -14 -440.5t-8 -360.5l-1 -129q115 7 281 15q-8 412 -8 919l350 -6q-23 -441 -42.5 -859t-27.5 -615z" />
    <glyph glyph-name="cid1018" unicode="&#x398;" horiz-adv-x="1177" 
d="M422 870q176 -4 346 -12q-8 -109 -14 -287q-125 -2 -318 -2q-6 115 -14 301zM377 1239q10 -591 14 -1024q180 -2 389 -6q3 62 7 166.5t10 375.5t4 480q-28 1 -73.5 3t-158.5 4.5t-192 0.5zM1049 197q-117 -135 -248 -293q-182 2 -420 10q-140 127 -279 301
q-6 470 -26 1040q12 20 35 54.5t93 126t140 166.5q254 -6 504 0q137 -174 272 -371q-48 -550 -71 -1034z" />
    <glyph glyph-name="cid1019" unicode="&#x399;" horiz-adv-x="485" 
d="M391 -70q-145 2 -299 0q-8 846 -33 1669q166 1 367 5q-35 -892 -35 -1674z" />
    <glyph glyph-name="cid1020" unicode="&#x39a;" horiz-adv-x="1019" 
d="M934 -84l-336 14l-180 295l-4 -293q-67 -4 -136.5 -7t-105.5 -4l-37 -1q-8 288 -22 708t-25 696l-10 275q78 -1 162.5 1t129.5 4l46 2q-5 -147 -4 -245.5t4 -148.5l4 -51q129 181 256 410q117 -55 260 -135q-116 -175 -239 -365t-188 -293l-65 -102q154 -262 295 -461
l207 25q0 -75 -3 -156t-6 -124z" />
    <glyph glyph-name="cid1021" unicode="&#x39b;" horiz-adv-x="1417" 
d="M995 -72q-194 753 -303 1274q-137 -646 -264 -1268h-356q221 856 405 1655q233 4 434 -6q201 -835 432 -1630q-155 -17 -348 -25z" />
    <glyph glyph-name="cid1022" unicode="&#x39c;" horiz-adv-x="1355" 
d="M416 1606q56 -277 120 -554t100 -416l36 -138q56 245 124 522.5t108 432.5l40 155q93 -5 170 -11.5t108 -10.5l31 -3q-6 -420 -6.5 -835.5t1.5 -620.5l3 -205l-276 4q1 184 -1 390.5t-4 321.5l-3 114l-160 -588q-48 -1 -117.5 0.5t-114.5 3.5l-45 2q-36 140 -75.5 284.5
t-60.5 219.5l-21 74q3 -197 2.5 -379.5t-2.5 -312.5l-2 -130q-57 -2 -108 -3.5t-82.5 -2t-55 -0.5h-33.5h-10q7 388 10.5 803.5t3.5 637.5v222q78 8 158 13.5t121 7.5z" />
    <glyph glyph-name="cid1023" unicode="&#x39d;" horiz-adv-x="1153" 
d="M766 487q4 522 16 1123q146 -2 312 -8q-39 -812 -76 -1678q-118 -4 -270 -8q-209 507 -361 899q25 -423 39 -895q-154 4 -328 6q-12 748 -18 1678q109 0 285 6q208 -626 401 -1123z" />
    <glyph glyph-name="cid1024" unicode="&#x39e;" horiz-adv-x="1218" 
d="M139 1597q46 -1 126 -2t338.5 -3t492.5 1q-7 -178 -11 -311q-415 -2 -938 -10q-4 198 -8 325zM139 936q46 -1 126 -1.5t338.5 -1.5t492.5 1q-7 -180 -11 -311q-415 -3 -938 -13q-4 201 -8 326zM139 262q46 -1 126 -2t338.5 -3t492.5 1q-7 -178 -11 -309q-415 -2 -938 -10
q-4 196 -8 323z" />
    <glyph glyph-name="cid1025" unicode="&#x39f;" horiz-adv-x="1089" 
d="M377 1239q10 -591 14 -1024q74 -2 283 -6q2 62 6 166.5t9.5 375.5t4.5 480q-16 1 -44 3t-111 4.5t-162 0.5zM942 197q-117 -135 -250 -293q-73 2 -311 10q-140 127 -279 301q-6 470 -26 1040q12 20 35 54.5t93 126t140 166.5q145 -6 397 0q138 -174 271 -371
q-47 -550 -70 -1034z" />
    <glyph glyph-name="cid1026" unicode="&#x3a0;" horiz-adv-x="1126" 
d="M78 1589l989 -10l-35 -1632q-155 -4 -309 -10q31 746 35 1335l-355 2l13 -1337l-324 -9q0 119 -6.5 845t-7.5 816z" />
    <glyph glyph-name="cid1027" unicode="&#x3a1;" horiz-adv-x="1093" 
d="M395 1296l-2 -749q64 -2 128.5 -0.5t113.5 3.5l49 3l35 745zM946 508q-57 -50 -123.5 -103.5t-104.5 -81.5l-38 -28q-68 2 -139.5 5.5t-109.5 5.5l-38 3q-4 -199 -4 -387q-116 2 -266 2q-29 868 -49 1669l667 21q68 -68 141.5 -144.5t113.5 -119.5l40 -43
q-21 -203 -43.5 -403t-34.5 -298z" />
    <glyph glyph-name="cid1028" unicode="&#x3a3;" horiz-adv-x="1107" 
d="M74 -66l2 289q242 275 432 508q-151 239 -408 551q-6 148 -16 322q355 -2 952 -2l-2 -299q-29 -1 -79.5 -2t-211 -3t-299.5 2q173 -247 349 -483q1 -13 2.5 -33t3.5 -80t-2 -100l-247 -270q-51 -56 -101 -109l567 -2q2 -121 6 -301q-45 2 -126 4t-329 5.5t-493 2.5z" />
    <glyph glyph-name="cid1029" unicode="&#x3a4;" horiz-adv-x="1073" 
d="M383 -78q2 626 -16 1297q-107 -5 -281 -11q-12 199 -20 383l940 13l-19 -381l-297 2q-17 -661 -33 -1297q-137 -2 -274 -6z" />
    <glyph glyph-name="cid1030" unicode="&#x3a5;" horiz-adv-x="1148" 
d="M748 338l-9 -422h-344q3 119 3 215.5t-2 157.5l-3 61q-162 651 -338 1258q189 2 334 12q121 -550 195 -926q113 517 213 928q154 -4 301 -6q-215 -798 -350 -1278z" />
    <glyph glyph-name="cid1031" unicode="&#x3a6;" horiz-adv-x="1292" 
d="M803 1602q-4 -132 -4 -218l213 -2q46 -43 104 -108t92 -108l35 -44l-45 -733q-52 -49 -112 -109t-94 -95l-34 -35h-182l-6 -234q-139 -4 -250 2q2 123 -2 227l-196 -2q-59 52 -125 116.5t-102 102.5l-36 39q-6 178 -10.5 356t-6.5 267l-1 88q51 65 107 133t86 103l30 36
q53 -3 110.5 -4t88.5 0h31l-7 222q70 2 149 2t123 -1zM784 1102l-10 -686l195 -8l24 692q-111 -2 -209 2zM514 416q0 187 -3.5 360t-6.5 252l-4 80l-191 4q-3 -199 -2.5 -353.5t2.5 -248.5l2 -94h203z" />
    <glyph glyph-name="cid1032" unicode="&#x3a7;" horiz-adv-x="993" 
d="M911 -59l-288 -29l-142 461l-125 -469l-293 30q71 200 141 407.5t104 314.5l34 108q-137 431 -262 809l336 37q16 -91 39 -193.5t38 -159.5l15 -57q76 224 117 404l305 -35q-72 -185 -148.5 -386t-116.5 -310l-40 -109q128 -394 286 -823z" />
    <glyph glyph-name="cid1033" unicode="&#x3a8;" horiz-adv-x="1419" 
d="M838 1618q-9 -515 -21 -1040h201q27 478 41 1042q148 -8 293 -12l-78 -1069q-143 -137 -260 -256l-201 2l-10 -365q-47 -2 -102 -2t-86 1l-31 1q0 183 -6 361l-224 -5q-121 132 -250 277q-16 455 -45 1075q137 -2 293 -4q0 -544 4 -1032q105 -4 209 -8q2 278 0.5 509
t-5.5 381l-3 150z" />
    <glyph glyph-name="cid1034" unicode="&#x3a9;" horiz-adv-x="1470" 
d="M1368 238q-9 -184 -25 -297q-315 6 -516 14q-14 158 -32 285l301 438q-14 92 -45 246t-55 262l-25 108q-23 1 -63 2t-158.5 2t-229.5 0q-86 -271 -149 -630q154 -231 295 -426l-19 -291l-518 -8l-25 284l295 2q-70 69 -156.5 170t-138.5 167l-51 67l142 704
q177 148 337 275q202 2 431 2q163 -141 333 -297q37 -290 119 -692q-19 -27 -51.5 -71t-121.5 -149.5t-165 -173.5q148 3 291 7z" />
    <glyph glyph-name="cid472" unicode="&#x3aa;" horiz-adv-x="761" 
d="M297 2028q0 -65 -2.5 -134t-4.5 -105l-3 -36l-250 4l-6 277q38 -2 79 -3.5t73 -2t58.5 -0.5h40.5h15zM725 2028l-10 -275l-250 4l-6 277q41 -2 83 -3.5t73.5 -2t57 -0.5h39.5h13zM504 -80l-248 -2q-5 858 -23 1679h314q-23 -805 -43 -1677z" />
    <glyph glyph-name="cid473" unicode="&#x3ab;" horiz-adv-x="1116" 
d="M481 2028q0 -65 -2.5 -134t-4.5 -105l-3 -36l-250 4l-6 277q38 -2 79 -3.5t73 -2t58.5 -0.5h40.5h15zM909 2028l-10 -275l-250 4l-6 277q41 -2 83 -3.5t73.5 -2t57 -0.5h39.5h13zM700 338q-4 -100 -6.5 -205.5t-3.5 -160.5v-56h-303q3 119 3 215.5t-2 157.5l-3 61
q-162 651 -338 1258q168 2 313 12q121 -550 197 -926q111 517 211 928q134 -4 281 -6q-216 -798 -349 -1278z" />
    <glyph glyph-name="cid474" unicode="&#x3ac;" horiz-adv-x="1280" 
d="M793 1280l-211 -2l-25 340l248 12zM1055 1044l209 -192q-86 -94 -181.5 -201.5t-148.5 -168.5l-53 -60q118 -148 118 -150q92 -18 201 -28l-63 -283q-46 9 -105.5 23.5t-95.5 25.5l-37 10l-162 185q-338 -227 -442 -293q-112 90 -225 201q-2 177 -8 375t-12 308l-5 109
q65 69 129.5 133.5t96.5 94.5l32 30q84 -16 182 -37.5t155 -35.5l56 -13l105 -377q60 76 123.5 162t97.5 134zM326 227l301 252q-26 88 -56 172.5t-47 124.5l-16 41l-199 53z" />
    <glyph glyph-name="cid475" unicode="&#x3ad;" horiz-adv-x="1050" 
d="M625 1280l-213 -2l-23 340l248 12zM834 750q-47 51 -99.5 92t-80.5 56l-29 15q-274 -2 -263 -12l-8 -217l303 4q2 -50 2 -120t-1 -115l-1 -45q-58 0 -133.5 3t-121.5 6l-46 3l-14 -227l283 -23q43 38 99.5 82.5t91.5 69.5l36 26q39 -60 73 -126t48 -102l14 -36
q-59 -45 -133 -90t-118 -68l-44 -22q-122 5 -216 15.5t-128 18.5l-33 7q-58 56 -119 120.5t-92 100.5l-32 37q-2 75 -0.5 124.5t4.5 74.5l2 24l174 127q-38 24 -86 61.5t-76 62.5l-29 25q4 64 9 126.5t8 93.5l4 30q53 43 120.5 100.5t108.5 93.5l41 36q116 4 205 10t121 10
l31 4q63 -48 137 -97.5t117 -74.5l43 -26q-34 -59 -77 -123.5t-69 -99.5z" />
    <glyph glyph-name="cid476" unicode="&#x3ae;" horiz-adv-x="1132" 
d="M686 1280l-213 -2l-22 340l247 12zM315 1059q64 57 134 123l329 -2q156 -107 297 -246q-6 -252 -7 -605.5t1 -581.5l2 -228q-149 -2 -323 4q14 968 16 1358q-129 0 -287 -2q-4 -546 0 -965q-161 2 -323 10q10 197 16 449t7 405l1 154q-24 5 -58 15.5t-56 18.5l-21 7v213
q57 -4 114 -6.5t85 -3.5h28z" />
    <glyph glyph-name="cid477" unicode="&#x3af;" horiz-adv-x="675" 
d="M342 1280l-211 -2l-25 340l248 12zM637 -76l-270 4q-53 46 -123 103.5t-114 92.5l-44 34q0 193 -2 449t-4 415l-2 160h317q-2 -67 -3.5 -169.5t-4 -391t3.5 -435.5q66 -4 240 2q6 -141 6 -264z" />
    <glyph glyph-name="cid478" unicode="&#x3b0;" horiz-adv-x="1007" 
d="M625 1690l-213 -2l-23 340l248 12zM438 1591l-8 -274q-60 -2 -116 -1.5t-96 2.5l-40 1l-6 276q63 1 129.5 0t101.5 -3zM866 1591q0 -65 -2 -133.5t-4 -104.5l-2 -36q-61 -3 -117 -2.5t-95 2.5l-40 2l-6 276q60 1 126.5 0t103.5 -3zM70 1165l292 4l5 -989l276 8
q1 193 -0.5 438t-3.5 394l-2 149h301q-5 -250 -7.5 -498.5t-2.5 -371.5v-123q-57 -58 -124.5 -124.5t-105.5 -103.5l-39 -38q-51 -1 -119.5 0t-111.5 2l-43 2q-68 52 -145 116.5t-120 103.5l-44 38q-6 572 -6 993z" />
    <glyph glyph-name="cid1035" unicode="&#x3b1;" horiz-adv-x="1280" 
d="M1055 1044l209 -192q-57 -52 -126 -128.5t-154.5 -179.5t-102.5 -122q118 -148 118 -150q92 -18 201 -28l-63 -283q-46 9 -105.5 23.5t-95.5 25.5l-37 10l-162 185q-338 -227 -442 -293q-112 90 -225 201q-2 175 -8 373t-12 308l-5 111q65 69 129.5 133.5t96.5 94.5
l32 30q84 -16 182 -37.5t155 -35.5l56 -13l105 -377q60 76 123.5 162t97.5 134zM326 227l301 252q-26 88 -56 172.5t-47 124.5l-16 41l-199 53z" />
    <glyph glyph-name="cid1036" unicode="&#x3b2;" horiz-adv-x="1093" 
d="M715 631q47 -18 112.5 -40.5t107.5 -36.5l42 -13q4 -102 12 -215t15 -176l6 -62l-303 -233q-345 184 -349 186q-1 -65 -0.5 -239t-1.5 -314q-56 -3 -128 -3t-116 1l-44 2q1 402 -2 889.5t-6 774.5l-3 286q128 55 275 109t230 81l83 27q70 -58 153 -130.5t131 -115.5
l48 -43l-62 -668q-6 -2 -45.5 -17t-79 -28t-75.5 -22zM360 248q169 -63 353 -129q-2 79 -6 157.5t-7 117.5l-4 38l-198 107l-54 168q41 22 84.5 48t66.5 41l23 15l37 526l-295 -104q-8 -431 0 -985z" />
    <glyph glyph-name="cid1037" unicode="&#x3b3;" horiz-adv-x="1247" 
d="M573 -100q-82 429 -182 848q-64 59 -158 133h-190q29 168 49 309q151 -6 270 -8q72 -83 144 -161t108 -115l35 -36q15 -113 64 -419q36 151 178 770q182 -11 323 -27q-255 -839 -366 -1276l12 -424q-68 -2 -143.5 -2t-117.5 1l-42 1z" />
    <glyph glyph-name="cid1038" unicode="&#x3b4;" horiz-adv-x="1155" 
d="M162 131l-72 506q162 215 299 387q-65 54 -150.5 120t-138.5 105l-53 39q43 164 82 289q434 20 922 43q2 -170 8 -324q-386 9 -664 15q320 -215 647 -432q15 -49 31.5 -110.5t25.5 -100t7 -35.5q-80 -320 -152 -570q-137 -81 -252 -153q-120 -4 -274 -4
q-155 123 -266 225zM358 561q10 -77 28 -177t31 -161l13 -61q129 -2 295 6q53 208 123 504q-59 53 -126 106.5t-104 81.5l-38 27q-113 -156 -222 -326z" />
    <glyph glyph-name="cid1039" unicode="&#x3b5;" horiz-adv-x="1050" 
d="M834 750q-47 51 -99.5 92t-80.5 56l-29 15q-274 -2 -263 -12l-8 -217l303 4q2 -50 2 -120t-1 -115l-1 -45q-58 0 -133.5 3t-121.5 6l-46 3l-14 -227l283 -23q43 38 99.5 82.5t91.5 69.5l36 26q39 -60 73 -126t48 -102l14 -36q-59 -45 -133 -90t-118 -68l-44 -22
q-122 5 -216 15.5t-128 18.5l-33 7q-58 56 -119 120.5t-92 100.5l-32 37q-2 75 -0.5 124.5t4.5 74.5l2 24l174 127q-38 24 -86 61.5t-76 62.5l-29 25q4 64 9 126.5t8 93.5l4 30q53 43 120.5 100.5t108.5 93.5l41 36q116 4 205 10t121 10l31 4q63 -48 137 -97.5t117 -74.5
l43 -26q-34 -59 -77 -123.5t-69 -99.5z" />
    <glyph glyph-name="cid1040" unicode="&#x3b6;" horiz-adv-x="1329" 
d="M211 1618q42 -1 116.5 -2t320.5 -3t482 1q45 -168 72 -303q0 -2 -130 -133.5t-335.5 -347t-351.5 -381.5l25 -295l368 155q176 -88 336 -178l107 -430q-315 -160 -582 -287q-73 138 -141 285q212 84 372 154q-12 61 -32 141q-199 -68 -332 -123q-193 66 -377 117
q-33 179 -72 512q413 478 674 792q-41 -1 -243 -5t-271 -5q-2 209 -6 336z" />
    <glyph glyph-name="cid1041" unicode="&#x3b7;" horiz-adv-x="1132" 
d="M315 1059q64 57 134 123l329 -2q136 -107 277 -246q-6 -252 -12.5 -605.5t-9.5 -581.5l-3 -228q-108 -2 -282 4q14 968 16 1358q-129 0 -287 -2q-4 -546 0 -965q-161 2 -323 10q10 197 16 449t7 405l1 154q-24 5 -58 15.5t-56 18.5l-21 7v213q57 -4 114 -6.5t85 -3.5h28z
" />
    <glyph glyph-name="cid1042" unicode="&#x3b8;" horiz-adv-x="1048" 
d="M356 1239q2 -158 6 -371q158 0 330 -8q2 123 2 371q-18 1 -49.5 3t-120.5 4.5t-168 0.5zM367 569q1 -59 2 -178t2 -176q94 -2 303 -6q6 149 12 362q-88 -2 -319 -2zM901 197q-96 -135 -229 -293q-53 2 -291 10q-119 127 -258 301q-7 470 -27 1040q10 20 29.5 54.5t84 126
t134.5 166.5q125 -6 377 0q117 -174 250 -371q-47 -550 -70 -1034z" />
    <glyph glyph-name="cid1043" unicode="&#x3b9;" horiz-adv-x="675" 
d="M637 -76l-311 4l-240 209l-8 1045h317q-2 -67 -3.5 -169.5t-4 -391t3.5 -435.5q66 -4 240 2q6 -141 6 -264z" />
    <glyph glyph-name="cid1044" unicode="&#x3ba;" horiz-adv-x="1034" 
d="M981 78q-131 -96 -254 -162q-154 249 -295 446q-57 -63 -80 -106q-4 -256 0 -338q-17 1 -44.5 1.5t-105.5 1.5t-124 -1q-3 266 -12 583t-17 501l-8 184q149 -2 313 6q4 -383 4 -606l344 592q52 -23 122.5 -51.5t115.5 -46.5l45 -17q-187 -284 -326 -526
q62 -98 142.5 -213.5t130.5 -181.5z" />
    <glyph glyph-name="cid1045" unicode="&#x3bb;" horiz-adv-x="1251" 
d="M621 211q-33 145 -70 387q-21 -86 -95 -312.5t-120 -381.5q-139 4 -301 6q217 603 381 1087q-8 115 -33 226q-63 65 -135 133h-189q37 145 70 268q137 -6 268 -8q125 -130 252 -277q113 -523 209 -1026q76 -67 156 -133q96 -4 190 0q-16 -131 -49 -266q-137 4 -268 8z
" />
    <glyph glyph-name="cid1046" unicode="&#x3bc;" horiz-adv-x="1105" 
d="M375 -82l-10 -432l-248 -2q3 431 -11 975l-22 688q150 2 324 -4q-17 -607 -17 -930q108 0 266 2q4 464 0 885q162 -2 324 -10q-10 -198 -26.5 -430t-28.5 -365l-11 -133q24 -9 58 -19t56 -16l22 -6l-62 -211l-125 31q-17 24 -38 47.5t-34 35.5l-12 11q-65 -55 -135 -121
l-268 2z" />
    <glyph glyph-name="cid1047" unicode="&#x3bd;" horiz-adv-x="1048" 
d="M547 233q37 204 74 433t55 356l18 127q65 -5 139 -13.5t115 -13.5l41 -6q-64 -294 -136 -593t-111 -451l-40 -152q-75 1 -154.5 0t-121.5 -2l-43 -2q-70 288 -145.5 581.5t-115.5 442.5l-40 150q60 13 139.5 27.5t128.5 22.5l49 9q27 -187 64 -416t61 -365z" />
    <glyph glyph-name="cid1048" unicode="&#x3be;" horiz-adv-x="1351" 
d="M936 608q-1 -2 -36.5 4.5t-110 17t-148.5 13.5l-223 -207l39 -282l389 155q184 -94 336 -178q23 -101 44.5 -203.5t31.5 -154.5l10 -52q-389 -200 -582 -286q-58 129 -121 264q213 84 373 154q-4 65 -31 141q-223 -74 -334 -123q-155 50 -331 111q-100 298 -170 501
q3 2 44.5 38t126 109.5t156.5 135.5q-62 46 -125 90t-95 65l-32 21v264l248 121q-239 -8 -323 -10q-5 153 -9 280q66 -1 179 -2t418 -2t557 0q2 0 2.5 -66.5t0.5 -132.5l-1 -67q-391 -105 -740 -197q1 -24 -1.5 -68t-5.5 -76l-3 -32q118 -16 247 -31t199 -21l70 -7
q-18 -158 -49 -287z" />
    <glyph glyph-name="cid1049" unicode="&#x3bf;" horiz-adv-x="974" 
d="M350 893q9 -372 17 -758q122 -10 235 -12q11 355 23 772q-164 2 -275 -2zM858 109q-129 -99 -258 -199h-238q-131 90 -262 213q-23 359 -37 784q121 131 238 240q144 10 334 22q145 -125 268 -266q-10 -107 -17.5 -231t-11.5 -220t-6.5 -178t-4.5 -125t-5 -40z" />
    <glyph glyph-name="cid1050" unicode="&#x3c0;" horiz-adv-x="1482" 
d="M494 -100q-53 0 -122 3.5t-112 6.5l-43 4l105 260q41 365 45 696q-176 -6 -287 -8l-21 307q656 2 1325 -10l-8 -282l-295 2q-4 -382 -14 -713q133 12 295 22q1 -16 2.5 -44t4 -98t1.5 -122l-305 4l-260 189l-4 764l-150 -2q-37 -444 -76 -742q-36 -137 -81 -237z" />
    <glyph glyph-name="cid1051" unicode="&#x3c1;" horiz-adv-x="1019" 
d="M406 899q-5 -361 -9 -698h228l24 678q-56 6 -116.5 11t-93.5 7zM696 1171l250 -270q-11 -171 -25 -349t-22 -270l-8 -92q-48 -58 -111.5 -118.5t-103.5 -91.5l-39 -31l-254 -10l-2 -451h-264q-2 494 -25 1391q42 64 93.5 135.5t82.5 111.5l31 39z" />
    <glyph glyph-name="cid479" unicode="&#x3c2;" horiz-adv-x="1087" 
d="M397 -68q-149 111 -276 213q-14 321 -45 721q127 127 268 252q172 27 418 56q143 -120 307 -259q-108 -99 -225 -210q-74 78 -170 174q-131 -21 -299 -52q8 -301 26 -626q144 10 304 30q138 -135 296 -274q1 3 -18.5 -57t-50 -150t-53.5 -151l-55 -15
q-55 -15 -148.5 -39.5t-171.5 -42.5l-162 250q178 11 311 23q11 58 31 164q-156 -1 -287 -7z" />
    <glyph glyph-name="cid1052" unicode="&#x3c3;" horiz-adv-x="1157" 
d="M354 879q-2 -436 21 -678q182 4 307 4v682q-65 0 -147 -2t-131 -4zM82 156q6 641 6 829q142 92 287 186q181 0 362.5 -6t272.5 -12l90 -6v-244q-8 -1 -22 -1.5t-56.5 -1.5t-75.5 1q-2 -558 -10 -708q-13 -16 -35 -43.5t-86.5 -94.5t-122.5 -114l-9 -1q-9 -1 -26 -2
t-39.5 -2.5l-52.5 -3.5t-62.5 -3t-72 -2t-78.5 -1q-139 109 -270 230z" />
    <glyph glyph-name="cid1053" unicode="&#x3c4;" horiz-adv-x="841" 
d="M766 -96l-277 4l-239 168l-4 825l-191 -2l-2 275l717 -3l-8 -282l-215 10q-4 -423 -12 -754q92 9 225 23q4 -139 6 -264z" />
    <glyph glyph-name="cid1054" unicode="&#x3c5;" horiz-adv-x="1046" 
d="M90 1165l293 4l4 -989l277 8q1 193 -1 438t-4 394l-2 149h301q-5 -250 -7.5 -498.5t-2.5 -371.5v-123l-268 -266q-51 -1 -119.5 0t-111.5 2l-43 2q-68 52 -145.5 116.5t-120.5 103.5l-44 38q-6 572 -6 993z" />
    <glyph glyph-name="cid1055" unicode="&#x3c6;" horiz-adv-x="1368" 
d="M844 1567q-4 -303 -4 -389l192 -4q46 -43 109 -107.5t103 -108.5l40 -43l-45 -692q-52 -49 -117 -108.5t-104 -94.5l-39 -34l-162 -2l-6 -480q-139 -4 -250 2q2 372 -2 476l-176 -2q-59 51 -124.5 115t-101.5 103l-36 38l-19 669q51 65 107 133t87 103l30 35l209 -5
l-7 396q70 2 149 2t123 -1zM825 895l-10 -645l174 -8l25 651q-91 -2 -189 2zM555 248q0 188 -3.5 351t-7.5 233l-3 69l-170 4q-3 -197 -2.5 -342.5t2.5 -228.5l2 -84z" />
    <glyph glyph-name="cid1056" unicode="&#x3c7;" horiz-adv-x="1216" 
d="M682 201l86 -260q86 -101 152 -164q102 -2 225 -4q-7 -141 -19 -297q-206 29 -335 49q-101 149 -207 299l-156 -361q-62 4 -131.5 10t-108.5 11l-38 4q58 142 174.5 422t162.5 395q-18 111 -40.5 229t-36.5 180l-13 62q-63 59 -159 131q-95 4 -189 -2q15 142 25 271
q159 -5 268 -7q135 -131 270 -268q7 -56 23 -158l180 445q63 -9 139 -23.5t121 -24.5l45 -10q-106 -220 -215.5 -452t-166.5 -354z" />
    <glyph glyph-name="cid1057" unicode="&#x3c8;" horiz-adv-x="1445" 
d="M858 1155q-8 -388 -20 -915h200q27 353 41 917q148 -8 293 -12l-78 -942q-143 -137 -260 -254l-200 2l-11 -473q-47 -2 -102 -2t-86 1l-31 1q0 288 -6 467l-223 -2q-121 129 -250 274q-16 328 -45 948q137 -2 293 -4q0 -416 4 -907q105 -4 209 -8q2 274 0.5 477.5
t-4.5 320.5l-4 117z" />
    <glyph glyph-name="cid1058" unicode="&#x3c9;" horiz-adv-x="1695" 
d="M596 985q-58 -54 -116.5 -113t-87.5 -92l-30 -32q1 -140 4.5 -273t7.5 -197l3 -63q78 -3 148.5 -0.5t119.5 7.5l49 5l-4 441q56 2 130 2t120 -1l45 -1q0 -68 -3 -178t-6 -186l-3 -77q95 -5 177.5 -13.5t117.5 -14.5l35 -6q12 140 17.5 278.5t5.5 207.5l-1 69
q-44 48 -106 112.5t-102 105.5l-40 40q68 44 143 82.5t116 54.5l40 16q53 -68 111 -152t89 -134l32 -50q-6 -139 -17.5 -305t-19.5 -262l-8 -96q-64 -67 -132.5 -130t-105.5 -92l-37 -30q-76 -2 -156.5 0t-123.5 5l-43 3q-33 45 -69.5 88t-56.5 64l-20 20
q-27 -43 -63.5 -90.5t-59.5 -73.5l-22 -26l-357 22q-48 59 -101.5 130t-82.5 112l-29 41l-30 639q56 72 113 157t87 134l29 49q67 -39 140 -88.5t113 -79.5z" />
    <glyph glyph-name="cid480" unicode="&#x3ca;" horiz-adv-x="845" 
d="M338 1563q0 -65 -2.5 -134t-5.5 -105l-2 -36l-250 2l-6 277q60 -3 126.5 -4t103.5 -1zM766 1563l-10 -275l-250 2l-6 277q64 -3 130.5 -4t101.5 -1zM817 -76l-270 4q-53 46 -123 103.5t-114 92.5l-44 34q0 193 -2.5 449t-5.5 415l-2 160h317q-2 -67 -3.5 -169.5t-4 -391
t3.5 -435.5q68 -4 242 2q6 -141 6 -264z" />
    <glyph glyph-name="cid481" unicode="&#x3cb;" horiz-adv-x="1001" 
d="M420 1563q0 -65 -2.5 -134t-5.5 -105l-2 -36l-250 2l-6 277q60 -3 126.5 -4t103.5 -1zM848 1563l-10 -275l-250 2l-6 277q64 -3 130.5 -4t101.5 -1zM70 1165l292 4l5 -989l276 8q1 193 -0.5 438t-3.5 394l-2 149h301q-5 -250 -7.5 -498.5t-2.5 -371.5v-123
q-57 -58 -124.5 -124.5t-105.5 -103.5l-39 -38q-51 -1 -119.5 0t-111.5 2l-43 2q-68 52 -145 116.5t-120 103.5l-44 38q-6 572 -6 993z" />
    <glyph glyph-name="cid482" unicode="&#x3cc;" horiz-adv-x="940" 
d="M584 1280l-213 -2l-23 340l248 12zM350 893q9 -372 17 -758q122 -10 235 -12q11 355 23 772q-164 2 -275 -2zM858 109q-129 -99 -258 -199h-238q-131 90 -262 213q-23 359 -37 784q121 131 238 240q144 10 334 22q145 -125 268 -266q-10 -107 -17.5 -231t-11.5 -220
t-6.5 -178t-4.5 -125t-5 -40z" />
    <glyph glyph-name="cid483" unicode="&#x3cd;" horiz-adv-x="972" 
d="M582 1280l-211 -2l-23 340l248 12q-2 -84 -5.5 -171.5t-6.5 -132.5zM49 1145l293 4l4 -969l277 8q1 193 -1 433t-4 384l-2 144h302q-6 -250 -9.5 -493.5t-3.5 -361.5v-118q-56 -58 -122.5 -124.5t-104.5 -103.5l-39 -38q-51 -1 -119.5 0t-111.5 2l-43 2
q-68 52 -145.5 116.5t-121.5 103.5l-43 38q-6 552 -6 973z" />
    <glyph glyph-name="cid484" unicode="&#x3ce;" horiz-adv-x="1695" 
d="M936 1280l-211 -2l-25 340l248 12zM596 985q-58 -54 -116.5 -113t-87.5 -92l-30 -32q1 -140 4.5 -273t7.5 -197l3 -63q67 -4 146 -6t125 -2h46l-4 461q56 2 130 2t120 -1l45 -1q0 -68 -3 -183t-6 -197l-3 -81l330 -14q12 140 17.5 278.5t5.5 207.5l-1 69
q-44 48 -106 112.5t-102 105.5l-40 40q68 44 143 82.5t116 54.5l40 16q53 -68 111 -152t89 -134l32 -50q-6 -139 -17.5 -305t-19.5 -262l-8 -96q-64 -67 -132.5 -130t-105.5 -92l-37 -30q-76 -2 -156.5 0t-123.5 5l-43 3q-33 45 -69.5 88t-56.5 64l-20 20
q-27 -43 -63.5 -90.5t-59.5 -73.5l-22 -26l-357 22q-48 59 -101.5 130t-82.5 112l-29 41l-30 639q56 72 113 157t87 134l29 49q67 -39 140 -88.5t113 -79.5z" />
    <glyph glyph-name="cid486" unicode="&#x401;" horiz-adv-x="958" 
d="M399 2028q0 -65 -2.5 -134t-4.5 -105l-3 -36l-250 4l-6 277q38 -2 79 -3.5t73 -2t58.5 -0.5h40.5h15zM827 2028l-10 -275l-250 4l-6 277q41 -2 83 -3.5t73.5 -2t57 -0.5h39.5h13zM791 788l12 -301l-418 -24q4 -158 10 -242q227 9 498 29q-4 -166 -8 -324
q-168 -4 -350 -4.5t-281 0.5l-98 2q-33 764 -99 1659l848 14q-8 -178 -18 -352q-298 15 -527 29q2 -128 5.5 -264.5t6.5 -208.5l3 -72q176 22 416 59z" />
    <glyph glyph-name="cid1059" unicode="&#x410;" horiz-adv-x="1447" 
d="M1055 -51q-27 124 -99 321q-55 -1 -235.5 -14.5t-294.5 -15.5q-30 -121 -61 -285h-291q242 815 424 1614q235 12 411 14q201 -793 451 -1610q-76 -10 -305 -24zM913 504q-15 65 -52.5 229.5t-55.5 243t-45.5 187.5t-48.5 182q-119 -425 -219 -832q183 -7 421 -10z" />
    <glyph glyph-name="cid1060" unicode="&#x411;" horiz-adv-x="1013" 
d="M43 1597l881 7v-263q-355 -12 -580 -18q12 -234 12 -414l301 9q65 -49 137.5 -109t111.5 -95l40 -36l-59 -514q-43 -44 -97.5 -98t-87.5 -86l-34 -31l-533 4zM647 182l15 465l-300 2l9 -469z" />
    <glyph glyph-name="cid1061" unicode="&#x412;" horiz-adv-x="1042" 
d="M655 434q-55 4 -117 6t-97 2h-35q2 -180 10 -280q108 0 235 6q2 127 4 266zM635 700q17 309 33 607q-158 2 -295 0q4 -138 11.5 -291t13.5 -236l5 -84q132 0 232 4zM936 123q-127 -92 -258 -203q-232 4 -514 6q-61 878 -96 1641q299 27 624 39q137 -138 295 -283
q-47 -332 -82 -614q-39 -30 -83.5 -59t-69.5 -42l-25 -14q86 -41 225 -94q-14 -215 -16 -377z" />
    <glyph glyph-name="cid1062" unicode="&#x413;" horiz-adv-x="927" 
d="M86 1575q168 -2 364.5 -2t309.5 1l112 1l-16 -307q-76 4 -201.5 7t-212.5 4l-88 1q-2 -322 -0.5 -621.5t4.5 -512.5l4 -214q-91 1 -161.5 0t-95.5 -2l-25 -2z" />
    <glyph glyph-name="cid1063" unicode="&#x414;" horiz-adv-x="1447" 
d="M1389 186l-41 -516h-293q4 92 8 246q-543 6 -709 0q2 -50 5.5 -107.5t6.5 -89.5l3 -32q-59 -3 -137 -3t-126 2l-49 1l-6 530l195 2q84 248 147 451q23 379 43 886q386 -2 809 -8q6 -932 0 -1355zM520 209q29 -1 78 -3t172 -5t213 -2q8 546 8 1071q-215 6 -317 6
q-5 -136 -14 -299t-15 -259l-6 -95q-28 -87 -57.5 -190.5t-45.5 -163.5z" />
    <glyph glyph-name="cid1064" unicode="&#x415;" horiz-adv-x="958" 
d="M791 788l12 -301l-418 -24q4 -158 10 -242q227 9 498 29q-4 -166 -8 -324q-168 -4 -350 -4.5t-281 0.5l-98 2q-33 764 -99 1659l848 14q-8 -178 -18 -352q-298 15 -527 29q2 -128 5.5 -264.5t6.5 -208.5l3 -72q176 22 416 59z" />
    <glyph glyph-name="cid1066" unicode="&#x416;" horiz-adv-x="1525" 
d="M279 1286l-164 -6q-7 137 -11 301q18 1 47 2t117 2t152 -2q139 -356 233 -598q2 442 -4 614q16 -1 41.5 -1.5t99.5 -1.5t121 1l-22 -612q43 112 97 261.5t87 243.5l33 93l336 -2l-10 -301q-52 0 -99 1.5t-67 2.5l-21 2q-117 -305 -205 -536q96 -180 198 -368t156 -286
l54 -98q-147 -66 -301 -115q-107 264 -246 576q3 -162 8 -298t9 -191l4 -54q-154 2 -318 -6q15 185 21 549l-246 -576q-65 21 -141 49.5t-119 47.5l-43 18q221 376 407 752z" />
    <glyph glyph-name="cid1067" unicode="&#x417;" horiz-adv-x="1044" 
d="M223 1143q-96 125 -172 256q156 89 297 200q98 -14 357 -26q151 -131 270 -227q12 -333 20 -478q-104 -94 -190 -149q82 -61 174 -127q-6 -244 6 -451q-113 -112 -244 -237q-151 -15 -376 -21q-162 99 -295 201q88 121 180 240q96 -90 182 -174q133 2 283 2
q-5 248 -15 434q-170 -13 -301 -13q-4 168 0 281q151 -2 303 -4q-2 311 -8 444q-119 5 -262 11q-107 -74 -209 -162z" />
    <glyph glyph-name="cid1068" unicode="&#x418;" horiz-adv-x="1153" 
d="M369 487q86 221 191.5 502t167.5 451l63 170l284 -6q-3 -414 -7.5 -833.5t-7.5 -632.5l-3 -212l-328 -6q6 210 16 434t17 342l6 119q-68 -175 -168 -399.5t-166 -361.5l-67 -138l-271 8q-7 388 -10.5 807.5t-3.5 644.5v226l311 8q3 -271 -3 -552t-14 -426z" />
    <glyph glyph-name="cid1069" unicode="&#x419;" horiz-adv-x="1153" 
d="M1055 1849q-144 -67 -312 -153q-198 2 -356 8q-135 90 -254 178q74 93 156 189q53 -45 176 -121q110 -2 235 -4q93 71 189 141q74 -111 166 -238zM369 487q86 221 191.5 502t167.5 451l63 170l284 -6q-3 -414 -7.5 -833.5t-7.5 -632.5l-3 -212l-328 -6q6 210 16 434
t17 342l6 119q-68 -175 -168 -399.5t-166 -361.5l-67 -138l-271 8q-7 388 -10.5 807.5t-3.5 644.5v226l311 8q3 -271 -3 -552t-14 -426z" />
    <glyph glyph-name="cid1070" unicode="&#x41a;" horiz-adv-x="1052" 
d="M971 1280q-53 -4 -99.5 -3t-77.5 5l-32 4q-146 -213 -252 -389q84 -227 179.5 -460.5t149.5 -353.5l54 -120q-168 -19 -322 -33q-91 286 -200 623q3 -162 8 -316t9 -227l3 -73q-82 4 -161 5.5t-118 1.5l-38 -1q7 352 9 765.5t1 651.5l-2 237q64 -2 132.5 -1.5t121.5 2.5
l53 1q-3 -76 -4 -182.5t-1 -174.5l1 -68q54 94 113 201.5t91 168.5l32 60q84 3 164 2.5t138 -2.5l58 -2q2 -66 0 -137.5t-6 -128.5z" />
    <glyph glyph-name="cid1071" unicode="&#x41b;" horiz-adv-x="1482" 
d="M535 1606q380 -9 860 -11q-2 -399 -1 -766t3 -627l2 -259l-21 -1q-20 -1 -54.5 -2.5t-74.5 -3t-87 -3.5t-85 -3q13 794 13 1379l-273 8q-31 -266 -59 -540.5t-40 -416.5l-13 -141q-58 -70 -124 -143t-103 -110l-36 -38l-360 -10l-31 266q51 -2 103.5 -1.5t92.5 1.5l40 2
q22 27 54.5 60.5t54.5 53.5l22 19q45 390 107 1173z" />
    <glyph glyph-name="cid1072" unicode="&#x41c;" horiz-adv-x="1355" 
d="M416 1606q56 -277 120 -554t100 -416l36 -138q56 245 124 522.5t108 432.5l40 155q93 -5 170 -11.5t108 -10.5l31 -3q-6 -420 -6.5 -835.5t1.5 -620.5l3 -205l-276 4q1 184 -1 390.5t-4 321.5l-3 114l-160 -588q-48 -1 -117.5 0.5t-114.5 3.5l-45 2q-36 140 -75.5 284.5
t-60.5 219.5l-21 74q3 -197 2.5 -379.5t-2.5 -312.5l-2 -130q-57 -2 -108 -3.5t-82.5 -2t-55 -0.5h-33.5h-10q7 388 10.5 803.5t3.5 637.5v222q78 8 158 13.5t121 7.5z" />
    <glyph glyph-name="cid1073" unicode="&#x41d;" horiz-adv-x="1060" 
d="M940 -84l-266 6l-2 481q-150 3 -279 3q4 -226 0 -476l-264 -4q-13 308 -27.5 721.5t-23.5 673.5l-8 260l348 8q-8 -208 -14 -440.5t-8 -360.5l-1 -129q115 7 281 15q-8 412 -8 919l350 -6q-23 -441 -42.5 -859t-27.5 -615z" />
    <glyph glyph-name="cid1074" unicode="&#x41e;" horiz-adv-x="1089" 
d="M377 1239q10 -591 14 -1024q74 -2 283 -6q2 62 6 166.5t9.5 375.5t4.5 480q-16 1 -44 3t-111 4.5t-162 0.5zM942 197q-117 -135 -250 -293q-73 2 -311 10q-140 127 -279 301q-6 470 -26 1040q12 20 35 54.5t93 126t140 166.5q145 -6 397 0q138 -174 271 -371
q-47 -550 -70 -1034z" />
    <glyph glyph-name="cid1075" unicode="&#x41f;" horiz-adv-x="1126" 
d="M78 1589l989 -10l-35 -1632q-155 -4 -309 -10q31 746 35 1335l-355 2l13 -1337l-324 -9q0 119 -6.5 845t-7.5 816z" />
    <glyph glyph-name="cid1076" unicode="&#x420;" horiz-adv-x="1093" 
d="M395 1296l-2 -749q64 -2 128.5 -0.5t113.5 3.5l49 3l35 745zM946 508q-57 -50 -123.5 -103.5t-104.5 -81.5l-38 -28q-68 2 -139.5 5.5t-109.5 5.5l-38 3q-4 -199 -4 -387q-116 2 -266 2q-29 868 -49 1669l667 21q68 -68 141.5 -144.5t113.5 -119.5l40 -43
q-21 -203 -43.5 -403t-34.5 -298z" />
    <glyph glyph-name="cid1077" unicode="&#x421;" horiz-adv-x="1044" 
d="M913 137q-63 -56 -131.5 -113.5t-105.5 -87.5l-37 -30h-274q-58 60 -119 125.5t-93 100.5l-32 36q-16 223 -31.5 493t-23.5 428l-7 158q58 86 120 172t95 129l33 43l371 23l307 -328l-55 -510l-287 -12l31 510l-305 -19q-1 -232 1.5 -501t5.5 -422l3 -152q50 -2 111.5 -2
t97.5 1l37 1q4 44 7.5 103.5t5.5 96.5l1 38l303 -8q-4 -64 -11.5 -132t-12.5 -104z" />
    <glyph glyph-name="cid1078" unicode="&#x422;" horiz-adv-x="1073" 
d="M383 -78q-6 445 -16 1297q-107 -5 -281 -11q-12 199 -20 383l940 13l-19 -381l-297 2q-17 -661 -33 -1297q-137 -2 -274 -6z" />
    <glyph glyph-name="cid1079" unicode="&#x423;" horiz-adv-x="1058" 
d="M993 1581q-106 -354 -222 -772t-179 -659l-64 -240q-64 5 -132 13t-104 13l-36 5q41 140 75.5 283t48.5 216l15 74q-118 370 -325 1055q166 12 338 30l124 -624l127 624q72 -2 155.5 -6.5t131.5 -8.5z" />
    <glyph glyph-name="cid1080" unicode="&#x424;" horiz-adv-x="1292" 
d="M803 1602q-4 -132 -4 -218l213 -2q46 -43 104 -108t92 -108l35 -44l-45 -733q-52 -49 -112 -109t-94 -95l-34 -35h-182l-6 -234q-139 -4 -250 2q2 123 -2 227l-196 -2q-59 52 -125 116.5t-102 102.5l-36 39q-6 178 -10.5 356t-6.5 267l-1 88q51 65 107 133t86 103l30 36
q53 -3 110.5 -4t88.5 0h31l-7 222q70 2 149 2t123 -1zM784 1102l-10 -686l195 -8l24 692q-111 -2 -209 2zM514 416q0 187 -3.5 360t-6.5 252l-4 80l-191 4q-3 -199 -2.5 -353.5t2.5 -248.5l2 -94h203z" />
    <glyph glyph-name="cid1081" unicode="&#x425;" horiz-adv-x="993" 
d="M911 -59l-288 -29l-142 461l-125 -469l-293 30q71 200 141 407.5t104 314.5l34 108q-137 431 -262 809l336 37q16 -91 39 -193.5t38 -159.5l15 -57q76 224 117 404l305 -35q-72 -185 -148.5 -386t-116.5 -310l-40 -109q128 -394 286 -823z" />
    <glyph glyph-name="cid1082" unicode="&#x426;" horiz-adv-x="1153" 
d="M1075 162q-1 -28 -2 -76t-2 -176.5t0 -233.5q-162 5 -299 7q14 137 14 262l-696 8q-2 254 -8.5 657.5t-12.5 679.5l-6 277q191 -2 357 -6q-37 -1213 -41 -1385l270 -2q4 176 8.5 522.5t6.5 604.5l2 258l317 8q-3 -201 -18.5 -724.5t-14.5 -682.5q31 -2 58.5 -1.5
t47.5 1.5z" />
    <glyph glyph-name="cid1083" unicode="&#x427;" horiz-adv-x="1044" 
d="M55 1577l324 -14q0 -135 -4.5 -323.5t-9.5 -309.5l-5 -121q56 0 125 2t111 4l41 2l4 746l301 14q2 -286 7 -693.5t9 -671.5l5 -265q-172 -2 -338 -6q12 405 26 655l-78 -76l-280 12l-232 256q0 479 -6 789z" />
    <glyph glyph-name="cid1084" unicode="&#x428;" horiz-adv-x="1640" 
d="M672 207l-27 1378q174 0 344 -12q-31 -691 -35 -1370l271 -2q5 300 7.5 642.5t2.5 534.5v193l324 -10l-31 -1614l-1446 6q-8 332 -14 739.5t-8 649.5l-1 241h349q-1 -345 -5 -686.5t-8 -510.5l-4 -169q129 -4 281 -10z" />
    <glyph glyph-name="cid1085" unicode="&#x429;" horiz-adv-x="1726" 
d="M1645 207q5 -265 -5 -524q-162 4 -299 6q-4 121 -6 260q-358 5 -672 6t-449 -1l-136 -1q2 252 -4.5 662t-13.5 694l-7 284h350q-11 -692 -36 -1355q2 0 14 -1.5t86.5 -4.5t198.5 -5q0 248 -3 589t-7 558l-3 217l353 -8q-23 -761 -37 -1360l252 -2q4 176 6 516t2 592v252
q80 5 160.5 7.5t121.5 2.5h41q0 -300 -32 -1386q18 0 63 1t62 1z" />
    <glyph glyph-name="cid1086" unicode="&#x42a;" horiz-adv-x="1212" 
d="M225 1292l-196 -10v301l512 2q-2 -83 -4 -321t0 -357q95 -2 176.5 -1t136.5 4l55 3q54 -57 121.5 -116.5t108.5 -90.5l41 -30l-37 -512q-42 -37 -103 -96t-101 -100l-40 -40l-645 25q-3 300 -9 634.5t-11 519.5zM874 182q6 79 9.5 156t4.5 130t1.5 95t0.5 62l-1 20
q-77 -2 -163.5 -2t-134.5 1l-48 1l-17 -465q36 2 123 2.5t156 -0.5h69z" />
    <glyph glyph-name="cid1087" unicode="&#x42b;" horiz-adv-x="1476" 
d="M709 182q7 126 10.5 247.5t3.5 180.5v58l-383 -19l8 -469zM729 -72q-134 1 -293 7t-252 12l-92 6q-7 332 -19.5 743t-20.5 656l-9 245q178 3 319 9q-3 -58 -8 -149t-13 -275t-7 -252q65 2 161.5 9t160.5 13l63 6q57 -58 130 -123t117 -101l44 -36q-11 -125 -21 -258.5
t-14 -204.5l-4 -71q-42 -37 -102.5 -96t-100.5 -100zM1411 1597q-13 -360 -21 -780.5t-10 -660.5l-2 -240h-280l-31 1677z" />
    <glyph glyph-name="cid1088" unicode="&#x42c;" horiz-adv-x="1062" 
d="M709 182q7 126 10.5 247.5t3.5 180.5v58l-383 -19l8 -469zM729 -72q-134 1 -293 7t-252 12l-92 6q-12 339 -24 750t-18 653l-7 241q178 3 319 9q-3 -58 -8 -149t-13 -275t-7 -252q65 2 161.5 9t160.5 13l63 6l291 -260q-11 -125 -21 -258.5t-14 -204.5l-4 -71
q-44 -46 -104.5 -105t-98.5 -95z" />
    <glyph glyph-name="cid1089" unicode="&#x42d;" horiz-adv-x="1161" 
d="M1133 768q-48 -375 -107 -627q-154 -112 -285 -237q-151 -15 -376 -21q-162 99 -295 201q88 121 180 240q96 -90 182 -174q133 2 283 2q74 223 100 413q-170 -12 -303 -12q-4 208 0 321q151 -2 303 -4q-43 203 -121 424q-119 5 -262 11q-107 -74 -209 -162
q-96 125 -172 256q156 89 297 200q98 -14 357 -26q192 -131 311 -227q70 -296 117 -578z" />
    <glyph glyph-name="cid1090" unicode="&#x42e;" horiz-adv-x="1458" 
d="M365 862q63 -3 180 -6q-1 34 -5.5 191.5t-7.5 228.5q10 18 30 48.5t85 116.5t135 161q125 -6 375 0q117 -154 250 -351q-47 -591 -70 -1075q-96 -114 -227 -272q-53 2 -293 10q-119 107 -258 281q-2 132 -8 376q-28 -1 -93.5 -2t-99.5 -2q-8 -442 -8 -637q-104 2 -256 0
q-10 846 -35 1669q125 1 326 5q-12 -342 -20 -742zM813 1260q10 -632 14 -1065q54 -3 263 -7q3 66 6.5 177.5t9.5 394t4 491.5q-13 1 -38 3.5t-102.5 5t-156.5 0.5z" />
    <glyph glyph-name="cid1091" unicode="&#x42f;" horiz-adv-x="999" 
d="M678 1307q-148 6 -326 10q12 -390 35 -756l291 17q-2 359 0 729zM84 201q105 -9 209 -15l65 140q-153 123 -274 221q2 369 -41 776q121 121 289 297q132 -4 287 -12t244 -14l89 -5l-32 -1663q-47 -2 -113.5 -2t-108.5 1l-43 1l21 406q-24 0 -49 -2q-92 -193 -209 -398
q-164 -6 -316 -12q-10 160 -18 281z" />
    <glyph glyph-name="cid1092" unicode="&#x430;" horiz-adv-x="1009" 
d="M352 584q7 -218 27 -439q159 21 235 31q7 185 13 404q-15 1 -40.5 2t-102 3t-132.5 -1zM795 -16l-400 -90q-124 102 -278 194q-18 245 -47 559q110 85 264 189q61 -7 137 -16.5t120.5 -15t45.5 -5.5q4 22 7 57t4 60l1 24l-442 -20q-13 106 -19 266h480q132 -109 243 -205
q-22 -202 -39 -403t-24 -300l-6 -100q40 -15 157 -31q-12 -57 -27.5 -118t-24.5 -93l-9 -32z" />
    <glyph glyph-name="cid1093" unicode="&#x431;" horiz-adv-x="978" 
d="M643 801q-168 42 -289 67q5 -154 6.5 -331t0.5 -277l-1 -100q96 -2 250 0q4 46 9.5 121t15 247t8.5 273zM862 150q-127 -115 -264 -254q-174 8 -256 0q-121 124 -250 241q-16 616 -39 1139q135 127 287 291q162 45 371 98q55 -174 71 -303q-201 -43 -432 -78q1 -2 2 -8
t3 -40.5t1 -88.5q154 -26 318 -57q123 -104 262 -254q-64 -522 -74 -686z" />
    <glyph glyph-name="cid1094" unicode="&#x432;" horiz-adv-x="946" 
d="M575 150l5 247q-125 5 -275 9l12 -267q56 4 120.5 7t100.5 4h37zM305 664l299 4l10 266h-319q0 -143 10 -270zM858 424l-18 -320q-55 -36 -114 -82.5t-90 -75.5l-32 -28l-500 6q-16 292 -29.5 600.5t-19.5 470.5l-6 162q136 16 283.5 26t227.5 11l79 2q61 -62 124 -123.5
t95 -92.5l33 -30q-3 -44 -11 -112.5t-15 -115.5l-7 -46q-15 -5 -49 -28t-82 -57.5t-74 -51.5z" />
    <glyph glyph-name="cid1095" unicode="&#x433;" horiz-adv-x="849" 
d="M59 1184q167 -2 358 -2t299 1l107 1l-14 -328l-440 12q-1 -316 0.5 -550t3.5 -310l2 -76l-303 -4q6 443 3 722t-9 406z" />
    <glyph glyph-name="cid1096" unicode="&#x434;" horiz-adv-x="1208" 
d="M1171 166l-41 -516h-272q4 112 8 266q-378 6 -544 0l14 -250q-59 -3 -126.5 -3t-105.5 1l-38 2l-7 531l131 2q83 173 136 333q38 278 63 656q247 -2 672 -8q-6 -585 -12 -1008zM465 188q13 -1 38.5 -3t109 -5t173.5 -2q11 349 21 723q-97 6 -201 6q-14 -135 -27.5 -240.5
t-20.5 -143.5l-7 -38q-21 -64 -42.5 -138t-32.5 -117z" />
    <glyph glyph-name="cid1097" unicode="&#x435;" horiz-adv-x="987" 
d="M350 680l307 31q4 43 8 101t5 95l2 37l-324 -8zM883 133q-41 -53 -93 -107t-84 -82l-32 -28l-318 -22l-258 227q-19 405 -39 805q53 70 114.5 143t96.5 111l35 37l393 -17q54 -49 118.5 -110.5t101.5 -98.5l38 -37q-16 -78 -33 -188t-27 -181l-9 -71l-529 -29
q4 -179 4 -333q75 0 140.5 3.5t93.5 6.5l29 4l-13 172q62 6 133.5 10t112.5 5l41 1z" />
    <glyph glyph-name="cid1099" unicode="&#x436;" horiz-adv-x="1497" 
d="M90 895q6 158 12 279q158 -11 316 -19q104 -235 213 -434q2 281 -4 453q13 -1 36 -2t85.5 -2.5t115.5 -0.5l-22 -448q48 76 107.5 184.5t94.5 178.5l35 71l314 19l12 -279l-186 4q-79 -107 -183 -332q96 -152 198 -299.5t156 -219.5l54 -71q-177 -55 -324 -94
q-107 243 -246 555q3 -162 8 -292.5t9 -179.5l4 -50q-143 -2 -293 -6q15 164 21 528q-59 -139 -120.5 -278t-93.5 -208l-32 -69q-67 17 -148.5 40.5t-129.5 38.5l-48 15q211 263 408 590q-43 93 -88.5 176t-70.5 119l-24 37q-88 -4 -186 -4z" />
    <glyph glyph-name="cid1100" unicode="&#x437;" horiz-adv-x="1050" 
d="M223 750q-96 125 -172 258q156 89 297 198q98 -14 357 -24q151 -134 270 -230q12 -125 20 -270q-104 -95 -190 -150q82 -60 174 -126q1 -8 2.5 -24.5t4 -74.5t-0.5 -125q-113 -133 -244 -258q-103 -29 -376 -41q-162 78 -295 180q47 130 135 265q131 -92 227 -178
q5 -3 283 22q-5 41 -15 227q-170 -12 -301 -12q-4 168 0 281q135 -4 303 -4q-2 106 -8 237l-13 4q-52 7 -249 8q-12 -5 -32 -16.5t-75 -53.5t-102 -93z" />
    <glyph glyph-name="cid1101" unicode="&#x438;" horiz-adv-x="1056" 
d="M741 1180q160 2 289 -2q-31 -567 -37 -1250q-130 -2 -280 -4q2 45 3.5 115.5t4.5 277t-2 336.5q-205 -369 -375 -702q-15 -1 -39.5 -2.5t-99.5 -4t-131 0.5q-11 444 -23 1259q146 2 273 2q-9 -296 -21 -860q190 335 438 834z" />
    <glyph glyph-name="cid1102" unicode="&#x439;" horiz-adv-x="1056" 
d="M995 1446q-143 -68 -311 -154q-198 2 -356 8q-135 91 -256 179q75 92 157 188q54 -45 177 -121q110 -2 235 -4q92 71 188 141q74 -110 166 -237zM741 1180q160 2 289 -2q-31 -567 -37 -1250q-130 -2 -280 -4q2 45 3.5 115.5t4.5 277t-2 336.5q-205 -369 -375 -702
q-15 -1 -39.5 -2.5t-99.5 -4t-131 0.5q-11 444 -23 1259q146 2 273 2q-9 -296 -21 -860q190 335 438 834z" />
    <glyph glyph-name="cid1103" unicode="&#x43a;" horiz-adv-x="933" 
d="M872 942q-52 3 -104 4t-78 0h-26q-99 -151 -185 -305q88 -170 179 -339.5t138 -253.5l46 -85q-170 -19 -324 -33q-92 245 -201 582q3 -162 8 -306t9 -206l4 -63q-46 2 -91.5 3.5t-77.5 2t-57.5 0.5h-37.5h-13q7 399 4 678t-9 428l-7 149q64 -2 127.5 -1.5t111.5 1.5l48 2
q-3 -76 -4 -177.5t0 -164.5v-63q46 82 93.5 184t72.5 163l24 62q84 3 164 2.5t138 -2.5l59 -2q3 -54 0 -119t-7 -103z" />
    <glyph glyph-name="cid1104" unicode="&#x43b;" horiz-adv-x="1212" 
d="M354 1188q378 15 805 -10q-5 -372 -4 -646t5 -432l3 -157l-18 -1q-18 -1 -48.5 -2.5t-67 -3t-81 -3.5t-82.5 -3q11 809 13 981q-61 1 -115.5 2.5t-103 3.5t-68.5 3q-9 -153 -21.5 -328t-20.5 -274l-9 -99q-35 -56 -83.5 -129t-79.5 -118l-32 -44l-270 -10
q-4 58 -12 124.5t-14 103.5l-5 38q49 -2 86.5 -1.5t59.5 1.5l22 2q22 27 43.5 60.5t31.5 53.5l11 19q18 171 32 388.5t19 348.5z" />
    <glyph glyph-name="cid1105" unicode="&#x43c;" horiz-adv-x="1378" 
d="M68 1178q166 4 340 0q147 -409 288 -834q140 419 271 832q170 -1 352 -7q-4 -56 -9.5 -158.5t-12 -422t-1.5 -641.5q-145 -8 -284 0q8 167 18 723q-125 -376 -248 -725q-98 0 -180 -2q-117 333 -262 723q8 -319 22 -721q-134 -2 -288 -4q-6 568 -6 1237z" />
    <glyph glyph-name="cid1106" unicode="&#x43d;" horiz-adv-x="1077" 
d="M940 -84l-266 6l-2 432q-150 2 -279 2q4 -176 0 -426l-264 -4q-13 308 -27.5 619t-23.5 469l-8 157l348 9l-23 -570q115 5 281 15q-8 52 -8 559l350 -6q-23 -441 -42.5 -756.5t-27.5 -410.5z" />
    <glyph glyph-name="cid1107" unicode="&#x43e;" horiz-adv-x="940" 
d="M350 934q9 -413 17 -799q122 -10 235 -12q11 396 23 813q-164 2 -275 -2zM858 109q-129 -99 -258 -199h-238q-131 90 -262 213q-23 400 -37 825q121 131 238 240q144 10 334 22q145 -125 268 -266q-10 -107 -17.5 -235t-11.5 -230.5t-6.5 -190t-4.5 -135t-5 -44.5z" />
    <glyph glyph-name="cid1108" unicode="&#x43f;" horiz-adv-x="1024" 
d="M66 1192l888 -8l-14 -1258q-16 2 -44.5 4t-105.5 5.5t-141 1.5q13 788 17 960l-293 2q-3 -212 -0.5 -426t7.5 -375l5 -161l-283 -9q0 107 -17 615t-19 649z" />
    <glyph glyph-name="cid1109" unicode="&#x440;" horiz-adv-x="950" 
d="M365 920q-5 -382 -9 -719h228l24 698zM596 -51l-254 -10l-2 -451h-244q-12 797 -35 1696l594 8l250 -270q-11 -171 -25 -354t-22 -280l-8 -98q-48 -58 -111.5 -118.5t-102.5 -91.5z" />
    <glyph glyph-name="cid1110" unicode="&#x441;" horiz-adv-x="978" 
d="M928 905l4 -221l-275 14l-4 179l-291 14q5 -153 9.5 -336t6.5 -290l1 -107l246 -11l-2 187l286 -4v-183q-55 -62 -110.5 -122t-84.5 -89l-28 -30l-332 -17q-73 65 -138 126t-94 89l-28 29l-28 772q62 59 128.5 129.5t101.5 111.5l36 40l330 -17z" />
    <glyph glyph-name="cid1111" unicode="&#x442;" horiz-adv-x="989" 
d="M623 -80l-256 -6q-17 355 -37 960q-151 -4 -264 -10l-21 326q437 6 891 10v-321q-139 2 -301 0z" />
    <glyph glyph-name="cid1112" unicode="&#x443;" horiz-adv-x="1005" 
d="M958 1169q-89 -300 -195 -712.5t-167 -674.5l-61 -263q-64 5 -132.5 12.5t-104.5 12.5l-36 5l119 574q-213 623 -346 1034q182 13 358 31q19 -146 50.5 -286.5t52.5 -208.5l22 -68l127 563q77 -6 155.5 -11t117.5 -7z" />
    <glyph glyph-name="cid1113" unicode="&#x444;" horiz-adv-x="1368" 
d="M844 1567q-4 -303 -4 -389l192 -4q46 -43 109 -107.5t103 -108.5l40 -43l-45 -692q-52 -49 -117 -108.5t-104 -94.5l-39 -34l-162 -2l-6 -480q-139 -4 -250 2q2 372 -2 476l-176 -2q-59 51 -124.5 115t-101.5 103l-36 38l-19 669q51 65 107 133t87 103l30 35l209 -5
l-7 396q70 2 149 2t123 -1zM825 895l-10 -645l174 -8l25 651q-91 -2 -189 2zM555 248q0 188 -3.5 351t-7.5 233l-3 69l-170 4q-3 -197 -2.5 -342.5t2.5 -228.5l2 -84z" />
    <glyph glyph-name="cid1114" unicode="&#x445;" horiz-adv-x="946" 
d="M872 -12q-56 -15 -126 -30t-112 -22l-42 -8q-27 75 -62.5 160t-57.5 132l-21 48l-138 -340l-268 41q70 133 135 270.5t95 208.5l30 72q-56 130 -118 283t-97.5 246.5t-34.5 95.5q64 18 144.5 34.5t128.5 23.5l49 7l102 -417q25 96 55 200t47 161l17 56q57 -9 124 -23
t106 -24l38 -10l-248 -625z" />
    <glyph glyph-name="cid1115" unicode="&#x446;" horiz-adv-x="1083" 
d="M1036 141l-2 -463q-119 5 -258 7q-2 29 -6 219l-676 8q-2 254 -9 568t-13 502l-6 187q168 7 311 11q-13 -852 -15 -1024l291 -2q3 214 1 442t-6 406l-5 178q67 1 137.5 -2.5t107.5 -7.5l38 -3q0 -438 8 -1028q69 0 102 2z" />
    <glyph glyph-name="cid1116" unicode="&#x447;" horiz-adv-x="974" 
d="M49 1184l324 6l2 -637q56 0 120 2t100 4l36 2l4 629q70 -4 145.5 -5.5t115.5 -0.5h40q-16 -304 -27 -618.5t-13 -477.5l-3 -162q-78 -4 -256 -6q1 24 2.5 65.5t4 152.5t1.5 202q-17 -13 -47.5 -26.5t-51.5 -21.5l-22 -7l-217 -9q-49 56 -107.5 120t-91.5 100l-34 36
q4 340 -25 652z" />
    <glyph glyph-name="cid1117" unicode="&#x448;" horiz-adv-x="1515" 
d="M631 166q-6 81 -15 338t-14 474l-6 216q189 8 332 12q-33 -872 -35 -1044l270 -2q4 215 2 447t-7 415l-5 182q103 -8 178.5 -10.5t100.5 -1.5l24 2l10 -1268q-408 7 -759 8.5t-499 -0.5l-147 -2q3 252 -2.5 573t-12.5 517l-7 195h328q-2 -105 -11 -365t-18 -468l-8 -208
h3.5h6t10 -0.5t16.5 -1.5t25.5 -1.5t37 -1.5t50.5 -2t67 -1.5t85 -1.5z" />
    <glyph glyph-name="cid1118" unicode="&#x449;" horiz-adv-x="1617" 
d="M1563 145q-1 -24 -2.5 -65t-3.5 -168t2 -229q-122 4 -259 6q0 51 -6 239q-358 5 -667 6t-439 0l-131 -2q2 252 -4 573t-13 517l-7 195h329l-36 -1041q2 0 14 -1t86.5 -4t198.5 -5q-6 81 -14.5 338t-13.5 474l-5 216q187 8 332 12q-33 -872 -37 -1044l272 -2
q3 215 0.5 447t-7.5 415l-5 182q103 -8 178.5 -10.5t100.5 -1.5l24 2q0 -123 4 -550.5t4 -500.5q18 0 53 1t52 1z" />
    <glyph glyph-name="cid1119" unicode="&#x44a;" horiz-adv-x="1030" 
d="M743 182l15 256q-38 0 -108 -5t-120 -10l-51 -5l-14 -238zM223 885h-149q0 88 -3 168t-5 117l-3 36q294 0 435 6q-1 -43 -2 -104.5t-3 -222t1 -205.5q65 2 129.5 8.5t96.5 12.5l32 6q55 -48 112 -107.5t87 -95.5l30 -35q-1 -75 -5.5 -151t-8.5 -115l-4 -39
q-39 -53 -89.5 -112t-81.5 -92l-30 -32q-121 4 -254 10t-206 10l-73 5q2 469 -6 932z" />
    <glyph glyph-name="cid1120" unicode="&#x44b;" horiz-adv-x="1208" 
d="M1149 -70q-127 2 -279 0q11 455 -12 1278q102 0 303 4q-2 -61 -4.5 -171.5t-6 -446.5t-1.5 -664zM547 182l16 256q-51 -1 -110 -6t-92 -10l-33 -4l6 -238zM588 -72q-121 4 -243.5 10t-184.5 10l-62 5q-5 300 -12.5 612.5t-12.5 475.5l-5 163q137 2 278 8
q-1 -43 -2 -104.5t-3 -222t1 -205.5q65 2 119 8.5t75 12.5l21 6q55 -48 117 -107.5t96 -95.5l35 -35q0 -75 -4.5 -151t-8.5 -115l-4 -39q-39 -53 -89 -112t-81 -92z" />
    <glyph glyph-name="cid1121" unicode="&#x44c;" horiz-adv-x="993" 
d="M655 162l15 276l-346 -20l8 -258zM694 -92l-598 24q-14 297 -21.5 615t-8.5 487v170q137 2 278 8q-1 -43 -2 -104.5t-3 -222t1 -205.5q64 2 145 8.5t130 12.5l49 6q55 -48 117 -107.5t97 -95.5l35 -35q-1 -75 -5.5 -156.5t-8.5 -125.5l-4 -44q-39 -53 -89.5 -111.5
t-81.5 -91.5z" />
    <glyph glyph-name="cid1122" unicode="&#x44d;" horiz-adv-x="1116" 
d="M1051 582q-7 -154 -66 -406q-113 -94 -244 -219q-151 -12 -376 -18q-162 76 -295 180q88 120 180 239q96 -90 182 -174q133 2 283 0l11 46q30 128 48 210q-129 -12 -262 -12q-4 147 0 260q110 -2 262 -4q-1 12 -4.5 33.5t-23.5 86t-52 126.5q-119 4 -262 10
q-107 -74 -209 -162q-96 125 -172 256q156 69 297 180q98 -14 357 -26q151 -111 270 -207q39 -170 76 -399z" />
    <glyph glyph-name="cid1123" unicode="&#x44e;" horiz-adv-x="1390" 
d="M498 401q-55 -2 -127 -2q-1 -81 -5.5 -256.5t-5.5 -222.5l-247 -2q-5 439 -23 1260h293q0 -175 -8 -553h112q-5 106 -12 282q123 131 238 240q144 10 334 22q145 -125 270 -266q-10 -106 -17.5 -230.5t-11.5 -220.5t-7 -178t-5.5 -125t-5.5 -40q-127 -99 -256 -199h-238
q-133 90 -264 213q-6 108 -14 278zM762 893q8 -372 18 -758q121 -10 236 -12q10 355 22 772q-163 2 -276 -2z" />
    <glyph glyph-name="cid1124" unicode="&#x44f;" horiz-adv-x="970" 
d="M332 934q2 -97 -0.5 -200.5t-5.5 -158.5l-4 -55q186 9 348 21q4 89 6 185.5t2 147.5v52zM270 141q30 36 58 80t40 70l13 26l-125 2q-43 44 -88 96t-68 81l-24 30l-17 406q49 50 102 112t81 99l28 37q282 -7 648 -13q-1 -72 -2.5 -189t-4 -464.5t1.5 -587.5
q-108 0 -249 -6q1 22 2.5 59.5t4 144t1.5 200.5h-70l-186 -400l-340 -12q-9 123 -17 244z" />
    <glyph glyph-name="cid487" unicode="&#x451;" horiz-adv-x="987" 
d="M420 1563q0 -65 -2.5 -134t-5.5 -105l-2 -36l-250 2l-6 277q60 -3 126.5 -4t103.5 -1zM848 1563l-10 -275l-250 2l-6 277q64 -3 130.5 -4t101.5 -1zM350 659l307 31l15 193l-324 -9zM883 133q-41 -53 -93 -107t-84 -82l-32 -28l-318 -22l-258 227l-39 743
q53 70 114.5 143t96.5 111l35 37l393 -16q54 -49 118.5 -110.5t101.5 -98.5l38 -37q-16 -78 -33 -178t-27 -161l-9 -60l-529 -29q4 -159 4 -313q75 0 140.5 3.5t93.5 6.5l29 4l-13 172q62 6 133.5 10t112.5 5l41 1z" />
    <glyph glyph-name="cid633" unicode="&#x2003;" 
 />
    <glyph glyph-name="uni2011" unicode="&#x2011;" horiz-adv-x="1030" 
d="M106 717q403 -17 828 -21q-4 -200 -14 -372q-440 -11 -801 -15q-11 201 -13 408z" />
    <glyph glyph-name="cid114" unicode="&#x2012;" horiz-adv-x="1058" 
d="M127 952q414 -12 827 -20q0 -189 -14 -373q-409 -10 -801 -14q-4 221 -12 407z" />
    <glyph glyph-name="endash" unicode="&#x2013;" horiz-adv-x="1112" 
d="M53 727q513 -12 981 -18q-8 -195 -14 -373q-552 -9 -952 -17q-7 222 -15 408z" />
    <glyph glyph-name="emdash" unicode="&#x2014;" horiz-adv-x="1544" 
d="M141 690q821 -12 1289 -18q-9 -195 -15 -373q-859 -8 -1261 -16q-5 221 -13 407z" />
    <glyph glyph-name="cid661" unicode="&#x2015;" horiz-adv-x="1546" 
d="M119 848q611 -9 1317 -21q-9 -88 -15 -266q-576 -14 -1288 -14q-6 115 -14 301z" />
    <glyph glyph-name="cid666" unicode="&#x2016;" horiz-adv-x="962" 
d="M862 -111q-165 2 -319 0q3 944 -13 1837q146 1 347 5q-13 -853 -15 -1842zM412 -111q-168 2 -320 0q11 965 -12 1837q143 1 344 5q-2 -103 -4 -281.5t-5.5 -665t-2.5 -895.5z" />
    <glyph glyph-name="quoteleft" unicode="&#x2018;" horiz-adv-x="595" 
d="M508 1036q-211 4 -418 4q8 217 14 381q83 164 140 301q76 -16 162 -43q-33 -112 -56 -231q4 6 139 -21q11 -217 19 -391z" />
    <glyph glyph-name="quoteright" unicode="&#x2019;" horiz-adv-x="567" 
d="M70 1696q210 -4 417 -4q-8 -217 -14 -381q-82 -164 -139 -301q-76 16 -162 43q32 112 55 231q-6 -4 -139 21q-12 217 -18 391z" />
    <glyph glyph-name="cid120" unicode="&#x201a;" horiz-adv-x="583" 
d="M70 264q210 -4 417 -4q-8 -217 -14 -379q-82 -164 -139 -301q-76 16 -162 43q32 113 55 232q-6 -5 -139 20q-12 215 -18 389z" />
    <glyph glyph-name="cid105" unicode="&#x201b;" horiz-adv-x="565" 
d="M496 1696l-19 -391q-60 -11 -94.5 -16.5t-39.5 -4.5h-5q9 -53 22.5 -110.5t23.5 -89.5l9 -31q-39 -12 -79.5 -23t-61.5 -16l-21 -4q-26 61 -61.5 136t-57.5 120l-22 45l-14 381z" />
    <glyph glyph-name="cid108" unicode="&#x201c;" horiz-adv-x="1107" 
d="M997 1036q-210 4 -417 4q8 217 12 381q82 164 141 301q74 -16 162 -43q-35 -112 -55 -231q4 6 139 -21q10 -217 18 -391zM508 1036q-211 4 -418 4q8 217 12 381q83 164 142 301q74 -16 162 -43q-36 -112 -56 -231q4 6 139 -21q11 -217 19 -391z" />
    <glyph glyph-name="cid122" unicode="&#x201d;" horiz-adv-x="1079" 
d="M70 1696q210 -4 417 -4q-8 -217 -14 -381q-82 -164 -139 -301q-76 16 -162 43q32 112 55 231q-6 -4 -139 21q-12 217 -18 391zM555 1696q211 -4 418 -4q-9 -217 -15 -381q-82 -164 -141 -301q-74 16 -162 43q35 112 58 231q-7 -4 -140 21q-12 217 -18 391z" />
    <glyph glyph-name="cid121" unicode="&#x201e;" horiz-adv-x="1107" 
d="M102 264q211 -4 418 -4q-8 -217 -14 -379q-82 -164 -141 -301q-74 16 -160 43q32 113 55 232q-6 -5 -139 20q-13 215 -19 389zM592 264q211 -4 418 -4q-9 -217 -15 -379q-82 -164 -141 -301q-74 16 -162 43q35 113 58 232q-7 -5 -140 20q-12 215 -18 389z" />
    <glyph glyph-name="cid776" unicode="&#x2020;" horiz-adv-x="1064" 
d="M690 -205q-145 2 -299 0q-4 505 -14 1090q-76 -2 -232 -2q-2 190 -8 348q93 -4 234 -8q-2 83 -6.5 232.5t-6.5 205.5q166 0 367 4q-6 -181 -12 -448q111 -3 229 -3q-4 -165 -8 -319q-92 -2 -229 -6q-15 -645 -15 -1094z" />
    <glyph glyph-name="cid777" unicode="&#x2021;" horiz-adv-x="1064" 
d="M137 543q99 -4 246 -8q-3 176 -6 350q-76 -2 -232 -2q-2 190 -8 348q93 -4 234 -8q-2 83 -6.5 232.5t-6.5 205.5q166 0 367 4q-6 -181 -12 -448q111 -3 229 -3q-4 -165 -8 -319q-92 -2 -229 -6q-1 -54 -4.5 -175t-4.5 -186q80 -2 246 -2q-4 -165 -8 -319q-97 -2 -242 -6
q-2 -139 -2 -406q-145 2 -299 0q0 160 -4 402q-78 -2 -242 -2q-2 190 -8 348z" />
    <glyph glyph-name="cid119" unicode="&#x2022;" horiz-adv-x="1058" 
d="M733 922q-6 -84 -10 -180t-5 -150l-1 -53l-393 4q1 87 -1.5 183t-4.5 149l-3 53z" />
    <glyph glyph-name="cid668" unicode="&#x2026;" horiz-adv-x="1685" 
d="M520 264q-6 -84 -10 -179.5t-5 -148.5l-1 -53l-393 4q1 87 -1.5 183t-5.5 149l-2 53q90 -4 194.5 -6t163.5 -2h60zM1047 264q-5 -84 -9.5 -179.5t-5.5 -148.5l-2 -53l-391 4q0 87 -2.5 183t-4.5 149l-3 53q90 -4 194.5 -6t164.5 -2h59zM1571 264q-5 -84 -9 -179.5
t-5 -148.5l-1 -53l-393 4q0 87 -2 183t-4 149l-2 53q90 -4 194 -6t163 -2h59z" />
    <glyph glyph-name="cid772" unicode="&#x2030;" horiz-adv-x="2013" 
d="M1141 506h-142q-3 -57 -4 -116.5t-1 -90.5l1 -31l133 2zM1153 715l188 -197l-20 -250q-36 -46 -78 -94t-66 -73l-24 -25l-162 4q-47 37 -93 83.5t-68 74.5l-23 28l-8 256q42 39 87 86t69 74l24 27zM1733 506h-142q-3 -57 -4 -116.5t-1 -90.5l1 -31l133 2zM1745 715
l188 -197l-20 -250q-36 -46 -78 -94t-66 -73l-24 -25l-162 4q-47 37 -93 83.5t-68 74.5l-23 28l-8 256q42 39 87 86t69 74l24 27zM422 1280h-141l-5 -238l134 2zM434 1489l189 -197l-21 -250q-36 -46 -78 -94t-66 -73l-24 -25l-162 4q-47 37 -93 83.5t-69 74.5l-22 28
l-8 256q42 39 87 86t69 74l24 27zM938 1755l305 -102q-183 -402 -378 -848.5t-299 -692.5l-103 -245q-55 16 -119.5 37.5t-101.5 35.5l-37 13q169 408 352.5 858.5t282.5 696.5z" />
    <glyph glyph-name="cid708" unicode="&#x2032;" horiz-adv-x="526" 
d="M373 1282q-72 5 -152 8t-124 4h-44q15 119 22.5 261.5t8.5 225.5v83q107 -2 199.5 -1.5t154.5 1.5l62 2q-27 -153 -59 -299t-50 -215z" />
    <glyph glyph-name="cid709" unicode="&#x2033;" horiz-adv-x="1288" 
d="M520 1282q-72 5 -152 8t-124 4h-43q9 126 16.5 268.5t10.5 221.5l3 80q107 -2 199.5 -1.5t154.5 1.5l62 2q-24 -131 -56 -277t-51 -227zM1006 1282q-72 5 -152 8t-124 4h-44q32 285 33 570q106 -2 198 -1.5t154 1.5l62 2q-24 -131 -56 -277t-51 -227z" />
    <glyph glyph-name="cid110" unicode="&#x2039;" horiz-adv-x="839" 
d="M518 1065q45 -44 98 -98.5t83 -87.5l30 -33l-401 -316q70 -65 169 -148.5t163 -133.5l63 -51l-182 -199q-111 110 -226.5 220.5t-174.5 165.5l-60 56l-4 219q95 80 205.5 181.5t173.5 163.5z" />
    <glyph glyph-name="cid111" unicode="&#x203a;" horiz-adv-x="839" 
d="M313 1051q223 -206 432 -392q5 -132 5 -247q-223 -203 -465 -414q-93 109 -187 199q232 174 394 307q-216 184 -398 342q117 107 219 205z" />
    <glyph glyph-name="cid734" unicode="&#x203b;" horiz-adv-x="1765" 
d="M1038 1552q0 -44 -3 -110.5t-6 -111.5l-3 -44l-260 6q0 60 -2 127t-4 105l-2 37zM377 870q0 -44 -2.5 -110.5t-4.5 -111.5l-3 -44l-263 6l-6 269zM1671 885q0 -44 -2.5 -110t-4.5 -110l-3 -44l-260 4q0 60 -2 127t-4 104l-2 37q65 -4 134.5 -6t106.5 -2h37zM1038 223
q0 -44 -3 -110t-6 -110l-3 -44l-260 4q0 60 -2 127t-4 104l-2 37q67 -4 137 -6t107 -2h36zM895 1012q215 210 365 360q100 -94 223 -223q-196 -192 -357 -358q238 -257 383 -400q-143 -84 -272 -207q-43 43 -175 182t-198 205q-196 -247 -350 -407q-129 104 -266 229
q67 63 189.5 202.5t180.5 197.5q-206 198 -370 356q153 113 278 248q307 -322 369 -385z" />
    <glyph glyph-name="uni203E" unicode="&#x203e;" 
 />
    <glyph glyph-name="cid104" unicode="&#x2044;" horiz-adv-x="1476" 
d="M938 1755l305 -102q-183 -402 -378 -848.5t-299 -692.5l-103 -245q-55 16 -120 37.5t-103 35.5l-37 13q170 408 354 858.5t283 696.5z" />
    <glyph glyph-name="cid8721" unicode="&#x20ac;" horiz-adv-x="1193" 
d="M66 1016q49 -2 129 -2l-13 233q59 86 121 172t95 129l32 43l371 23l307 -328l-55 -510l-285 -12l29 510l-303 -19v-241q51 -2 153 -2q2 -109 -4 -211q-57 -2 -149 -4q2 -47 2 -135q24 0 74.5 1t76.5 1q-2 -109 -4 -213q-57 0 -145 -2l6 -269q50 -2 111 -2t97 1l36 1
q5 44 9 103.5t5 96.5l2 38l301 -8q-4 -64 -11.5 -132t-12.5 -104l-5 -37q-62 -56 -130.5 -113.5t-105.5 -87.5l-38 -30h-275q-58 60 -119 125.5t-92 100.5l-32 36q-3 46 -9.5 138t-9.5 138q-25 0 -76.5 -1t-78.5 -1q-2 126 -4 224q55 -2 147 -2q-4 43 -8 129h-135
q-2 123 -4 223z" />
    <glyph glyph-name="cid1176" unicode="&#x2116;" horiz-adv-x="1736" 
d="M1423 881l-213 -2q0 -108 4 -210t8 -150l5 -48l196 -12q4 93 4 198.5t-2 164.5zM1677 889l-53 -488l-203 -161h-198q-55 45 -114 96t-91 80l-31 28l-29 449l230 254q56 7 125.5 10t110.5 3l42 -1zM307 1573q86 -283 177 -566.5t140 -424.5l48 -142q-6 244 -7 530.5
t1 451.5l2 165l264 -8l-70 -1649l-241 9q-62 211 -140 460.5t-125 392.5l-47 144q7 -214 11.5 -464.5t5.5 -393.5v-144q-65 -2 -119.5 -0.5t-90.5 3.5l-36 2q-4 345 -12 752t-14 641l-7 235zM1622 156q0 -58 -2 -120t-4 -95l-2 -33l-613 2l-4 250z" />
    <glyph glyph-name="cid228" unicode="&#x2122;" horiz-adv-x="1517" 
d="M416 846h-137q-7 301 -17 581h-170l-8 183q252 -2 532 2q-2 -95 -2 -185h-190zM668 1608q130 -4 239 0q98 -294 176 -525q50 256 109 523q145 -2 223 -2l-2 -754h-178q2 205 10 432q-57 -233 -110 -432h-109q-78 229 -154 450q13 -245 17 -450q-111 -2 -201 -2
q-14 360 -20 760z" />
    <glyph glyph-name="cid737" unicode="&#x2190;" horiz-adv-x="1652" 
d="M528 197q-247 220 -448 376q1 13 2.5 33t3.5 80t-4 100q204 189 446 435q103 -107 222 -199q-162 -121 -283 -215q225 15 495.5 28t429.5 19l158 6q-4 -119 0 -287q-584 -8 -1118 0l324 -182q-130 -100 -228 -194z" />
    <glyph glyph-name="cid738" unicode="&#x2191;" horiz-adv-x="1280" 
d="M78 1047q244 225 414 407q124 -10 235 0q208 -186 477 -407q-117 -95 -219 -201q-133 145 -235 258l59 -1047q-131 2 -315 0q12 577 22 1078l-223 -293q-111 117 -215 205z" />
    <glyph glyph-name="cid736" unicode="&#x2192;" horiz-adv-x="1652" 
d="M1108 1241q247 -221 446 -377q-10 -113 0 -213q-204 -188 -446 -434q-117 107 -223 199q116 86 239 180q-200 -8 -459.5 -12.5t-418.5 -5.5h-160q2 118 0 286q211 0 565.5 -13t550.5 -28l-321 224q129 100 227 194z" />
    <glyph glyph-name="cid739" unicode="&#x2193;" horiz-adv-x="1280" 
d="M1206 440q-243 -225 -413 -407q-125 10 -236 0q-208 186 -477 407q117 95 219 201q134 -145 236 -258l-60 1047q132 -2 316 0q-13 -577 -23 -1078l223 293q111 -117 215 -205z" />
    <glyph glyph-name="cid752" unicode="&#x21d2;" horiz-adv-x="1652" 
d="M86 766v199q668 -24 934 -41l-139 123q129 100 227 194q243 -203 446 -377q-2 -117 0 -213q-208 -205 -446 -434q-104 107 -223 199q39 26 96 63l-895 -14q2 93 0 199q343 2 1128 -17q17 12 66 51l-59 52q-201 -4 -485 0t-467 10z" />
    <glyph glyph-name="cid753" unicode="&#x21d4;" horiz-adv-x="1830" 
d="M532 213q-247 221 -446 377q4 104 0 213q204 188 446 434q120 -103 224 -199q-48 -37 -111 -90q310 -9 588 -12l-135 111q114 104 227 194q222 -191 449 -377q-2 -100 -2 -213q-197 -206 -418 -452q-115 106 -224 198q29 29 72 68q-356 -4 -510 -4l68 -53
q-113 -105 -228 -195zM420 766q-19 -17 -60 -49l72 -55q409 -12 989 2q49 42 70 59l-39 31q-773 16 -1032 12z" />
    <glyph glyph-name="cid754" unicode="&#x2200;" horiz-adv-x="1445" 
d="M422 1565q23 -135 78 -303l448 10q35 143 62 287h331q-233 -842 -423 -1614q-199 -3 -412 -15q-205 819 -430 1610q158 21 346 25zM543 1008q40 -235 74 -375.5t88 -323.5q78 281 178 688z" />
    <glyph glyph-name="cid759" unicode="&#x2202;" horiz-adv-x="1159" 
d="M428 479q-21 -53 -27 -299q162 -2 371 0l-8 508q-178 -105 -336 -209zM227 1169q9 109 15 183q113 121 260 260q67 -2 274 -2q117 -103 283 -240q-6 -376 6 -1214q-12 -14 -35.5 -37.5t-99 -88.5t-154.5 -120q-184 -4 -395 0q-123 119 -270 244q14 163 28 315
q56 89 105 193q313 195 516 299q4 152 -2 342h-236q-4 -64 -8 -136q-113 -2 -287 2z" />
    <glyph glyph-name="cid755" unicode="&#x2203;" horiz-adv-x="960" 
d="M172 803l416 -60q10 257 16 545l-526 -26l-21 350q466 -7 848 -15q-29 -399 -53.5 -813.5t-34.5 -629.5l-10 -215q-353 -6 -729 2l-6 323q120 -9 244 -16t188 -10l63 -2l11 241q-182 11 -418 25q6 149 12 301z" />
    <glyph glyph-name="cid760" unicode="&#x2207;" horiz-adv-x="1720" 
d="M559 1182q119 -252 323 -711l3 -6q95 205 184 385t131 258l41 78zM121 1473q768 3 1534 -15q-39 -86 -109.5 -234.5t-275.5 -564t-396 -776.5q-392 816 -753 1590z" />
    <glyph glyph-name="cid741" unicode="&#x2208;" horiz-adv-x="1396" 
d="M379 555q0 -66 -1 -150.5t-1 -93.5q441 -4 917 -4q0 -234 -4 -332l-921 7q-164 134 -301 286l-5 877q179 160 310 289q359 -4 921 10q-2 -258 0 -342q-53 1 -144 2t-331.5 3t-433.5 1q-2 -113 -2 -254q388 -4 909 2q-2 -142 -14 -287q-339 -10 -899 -14z" />
    <glyph glyph-name="cid742" unicode="&#x220b;" horiz-adv-x="1396" 
d="M997 555q-249 2 -474 5.5t-325 5.5l-100 3q-5 64 -8.5 136t-4.5 111l-1 40q521 -6 909 -2l-2 254q-193 1 -420 -0.5t-358 -3.5l-131 -2v342q250 -6 480.5 -8.5t335.5 -1.5h106q58 -57 135.5 -129.5t125.5 -116.5l48 -43l-4 -877l-301 -286q-501 -7 -922 -7l-4 332l917 4
q0 131 -2 244z" />
    <glyph glyph-name="uni2219" unicode="&#x2219;" horiz-adv-x="620" 
d="M520 797q-6 -84 -10 -180t-5 -149l-1 -54l-393 4q1 87 -1.5 183t-5.5 149l-2 53z" />
    <glyph glyph-name="cid765" unicode="&#x221a;" horiz-adv-x="1845" 
d="M1767 1772q-4 -84 -12 -161.5t-14 -112.5l-6 -36l-674 29q-35 -191 -136.5 -778.5t-144.5 -829.5l-311 4q-19 130 -58.5 327t-69.5 328l-30 132q-54 -105 -82 -150l-188 117q45 84 102 181t91 152l34 54q55 4 120.5 12t103.5 14l38 5q8 -34 31 -226.5t43 -368.5l19 -175
q46 329 96 704t77 585l27 210z" />
    <glyph glyph-name="cid703" unicode="&#x221e;" horiz-adv-x="1681" 
d="M1350 813q-70 -5 -148 -14.5t-121 -16.5l-43 -6l-4 -219q64 -12 142.5 -24.5t125.5 -18.5l46 -6q4 69 4.5 145.5t-0.5 118.5zM348 836q-2 -86 -1 -161t4 -125l3 -50q46 3 95 9.5t86 13.5t67 13.5t46.5 10.5t17.5 4l2 235zM700 1047q29 -27 68 -60.5t64 -53.5l24 -20
q86 68 184 136q70 9 155 16t135 9l50 3q42 -44 100 -103.5t95 -96.5l37 -37q-3 -69 -8.5 -157t-9.5 -141l-5 -53q-43 -43 -95 -98t-83 -89l-31 -34q-96 9 -187 21t-134 20l-43 8q-29 26 -69.5 58t-66.5 51l-26 18q-74 -63 -160 -141q-79 -15 -173 -28.5t-148 -20.5l-54 -6
l-221 221q-4 90 -5 198.5t0 172.5l1 63q60 48 123.5 96.5t96.5 72.5l34 24q79 -6 167 -18.5t137 -21.5z" />
    <glyph glyph-name="cid756" unicode="&#x2220;" horiz-adv-x="1480" 
d="M1042 1561q53 -36 119.5 -75.5t106.5 -61.5l41 -21q-456 -679 -824 -1221q62 1 139.5 3.5t153 6t151.5 7t140.5 6.5t114.5 6t79 5l29 1q-6 -84 -8 -161.5t-1 -112.5l1 -35l-1038 37q-31 36 -61.5 98t-44.5 106l-15 44q176 249 405.5 591t370.5 560z" />
    <glyph glyph-name="cid749" unicode="&#x2227;" horiz-adv-x="1417" 
d="M999 -72q-194 753 -303 1274q-135 -646 -262 -1268h-356q221 856 403 1655q233 4 434 -6q202 -835 433 -1630q-156 -17 -349 -25z" />
    <glyph glyph-name="cid750" unicode="&#x2228;" horiz-adv-x="1417" 
d="M414 1581q192 -755 303 -1276q135 646 262 1270h356q-221 -858 -403 -1655q-235 -4 -436 6q-202 833 -433 1630q156 17 351 25z" />
    <glyph glyph-name="cid748" unicode="&#x2229;" horiz-adv-x="1396" 
d="M1331 -12l-334 -4l-6 1142l-596 -8q-1 -193 1 -476.5t4 -470.5l3 -187h-342q5 249 8 535.5t3 448.5v162q57 58 129 135.5t115 126.5l44 48l656 -4q71 -64 148 -139.5t118 -118.5l41 -43q8 -728 8 -1147z" />
    <glyph glyph-name="cid747" unicode="&#x222a;" horiz-adv-x="1396" 
d="M70 1434l333 4l5 -1145l596 8q1 193 -1 477t-4 472l-2 188h342q-6 -250 -8.5 -547.5t-2.5 -470.5l1 -172q-57 -58 -134.5 -124.5t-126.5 -103.5l-48 -38l-594 4q-68 52 -155.5 121.5t-140.5 112.5l-54 44q-6 749 -6 1170z" />
    <glyph glyph-name="cid769" unicode="&#x222b;" horiz-adv-x="1185" 
d="M741 1104q-24 -182 -58 -403.5t-57 -351.5l-22 -130q-90 -123 -223 -311l-309 -10q-4 64 -12 145.5t-14 131.5l-5 50q49 -2 90.5 -1.5t69.5 2.5l28 1l117 133q35 228 64.5 444.5t41.5 318.5l13 102q57 63 114.5 136.5t86.5 116.5l28 42l398 53l22 -338l-223 -6
q-36 -24 -73.5 -55.5t-57.5 -50.5z" />
    <glyph glyph-name="cid770" unicode="&#x222c;" horiz-adv-x="1869" 
d="M741 1104q-24 -182 -58 -403.5t-57 -351.5l-22 -130q-90 -123 -223 -311l-309 -10q-4 64 -12 145.5t-14 131.5l-5 50q49 -2 90.5 -1.5t69.5 2.5l28 1l117 133q35 228 64.5 444.5t41.5 318.5l13 102q57 63 114.5 136.5t86.5 116.5l28 42l398 53l22 -338l-223 -6
q-36 -24 -73.5 -55.5t-57.5 -50.5zM1438 1104q-24 -182 -57.5 -403.5t-55.5 -351.5l-22 -130q-93 -123 -226 -311l-309 -10q-4 64 -12 145.5t-14 131.5l-5 50q49 -2 91.5 -1.5t71.5 2.5l28 1l114 133q35 228 64.5 444.5t41.5 318.5l13 102q57 63 114.5 136.5t86.5 116.5
l29 42l397 53l24 -338l-225 -6q-36 -24 -73 -55.5t-56 -50.5z" />
    <glyph glyph-name="cid704" unicode="&#x2234;" horiz-adv-x="1351" 
d="M1221 393l-11 -237l-243 2q1 54 -0.5 113.5t-3.5 92.5l-2 33zM393 393l-8 -237l-244 2l-6 239zM805 1096l-10 -238l-244 2l-6 240z" />
    <glyph glyph-name="cid768" unicode="&#x2235;" horiz-adv-x="1351" 
d="M145 870q4 53 6 112.5t3 92.5v33l243 -2l6 -240zM971 870l10 238l244 -2l6 -240zM561 168l10 238l242 -3l6 -239z" />
    <glyph glyph-name="similar" unicode="&#x223c;" horiz-adv-x="1200" 
d="M111 1460q160 99 346 232q125 -132 254 -232q127 68 254 170q57 -123 129 -209q-172 -74 -383 -207q-135 136 -244 216q-117 -87 -201 -173q-77 115 -155 203z" />
    <glyph glyph-name="cid1182" unicode="&#x2248;" horiz-adv-x="1288" 
d="M1049 735l186 -295l-436 -161q-113 71 -185.5 118t-89.5 59l-16 11q-35 -29 -256 -170l-166 264l403 213l312 -180q33 20 248 141zM952 1202l219 -287l-432 -206l-264 174q-32 -21 -237 -127l-185 280l408 176l268 -204q35 30 223 194z" />
    <glyph glyph-name="cid762" unicode="&#x2252;" horiz-adv-x="1409" 
d="M467 1485l-10 -232l-236 2l-6 234zM1192 211l-8 -229l-238 2l-6 231zM201 1174q51 -1 137 -2.5t359 -4t503 1.5q-6 -184 -10 -360q-460 -2 -983 -14q-4 211 -6 379zM201 657q51 -1 137 -2t359 -3t503 1q-6 -182 -10 -358q-460 -2 -983 -14q-4 210 -6 376z" />
    <glyph glyph-name="cid698" unicode="&#x2260;" horiz-adv-x="1409" 
d="M842 1419l288 -4q-39 -87 -114 -248q124 0 190 2q-6 -184 -8 -360q-139 0 -350 -2l-72 -154h430q-2 -196 -6 -372l-565 2q-29 -56 -63 -125t-53 -110l-19 -40h-260q72 165 118 277q-24 -1 -72.5 -2t-72.5 -2q2 190 4 366q108 2 301 6q3 7 64 150q-253 -4 -369 -8
q-2 211 -6 379q216 -5 530 -7z" />
    <glyph glyph-name="cid761" unicode="&#x2261;" horiz-adv-x="1273" 
d="M139 1278q51 -1 138 -1.5t360.5 -1.5t503.5 1q-7 -137 -11 -270q-460 -3 -983 -11q-4 158 -8 283zM139 895q51 -1 138 -1.5t360.5 -1.5t503.5 1q-7 -139 -11 -270q-460 -3 -983 -13q-4 160 -8 285zM139 508q51 -1 138 -1.5t360.5 -1.5t503.5 1q-7 -139 -11 -270
q-460 -3 -983 -11q-4 158 -8 283z" />
    <glyph glyph-name="cid1180" unicode="&#x2264;" horiz-adv-x="1097" 
d="M47 440h989l-4 -278l-977 16zM528 891l445 -86l-23 -326l-833 283l-13 303l897 248l5 -326z" />
    <glyph glyph-name="cid1181" unicode="&#x2265;" horiz-adv-x="1097" 
d="M76 440h989l-6 -262l-979 -16zM102 1313l899 -248l-14 -303l-833 -283l-23 326l444 106l-475 76z" />
    <glyph glyph-name="cid701" unicode="&#x2266;" horiz-adv-x="890" 
d="M117 618q338 -10 663 -12q-4 -109 -8 -213q-337 -6 -653 0q0 125 -2 225zM113 311q330 -2 663 -10q-4 -111 -8 -215q-332 -8 -653 0q-2 125 -2 225zM641 1382q33 -39 69 -85.5t56 -73.5l20 -27l-436 -182q71 -32 183 -85t188 -91l76 -37l-189 -164q-109 70 -240 145.5
t-208 115.5l-76 40q3 39 3.5 82.5t-0.5 67.5l-1 24z" />
    <glyph glyph-name="cid702" unicode="&#x2267;" horiz-adv-x="890" 
d="M788 618v-225q-141 -3 -304.5 -3t-257.5 2l-93 1l-8 213q146 1 311.5 4t258.5 6zM793 311v-225q-143 -4 -306.5 -4t-255.5 2l-92 2l-10 215zM266 1382q330 -161 553 -270q-2 -86 2 -174q-276 -143 -524 -301q-86 74 -186 164q286 141 444 213q-317 131 -436 182
q73 98 147 186z" />
    <glyph glyph-name="cid763" unicode="&#x226a;" horiz-adv-x="1329" 
d="M1061 1214q45 -44 98.5 -98.5t84.5 -87.5l30 -33q-240 -190 -404 -315q77 -68 176 -151.5t160 -132.5l60 -50l-183 -201l-460 445q4 53 3.5 102t-2.5 83l-3 34zM518 1214q45 -44 93.5 -95t74.5 -80l25 -29q-53 -44 -115.5 -98t-143.5 -124.5t-124 -107.5
q82 -67 180.5 -150.5t156.5 -133.5l58 -50l-182 -201q-111 111 -226.5 222.5t-174.5 166.5l-60 56q3 57 2 105.5t-4 80.5l-2 33z" />
    <glyph glyph-name="cid764" unicode="&#x226b;" horiz-adv-x="1329" 
d="M289 139q-45 44 -98.5 98.5t-84.5 87.5l-30 33q53 39 153.5 118t174.5 138l75 60q-82 73 -180.5 156.5t-156.5 130.5l-58 47l182 200q111 -111 226.5 -222t175.5 -166l59 -56q3 -47 3.5 -102t-0.5 -86l-1 -31zM831 139q-45 44 -97.5 98.5t-82.5 87.5l-30 33
q253 191 401 316q-77 72 -176 155.5t-159 130.5l-60 48l182 200q111 -111 226.5 -222t174.5 -166l60 -56l4 -219q-87 -77 -197.5 -178.5t-178.5 -164.5z" />
    <glyph glyph-name="cid745" unicode="&#x2282;" horiz-adv-x="1396" 
d="M1303 1444l4 -334l-918 -4l8 -797q193 -1 420.5 0.5t358.5 3.5l131 2v-340q-250 6 -480.5 9t-336.5 2h-105q-58 56 -135.5 122.5t-125.5 105.5l-48 38l4 856q53 68 128 150.5t124 131.5l49 48q501 6 922 6z" />
    <glyph glyph-name="cid746" unicode="&#x2283;" horiz-adv-x="1396" 
d="M86 -25l-4 332l917 4l-8 797q-193 1 -420 -0.5t-358 -3.5l-131 -2v342q250 -6 480.5 -8.5t335.5 -1.5h106q58 -57 135.5 -129.5t125.5 -116.5l48 -43l-4 -856q-53 -68 -128 -144.5t-124 -119.5l-49 -43q-501 -7 -922 -7z" />
    <glyph glyph-name="cid743" unicode="&#x2286;" horiz-adv-x="1396" 
d="M1315 276l6 -299q-317 0 -622.5 3.5t-452.5 7.5l-148 4q-5 64 -8.5 135t-4.5 110l-1 39q284 -3 591.5 -3t473.5 1zM1309 434l-922 6q-20 18 -53.5 48.5t-114 112t-133.5 149.5l-4 395q178 160 309 289q360 -4 922 10q-2 -258 0 -342q-53 1 -144 2t-332 3t-434 1
q-8 -223 -8 -336q442 -4 918 -4q0 -234 -4 -334z" />
    <glyph glyph-name="cid744" unicode="&#x2287;" horiz-adv-x="1396" 
d="M80 276q593 -6 1231 0q-3 -141 -15 -284q-510 -15 -1222 -15q0 152 6 299zM86 434l-4 334l917 4l-8 336q-193 1 -420 -0.5t-358 -3.5l-131 -2v342q250 -6 480.5 -8.5t335.5 -1.5h106q58 -57 135.5 -129.5t125.5 -116.5l48 -43l-4 -395q-53 -68 -128 -145.5t-124 -120.5
l-49 -44q-501 -6 -922 -6z" />
    <glyph glyph-name="cid757" unicode="&#x22a5;" horiz-adv-x="1198" 
d="M485 1581l277 6q19 -683 37 -1313q198 5 311 11l20 -365q-574 -6 -1028 -12q2 167 2 362q228 -2 390 -2z" />
    <glyph glyph-name="cid758" unicode="&#x2312;" horiz-adv-x="1630" 
d="M57 1468q222 133 447 291q312 -8 704 -28q177 -144 361 -287q-95 -113 -158 -209q-158 141 -281 250q-35 2 -91.5 3.5t-221 4t-268.5 -3.5q-148 -121 -326 -258q-76 128 -166 237z" />
    <glyph glyph-name="cid729" unicode="&#x25a0;" horiz-adv-x="1579" 
d="M86 1454q675 -21 1389 -41q-31 -554 -86 -1290q-569 13 -1242 33q-12 572 -61 1298z" />
    <glyph glyph-name="cid728" unicode="&#x25a1;" horiz-adv-x="1579" 
d="M1184 1151q-206 5 -403 6.5t-291 0.5l-95 -1q10 -191 19 -388.5t12 -299.5l4 -102q195 -6 370.5 -10.5t253.5 -5.5l79 -1q15 197 27.5 397.5t17.5 302.5zM1528 1442q-45 -693 -94 -1358q-570 15 -1280 35q-25 534 -88 1366q728 -27 1462 -43z" />
    <glyph glyph-name="cid731" unicode="&#x25b2;" horiz-adv-x="1720" 
d="M883 1466q40 -94 108.5 -250t252 -544.5t333.5 -667.5q-80 2 -217.5 5t-511 6.5t-684.5 0.5q43 81 115 220.5t262.5 522t341.5 707.5z" />
    <glyph glyph-name="cid730" unicode="&#x25b3;" horiz-adv-x="1720" 
d="M1198 219q-29 69 -59 139t-56 129.5t-51.5 117t-46 104.5t-39.5 88.5t-32.5 72t-23.5 53t-15 33.5l-5 11l-354 -752zM1632 -39q-94 2 -243.5 5t-585 7.5t-705.5 -0.5q389 795 783 1575q406 -851 751 -1587z" />
    <glyph glyph-name="cid733" unicode="&#x25bc;" horiz-adv-x="1720" 
d="M821 -76q-365 773 -692 1460q703 6 1411 -12q-335 -718 -719 -1448z" />
    <glyph glyph-name="cid732" unicode="&#x25bd;" horiz-adv-x="1720" 
d="M559 1182q119 -252 323 -711l3 -6q95 205 184 385t131 258l41 78zM121 1473q768 3 1534 -15q-39 -86 -109.5 -234.5t-275.5 -564t-396 -776.5q-392 816 -753 1590z" />
    <glyph glyph-name="cid727" unicode="&#x25c6;" horiz-adv-x="1613" 
d="M821 1628q370 -514 682 -966q-343 -401 -694 -799q-357 415 -694 811q330 449 706 954z" />
    <glyph glyph-name="cid726" unicode="&#x25c7;" horiz-adv-x="1613" 
d="M1237 668q-76 113 -180 254t-170 226l-66 85q-115 -153 -216.5 -291.5t-146.5 -201.5l-44 -62q103 -130 208.5 -260t159.5 -195l54 -65q108 127 208 254.5t146 191.5zM1563 657q-350 -406 -736 -847q-371 429 -735 860q350 477 750 1011q403 -556 721 -1024z" />
    <glyph glyph-name="cid723" unicode="&#x25cb;" horiz-adv-x="1792" 
d="M1376 489q3 111 2 221t-4 192l-4 81q-62 70 -132.5 148.5t-110.5 121.5l-40 43q-129 -4 -252.5 -9.5t-182.5 -8.5l-58 -4q-39 -80 -80.5 -175t-63.5 -149l-22 -55l55 -457q43 -51 101 -117t94 -107l37 -40q108 -3 204.5 -3t138.5 1l42 2q151 159 276 315zM1171 1604
l515 -510l-54 -748q-88 -91 -192 -193.5t-164 -158.5l-59 -57q-132 -8 -285.5 -14.5t-241.5 -9.5l-88 -3q-86 90 -185 191t-155 157l-57 55l-127 635l293 545q162 32 362 59.5t319 39.5z" />
    <glyph glyph-name="cid725" unicode="&#x25ce;" horiz-adv-x="1792" 
d="M1057 633q2 39 1.5 84.5t-2.5 82.5l-1 38l-92 104l-162 -6q-13 -27 -26 -59t-20 -50l-7 -18l18 -195l74 -88h127q49 54 90 107zM1016 1141l221 -226l-23 -368l-178 -182q-58 -1 -124 -3.5t-103 -5.5l-37 -2l-172 178q-15 74 -28.5 154t-19.5 123l-7 43q31 49 63 109
t48 95l16 36zM1364 489q3 111 2 221t-4 192l-4 81q-62 70 -132.5 148.5t-110.5 121.5l-40 43q-126 0 -249 -5.5t-184 -10.5l-60 -6q-39 -80 -80.5 -175t-63.5 -149l-22 -55q9 -92 22.5 -206t23.5 -183l9 -68q43 -53 100.5 -119t94.5 -105l36 -40q108 -3 204.5 -3t138.5 1
l42 2q152 159 277 315zM1159 1604l514 -510q-16 -177 -29.5 -364t-18.5 -286l-5 -98q-89 -91 -193 -193.5t-163 -158.5l-60 -57q-135 -4 -288.5 -10.5t-239.5 -11.5l-86 -5q-91 89 -190.5 190t-153.5 157l-53 56q-32 148 -63.5 307t-47.5 244l-16 84q63 122 136 258t114 212
l42 75q160 30 360 58t320 41z" />
    <glyph glyph-name="cid724" unicode="&#x25cf;" horiz-adv-x="1792" 
d="M1145 1513q100 -93 215.5 -207.5t181.5 -182.5l66 -68q-4 -142 -16 -310t-22 -265l-9 -97q-81 -82 -174.5 -174.5t-146.5 -144.5l-54 -52l-553 -22q-84 80 -174 170.5t-137 141.5l-48 50q-29 130 -57.5 273.5t-42.5 222.5l-14 78l264 489q153 25 333 49.5t284 36.5z" />
    <glyph glyph-name="cid779" unicode="&#x25ef;" horiz-adv-x="1628" 
d="M1251 489q3 111 2 221t-5 192l-3 81q-56 70 -120 148.5t-100 121.5l-36 43q-108 -7 -220 -18t-170 -18l-58 -7q-28 -71 -66 -160.5t-62 -143.5l-24 -54q6 -91 19 -205.5t22 -183.5l10 -68l209 -264q98 -3 185.5 -3t125.5 1l39 2q139 159 252 315zM1065 1604l467 -510
q-15 -177 -26.5 -364t-15.5 -286l-5 -98q-73 -88 -167.5 -190.5t-153.5 -160.5l-58 -58l-559 -27l-361 403l-116 635q54 127 121 263t107 209l40 73z" />
    <glyph glyph-name="cid722" unicode="&#x2605;" horiz-adv-x="1939" 
d="M76 975q189 43 334 72.5t195 38.5l50 8q88 161 179.5 324t139.5 246l48 83q93 -189 164 -356.5t96 -240.5l25 -73l559 -119q-111 -125 -223.5 -239t-168.5 -165l-57 -52q63 -160 122 -319t87 -237l27 -79q-149 51 -315 122t-258 116l-91 45q-128 -61 -290 -131.5
t-261 -110.5l-98 -41q72 201 123 359.5t65 215.5l15 58q-100 98 -216.5 217t-183.5 189z" />
    <glyph glyph-name="cid721" unicode="&#x2606;" horiz-adv-x="1939" 
d="M1468 842q-127 18 -311 47q-71 201 -143 377q-76 -185 -180 -375q-158 -27 -330 -41q178 -141 297 -258q-59 -172 -127 -352q154 89 295 161q168 -73 356 -153q-57 146 -141 334q118 110 284 260zM1866 958l-449 -456q57 -138 116 -297t89 -249l31 -89q-156 64 -322 135
t-254 110l-88 38q-120 -56 -282 -126.5t-265 -113.5l-102 -43q53 174 103.5 332t74.5 229l25 72q-95 98 -211.5 217t-185.5 189l-70 69q176 35 321 64.5t201 42.5l57 12q75 148 166.5 311t146.5 253l54 89q95 -177 179.5 -345.5t121.5 -248.5l37 -80q108 -20 234.5 -48.5
t199.5 -47.5z" />
    <glyph glyph-name="cid706" unicode="&#x2640;" horiz-adv-x="1187" 
d="M963 240q-139 -2 -254 0q-1 -21 -3.5 -56.5t-5 -118.5t-0.5 -137h-235q4 152 0 310q-112 -5 -229 -7q-3 132 -11 269q27 1 106.5 1.5t125.5 2.5q0 94 -2 184h-49l-273 217q-14 84 -27.5 181t-20.5 152l-7 56l174 303l453 82l393 -299q-4 -84 -14.5 -191.5t-19.5 -172.5
l-9 -66q-61 -64 -125.5 -128.5t-98.5 -97.5l-34 -32l-80 -4v-188q17 1 44.5 2t94.5 2t111 0q0 -123 -4 -264zM795 1063q2 37 2 74.5t-1.5 62.5t-3 44.5t-1.5 21.5q-50 37 -92 66.5t-59 40.5l-17 11l-170 -12q-25 -37 -50 -76.5t-37 -60.5l-12 -21l25 -194q26 -24 58.5 -49.5
t51.5 -38.5l19 -14l182 6q50 71 105 139z" />
    <glyph glyph-name="cid705" unicode="&#x2642;" horiz-adv-x="1421" 
d="M461 614q-21 -43 -38.5 -95.5t-24.5 -84.5l-7 -31q32 -54 59.5 -97.5t39.5 -59.5l12 -17l164 -49q39 25 83 48t69 34l24 10q11 44 22 92.5t16 75.5l5 27q-12 28 -34.5 68.5t-38.5 66.5l-17 27l-154 57q-104 -29 -180 -72zM494 1434q119 44 246 95t194 80l67 29
q97 -40 203 -77q105 -379 152 -529q-107 -64 -213 -123l-64 279q-126 -279 -159 -365l73 -43q34 -62 73.5 -130.5t61.5 -105.5l23 -38q-11 -88 -31 -190.5t-34 -161.5l-15 -58q-56 -43 -132 -93t-123 -79l-48 -28l-459 86l-254 424q44 103 92 205.5t73 154.5l26 51
q83 36 170.5 71t135 53t46.5 17l78 -32q7 14 74 138.5t114 213.5q-156 -44 -336 -107l-1 9q-14 142 -33 254z" />
    <glyph glyph-name="cid775" unicode="&#x266a;" horiz-adv-x="1366" 
d="M1198 1370q24 -57 48 -124.5t36 -106.5l12 -39q-57 -91 -106.5 -173.5t-70.5 -119.5l-21 -37l-236 -10q52 91 100 187t70 146l23 50l-326 205q-2 -747 -2 -1342q-137 -31 -268 -76q-152 29 -322 54q-45 122 -76 231q53 119 123 250q158 -22 314 -55q0 383 -41 1089
q147 91 276 191q93 -65 209.5 -145t187.5 -127z" />
    <glyph glyph-name="cid774" unicode="&#x266d;" horiz-adv-x="950" 
d="M616 358l39 516q-67 -23 -135.5 -48t-103.5 -38l-35 -14l-19 -512zM637 76l-528 -158q-18 352 -34.5 796t-24.5 712l-7 268q184 4 344 8q-1 -50 -3 -130.5t-4.5 -254t-0.5 -260.5q49 24 123.5 55.5t123.5 51.5l50 20l223 -279q-18 -150 -39 -303t-33 -231l-12 -78
q-41 -47 -85.5 -101.5t-68.5 -85.5z" />
    <glyph glyph-name="cid773" unicode="&#x266f;" horiz-adv-x="1378" 
d="M743 643q6 191 9 252q-85 -13 -144 -23q-1 -37 -3 -131t-3 -129zM1081 1659l-20 -352q90 16 129 24q33 -122 82 -325q-152 -41 -254 -66q-3 -33 -9.5 -118.5t-9.5 -116.5q82 18 129 28q46 -129 93 -330l-252 -63q-10 -148 -17 -358q-53 -8 -110 -18.5t-88 -17.5l-31 -7
l-2 360q-90 -14 -133 -20l-4 -365l-230 -47l-2 366q-53 -12 -125 -26q-53 146 -106 285q151 46 231 63q0 108 -4 268l-172 -32q-55 153 -108 292q81 18 159 36t117 26q-8 259 -14 377q71 11 148.5 25.5t119.5 22.5l41 9l-14 -371q43 9 143 31q4 246 4 367z" />
    <glyph glyph-name="uni3000" unicode="&#x3000;" horiz-adv-x="913" 
 />
    <glyph glyph-name="cid634" unicode="&#x3001;" horiz-adv-x="686" 
d="M274 360l330 -331l-198 -158q-73 71 -155.5 148t-128.5 118l-46 41z" />
    <glyph glyph-name="cid635" unicode="&#x3002;" horiz-adv-x="610" 
d="M403 274h-159l-4 -186l153 2zM580 287l-17 -199q-28 -36 -65 -73.5t-60 -56.5l-24 -19l-176 2q-37 29 -77.5 65.5t-62.5 57.5l-22 22l-8 203l159 147l187 4q31 -32 72.5 -70t67.5 -60z" />
    <glyph glyph-name="cid655" unicode="&#x3003;" horiz-adv-x="1265" 
d="M877 487q-65 26 -144.5 53.5t-126.5 41.5l-47 14q46 120 117.5 292.5t119.5 285.5l48 112q86 -30 183.5 -61.5t152.5 -47.5l55 -16q-83 -152 -172.5 -320.5t-137.5 -260.5zM367 496q-65 26 -144 53t-125 41l-47 14q46 121 117.5 293.5t119.5 284.5l48 112
q84 -30 182 -61.5t154 -47.5l55 -16q-78 -149 -168 -317.5t-141 -261.5z" />
    <glyph glyph-name="cid657" unicode="&#x3005;" horiz-adv-x="1208" 
d="M909 1382q59 -64 127.5 -145t107.5 -131l38 -49q-207 -378 -408 -709q144 -89 238 -158q-85 -126 -181 -235q-367 281 -630 459q92 102 153 178q88 -41 199 -107q76 138 147 290t104 235l34 82q-89 16 -181.5 30t-140.5 20l-47 5q-17 -78 -41 -172t-40 -149l-15 -54
q-76 13 -154 29t-118 25l-40 10l191 604z" />
    <glyph glyph-name="cid658" unicode="&#x3006;" horiz-adv-x="1466" 
d="M549 762q-28 -68 -80 -179.5t-91 -188.5l-38 -77q64 48 161 139.5t163 158.5l65 67zM1008 571q-145 -139 -335 -299.5t-307 -251.5l-118 -90q-17 33 -65 98.5t-87 115.5l-39 49q46 130 101.5 315.5t87.5 305.5l33 120q65 32 133 72.5t104 65.5l35 24q74 -31 146.5 -64.5
t108.5 -51.5l36 -17q126 291 235 589q57 -21 128.5 -44.5t114.5 -36.5l42 -13l-260 -596q139 -53 309 -119q-39 -80 -70 -156t-42 -111l-11 -36z" />
    <glyph glyph-name="cid659" unicode="&#x3007;" horiz-adv-x="1628" 
d="M1251 489q3 111 2 221t-5 192l-3 81q-56 70 -120 148.5t-100 121.5l-36 43q-108 -7 -220 -18t-170 -18l-58 -7q-28 -71 -66 -160.5t-62 -143.5l-24 -54q6 -91 19 -205.5t22 -183.5l10 -68l209 -264q98 -3 185.5 -3t125.5 1l39 2q139 159 252 315zM1065 1604l467 -510
q-15 -177 -26.5 -364t-15.5 -286l-5 -98q-73 -88 -167.5 -190.5t-153.5 -160.5l-58 -58l-559 -27l-361 403l-116 635q54 127 121 263t107 209l40 73z" />
    <glyph glyph-name="cid682" unicode="&#x3008;" horiz-adv-x="1355" 
d="M967 1751q56 -52 116.5 -109.5t92.5 -89.5l32 -32q-200 -183 -390.5 -364.5t-281.5 -271.5l-90 -89q159 -150 349.5 -327.5t301.5 -279.5l111 -102q-54 -46 -114 -101t-94 -87l-33 -31l-768 770l-9 338q169 165 363.5 359t304.5 306z" />
    <glyph glyph-name="cid683" unicode="&#x3009;" horiz-adv-x="1376" 
d="M410 1751q398 -406 776 -776q-1 -19 -3 -51t-4.5 -121.5t-0.5 -165.5q-388 -390 -768 -770q-117 115 -240 219q452 415 762 709q-333 333 -762 725q113 114 240 231z" />
    <glyph glyph-name="cid684" unicode="&#x300a;" horiz-adv-x="1740" 
d="M1391 1755l251 -207q-396 -424 -708 -751q149 -175 313.5 -362t254.5 -287l89 -99l-252 -178q-145 191 -306 399.5t-250 321.5l-89 113v213q157 186 331.5 395t270.5 325zM797 1755q56 -47 119.5 -99t99.5 -80l35 -28q-398 -424 -682 -751q138 -167 295 -354t245 -291
l88 -103l-252 -178l-616 834l-2 213q154 187 321.5 396t257.5 325z" />
    <glyph glyph-name="cid685" unicode="&#x300b;" horiz-adv-x="1732" 
d="M365 1751q369 -442 696 -838q-2 -111 0 -213q-298 -400 -645 -833q-131 88 -252 178q322 356 657 750l-710 751q129 101 254 205zM958 1751q329 -423 668 -838q4 -113 0 -213q-302 -406 -616 -833q-131 92 -252 178q320 356 628 750q-140 156 -310.5 344t-270.5 297
l-100 110q134 115 253 205z" />
    <glyph glyph-name="cid686" unicode="&#x300c;" horiz-adv-x="966" 
d="M147 1872q164 3 338.5 3t267.5 -1l93 -2l-17 -410l-366 13q0 -316 7.5 -702t15.5 -613l8 -228l-353 -4z" />
    <glyph glyph-name="cid687" unicode="&#x300d;" horiz-adv-x="964" 
d="M825 -242q-167 2 -335.5 2t-253.5 -1l-86 -1q0 93 3.5 195t6.5 157l4 56l366 -12q1 316 -6 702t-14 614l-8 228q90 -1 173 0t121 2l38 2q8 -599 -9 -1944z" />
    <glyph glyph-name="cid688" unicode="&#x300e;" horiz-adv-x="966" 
d="M752 1790q-172 -3 -514 0q6 -814 -7 -1780q20 0 76 1t92 1q-4 363 -10.5 750t-10.5 592l-5 205q225 -5 368 -11q5 143 11 242zM940 1956q-17 -321 -22 -580q-271 13 -365 15q1 -306 9 -691.5t16 -618.5l8 -233q-269 3 -537 -6q14 1003 8 2114q442 -6 883 0z" />
    <glyph glyph-name="cid689" unicode="&#x300f;" horiz-adv-x="964" 
d="M244 -160q161 3 491 0q12 350 13.5 794.5t-2.5 713.5l-5 270q-39 -2 -147 -2q4 -102 10.5 -488.5t11.5 -721.5l5 -336q-226 4 -369 10q-7 -227 -8 -240zM55 -326q18 437 21 578q248 -12 364 -14q0 306 -8 691.5t-16 618.5l-8 232q300 0 518 10q-17 -1021 -8 -2116
q-433 6 -863 0z" />
    <glyph glyph-name="cid690" unicode="&#x3010;" horiz-adv-x="997" 
d="M840 1565q-82 -32 -173.5 -64.5t-142.5 -49.5l-51 -17q-3 -234 2 -552t11 -519l6 -201q93 -33 327 -121l4 -227l-663 -7l6 2024q155 4 327 4t267 -2l94 -2z" />
    <glyph glyph-name="cid691" unicode="&#x3011;" horiz-adv-x="993" 
d="M190 1538q-4 86 -16 293q337 10 666 0q4 -1071 6 -2034q-97 -6 -639 6q1 7 2 24t3 84t-1 161q86 19 168 39t121 31l39 10q8 697 18 1282q-160 51 -367 104z" />
    <glyph glyph-name="cid735" unicode="&#x3012;" horiz-adv-x="1220" 
d="M115 1571q535 -2 1013 0q-10 -193 -16 -373q-542 -6 -983 -14q-6 201 -14 387zM778 -80l-352 -2q-13 386 -33 721q-102 2 -282 2l-23 391q560 6 1059 10v-403q-174 2 -354 0z" />
    <glyph glyph-name="cid740" unicode="&#x3013;" horiz-adv-x="1409" 
d="M207 1174q484 1 999 -5q-6 -184 -8 -360q-462 -2 -985 -14q-2 211 -6 379zM207 657q51 -1 137 -2t359 -3t503 1q-6 -182 -8 -358q-462 -2 -985 -14q-2 210 -6 376z" />
    <glyph glyph-name="cid676" unicode="&#x3014;" horiz-adv-x="942" 
d="M530 1827q56 -42 120 -101.5t100 -97.5l36 -39q-98 -78 -180.5 -140t-115.5 -85l-33 -23q-2 -286 -1 -528t3 -401l2 -160q64 -42 141.5 -96.5t123.5 -88.5l46 -34l-225 -238l-395 332q-2 228 -13.5 560t-22.5 551l-10 218q103 87 209 179.5t161 142.5z" />
    <glyph glyph-name="cid677" unicode="&#x3015;" horiz-adv-x="942" 
d="M416 1827q193 -176 424 -371q-41 -818 -45 -1329q-177 -146 -396 -332q-125 134 -225 238q168 125 311 219q1 60 2 159.5t3 401.5t-1 528q-108 72 -329 248q129 144 256 238z" />
    <glyph glyph-name="cid665" unicode="&#x301c;" horiz-adv-x="1683" 
d="M88 823q251 167 533 355q205 -189 385 -357q186 127 393 260q94 -149 194 -317q-289 -156 -587 -320q-219 199 -373 332q-127 -116 -307 -266q-125 168 -238 313z" />
    <glyph glyph-name="cid1174" unicode="&#x301d;" horiz-adv-x="1179" 
d="M315 1260q-124 242 -288 528q200 56 393 119q94 -272 192 -543q-150 -47 -297 -104zM823 1260q-124 242 -288 528q200 56 395 119q94 -272 192 -543q-149 -47 -299 -104z" />
    <glyph glyph-name="cid1175" unicode="&#x301f;" horiz-adv-x="1208" 
d="M858 387q125 -242 289 -526q-200 -56 -393 -119q-95 270 -193 541q147 47 297 104zM348 387q125 -242 289 -526q-200 -56 -393 -119q-95 270 -193 541q150 47 297 104z" />
    <glyph glyph-name="cid842" unicode="&#x3041;" horiz-adv-x="1212" 
d="M367 543q-24 -16 -48 -42.5t-35 -44.5l-12 -18l60 -268q1 1 15.5 10t31 20.5t35 30t28.5 37.5q-50 199 -75 275zM543 532l35 -126q59 67 100 108zM1077 84q-60 -20 -172 -79.5t-121 -61.5q-15 49 -35 123l-20 73l154 82q3 81 6 132t5 62l1 11l-51 37q-35 -36 -89.5 -101
t-92.5 -112l-37 -47l51 -228q-61 -27 -156 -38q-1 4 -35 137q-18 -25 -46 -55t-49.5 -51t-24.5 -25q-47 3 -87.5 9t-61.5 9.5t-28 3.5q-31 119 -60 246t-42 195l-14 67q73 93 161 236l121 34v142q-76 -2 -227 -2q0 1 -2 92t-2 158q4 0 100 -3.5t152 -3.5q6 66 6 123
q64 -1 233 -16q0 -3 -5 -47t-9 -68q49 -1 217.5 -7t235.5 -7q-9 -90 -9 -201q-14 0 -85.5 -1.5t-188.5 -4t-205 -4.5l-24 -158l186 -20q3 33 3.5 74t-1.5 49q102 -10 199 -31l-17 -148q117 -91 187 -167q-4 -116 -9.5 -211.5t-8.5 -139.5t-3 -57z" />
    <glyph glyph-name="cid843" unicode="&#x3042;" horiz-adv-x="1499" 
d="M424 707q-32 -22 -63 -56t-45 -57l-15 -23q13 -67 32.5 -154.5t32.5 -141.5l13 -54q1 1 30 19t63.5 48t51.5 62q-67 259 -100 357zM653 692l45 -164q78 89 131 142zM1350 111q-80 -26 -226.5 -105.5t-154.5 -81.5q-25 80 -74 258l199 107q4 105 8 171.5t6 80.5l2 14
l-63 47q-45 -47 -117 -131.5t-121 -145.5l-49 -61l65 -297q-70 -30 -202 -51q-8 51 -45 180q-23 -33 -60.5 -72.5t-66 -67t-31.5 -32.5q-61 4 -111.5 11.5t-79 13t-36.5 6.5q-41 156 -79 321t-56 252l-17 88q94 122 209 308l160 45v184q-100 -4 -297 -4q0 1 -3.5 121
t-3.5 205q149 -9 328 -9q8 86 8 162q55 -2 122.5 -7t122 -10t58.5 -5q0 -2 -6 -60.5t-10 -89.5q401 -13 588 -18q-10 -148 -12 -262q-105 0 -623 -15l-33 -203l244 -28q4 42 4 160q38 -3 84 -9.5t77 -12l62 -11t35 -6.5l-22 -191q153 -121 243 -221q-6 -149 -12.5 -274.5
t-10 -181t-3.5 -72.5z" />
    <glyph glyph-name="cid844" unicode="&#x3043;" horiz-adv-x="1210" 
d="M784 129q12 197 21 428t13 363l3 133q59 -8 137.5 -16t127.5 -11l49 -4q-28 -240 -56.5 -470t-42.5 -340l-14 -110zM449 1130q-3 -86 -7.5 -217t-10.5 -381t-3 -317q76 -82 174 -174q-3 -4 -21 -22.5t-53 -49.5t-69 -59q-154 90 -289 184q-27 353 -76 1016q199 10 355 20
z" />
    </font>
</defs>
</svg>
